<?xml version="1.0" encoding="iso-8859-1"?>
<!-- Generator: Adobe Illustrator 19.0.0, SVG Export Plug-In . SVG Version: 6.00 Build 0)  -->
<svg version="1.1" id="Layer_1" xmlns="http://www.w3.org/2000/svg" xmlns:xlink="http://www.w3.org/1999/xlink" x="0px" y="0px"
	 viewBox="0 0 496.2 496.2" style="enable-background:new 0 0 496.2 496.2;" xml:space="preserve">
<path style="fill:#A3D5E0;" d="M496.2,248.1C496.2,111.1,385.1,0,248.1,0S0,111.1,0,248.1s111.1,248.1,248.1,248.1
	S496.2,385.1,496.2,248.1z"/>
<path style="fill:#0D0F0F;" d="M247.8,333.4c-77.2,0-139.1,22.1-146.4,49.3c-3.3,12.2-7,35.2-10.1,57.5
	c42.7,34.9,97.4,55.9,156.9,55.9s114.1-21,156.9-55.9c-3.2-22.3-6.9-45.4-10.1-57.5C387.5,355.5,324.9,333.4,247.8,333.4z"/>
<path style="fill:#172023;" d="M353.1,311.1c-24.6-20.7-70.9,5-104.9,5s-80.3-25.7-104.9-5c-16,13.4-14,52.7,23.5,63.5
	c58.1,16.8,79.5,25.2,81.4,25.9v0.1c0,0,0,0,0.1,0h0.1v-0.1c1.9-0.7,23.2-9.2,81.4-25.9C367.1,363.8,369.1,324.5,353.1,311.1z"/>
<path style="fill:#E2A379;" d="M287,282.1h-77.8c12.1,36.6,1,53.3,1,53.3s11.9,13.2,37.9,13.2s37.9-13.2,37.9-13.2
	S274.9,318.7,287,282.1z"/>
<polygon style="fill:#684112;" points="322.1,276.8 310.1,270.1 298.1,289.4 289.6,276.1 210.1,252.1 208.1,265.4 198.8,284.8 
	190.8,276.1 176.6,285.1 176.6,257.4 160.1,253.4 176.6,228.8 176.6,220.1 319.6,220.1 320.8,233.4 335.4,252.8 323.4,255.4 "/>
<g>
	<path style="fill:#F4B382;" d="M327.9,175.2c0-92.4-35.7-113.6-79.8-113.6c-44,0-79.8,21.2-79.8,113.6c0,31.3,5.6,55.8,14,74.7
		c18.4,41.6,50.3,56.1,65.8,56.1c15.4,0,47.3-14.5,65.8-56.1C322.3,231,327.9,206.5,327.9,175.2z"/>
	<path style="fill:#F4B382;" d="M160.7,207.7c4.3,25.2,9.6,26.3,17.3,25l-8.1-54.8C162.2,179.3,156.4,182.6,160.7,207.7z"/>
	<path style="fill:#F4B382;" d="M326.5,178l-8.1,54.8c7.6,1.3,13,0.1,17.3-25C339.9,182.6,334.1,179.3,326.5,178z"/>
</g>
<path style="fill:#684112;" d="M269.8,75.6c10.6-4.9,35.7,7.6,48.3,26.3s30.7,58.7,6.8,114.7c0,0-30.2-87.3-63.1-124.6
	C262,91.5,263,78.8,269.8,75.6z"/>
<path style="fill:#2D2D2D;" d="M336.8,193.3c0,0-30,31-52.7,31s-23.5-10.2-36-10.2s-13.8,10.2-35.2,10.2s-53.5-31-53.5-31v-14h177.5
	v14H336.8z"/>
<g>
	<ellipse style="fill:#F4B382;" cx="278" cy="200.4" rx="17.7" ry="12.2"/>
	<ellipse style="fill:#F4B382;" cx="218.2" cy="200.4" rx="17.7" ry="12.2"/>
</g>
<g>
	<path style="fill:#684112;" d="M288.7,86.6C272.5,69.5,237,74.2,237,74.2l0,0l0,0l0,0c-49.9,6.8-95.8,53.4-62.1,143.7
		c0,0,125.1-84.7,122.7-102.5C297.4,114.5,299,97.6,288.7,86.6z"/>
	<path style="fill:#684112;" d="M305.1,86.9c12.7,18.7,30.7,58.7,6.8,114.7c0,0-30.2-87.3-63.1-124.6
		C249,76.5,292.4,68.3,305.1,86.9z"/>
	<path style="fill:#684112;" d="M292.1,73.9c12.7,18.7,30.7,58.7,6.8,114.7c0,0-30.2-87.3-63.1-124.6
		C236,63.5,279.4,55.3,292.1,73.9z"/>
</g>
<g>
	<path style="fill:#3A3A3A;" d="M341.4,166.8c0-90.5-41.8-111.3-93.3-111.3s-93.3,20.7-93.3,111.3H341.4z"/>
	<ellipse style="fill:#3A3A3A;" cx="248.1" cy="56.4" rx="12.8" ry="8.7"/>
</g>
<g>
	<path style="fill:#494949;" d="M209.5,156c-0.9,0-1.5-0.7-1.5-1.5c0-48,7.2-76.6,22-87.6c0.7-0.5,1.6-0.4,2.2,0.3
		c0.5,0.7,0.4,1.6-0.3,2.2c-14,10.4-20.7,38.2-20.7,85.1C211.1,155.3,210.4,156,209.5,156z"/>
	<path style="fill:#494949;" d="M286.7,156c-0.9,0-1.5-0.7-1.5-1.5c0-46.9-6.8-74.8-20.7-85.1c-0.7-0.5-0.8-1.5-0.3-2.2
		s1.5-0.8,2.2-0.3c14.8,11,22,39.7,22,87.6C288.2,155.3,287.5,156,286.7,156z"/>
	<path style="fill:#494949;" d="M248.1,130.3c-0.9,0-1.5-0.7-1.5-1.5V64.1c0-0.9,0.7-1.5,1.5-1.5c0.8,0,1.5,0.7,1.5,1.5v64.7
		C249.6,129.6,249,130.3,248.1,130.3z"/>
	<path style="fill:#494949;" d="M321.4,156.4c-0.9,0-1.5-0.7-1.5-1.5c0-47-13.1-75-40-85.4c-0.8-0.3-1.2-1.2-0.9-2
		c0.3-0.8,1.2-1.2,2-0.9c28.2,10.9,41.9,39.8,41.9,88.2C322.9,155.7,322.2,156.4,321.4,156.4z"/>
	<path style="fill:#494949;" d="M174.8,156.4c-0.9,0-1.5-0.7-1.5-1.5c0-48.5,13.7-77.3,41.9-88.2c0.8-0.3,1.7,0.1,2,0.9
		s-0.1,1.7-0.9,2c-26.9,10.4-40,38.3-40,85.4C176.4,155.7,175.7,156.4,174.8,156.4z"/>
</g>
<path style="fill:#2D2D2D;" d="M354.3,173.9c0,6.4-5.2,11.6-11.6,11.6c0,0-38.2-15.5-94.7-15.5s-94.7,15.5-94.7,15.5
	c-6.4,0-11.6-5.2-11.6-11.6v-23c0-6.4,5.2-11.6,11.6-11.6c0,0,48.2-15.5,94.7-15.5s94.7,15.5,94.7,15.5c6.4,0,11.6,5.2,11.6,11.6
	V173.9z"/>
<g>
	<path style="fill:#3A3A3A;" d="M157.6,177.1c-0.8,0-1.5-0.7-1.5-1.5v-28.5c0-0.8,0.7-1.5,1.5-1.5s1.5,0.7,1.5,1.5v28.5
		C159.1,176.4,158.4,177.1,157.6,177.1z"/>
	<path style="fill:#3A3A3A;" d="M173.1,173.8c-0.8,0-1.5-0.7-1.5-1.5v-28.5c0-0.8,0.7-1.5,1.5-1.5s1.5,0.7,1.5,1.5v28.5
		C174.6,173.1,173.9,173.8,173.1,173.8z"/>
	<path style="fill:#3A3A3A;" d="M192.2,169.8c-0.8,0-1.5-0.7-1.5-1.5v-28.5c0-0.8,0.7-1.5,1.5-1.5s1.5,0.7,1.5,1.5v28.5
		C193.7,169.1,193,169.8,192.2,169.8z"/>
	<path style="fill:#3A3A3A;" d="M211.2,166.4c-0.8,0-1.5-0.7-1.5-1.5v-28.5c0-0.8,0.7-1.5,1.5-1.5s1.5,0.7,1.5,1.5v28.5
		C212.7,165.8,212,166.4,211.2,166.4z"/>
	<path style="fill:#3A3A3A;" d="M230.3,164.4c-0.8,0-1.5-0.7-1.5-1.5v-28.5c0-0.8,0.7-1.5,1.5-1.5s1.5,0.7,1.5,1.5v28.5
		C231.8,163.8,231.1,164.4,230.3,164.4z"/>
	<path style="fill:#3A3A3A;" d="M248.1,164.3c-0.8,0-1.5-0.7-1.5-1.5v-28.5c0-0.8,0.7-1.5,1.5-1.5c0.8,0,1.5,0.7,1.5,1.5v28.5
		C249.6,163.6,248.9,164.3,248.1,164.3z"/>
	<path style="fill:#3A3A3A;" d="M338.7,177.1c0.8,0,1.5-0.7,1.5-1.5v-28.5c0-0.8-0.7-1.5-1.5-1.5s-1.5,0.7-1.5,1.5v28.5
		C337.2,176.4,337.9,177.1,338.7,177.1z"/>
	<path style="fill:#3A3A3A;" d="M323.2,173.8c0.8,0,1.5-0.7,1.5-1.5v-28.5c0-0.8-0.7-1.5-1.5-1.5s-1.5,0.7-1.5,1.5v28.5
		C321.7,173.1,322.4,173.8,323.2,173.8z"/>
	<path style="fill:#3A3A3A;" d="M304.1,169.8c0.8,0,1.5-0.7,1.5-1.5v-28.5c0-0.8-0.7-1.5-1.5-1.5s-1.5,0.7-1.5,1.5v28.5
		C302.6,169.1,303.3,169.8,304.1,169.8z"/>
	<path style="fill:#3A3A3A;" d="M285.1,166.4c0.8,0,1.5-0.7,1.5-1.5v-28.5c0-0.8-0.7-1.5-1.5-1.5s-1.5,0.7-1.5,1.5v28.5
		C283.6,165.8,284.2,166.4,285.1,166.4z"/>
	<path style="fill:#3A3A3A;" d="M266,164.4c0.8,0,1.5-0.7,1.5-1.5v-28.5c0-0.8-0.7-1.5-1.5-1.5s-1.5,0.7-1.5,1.5v28.5
		C264.5,163.8,265.2,164.4,266,164.4z"/>
</g>
<path style="fill:#CC785E;" d="M274.8,263.8c0,0-14.2,9.6-26.7,9.6s-26.7-9.6-26.7-9.6c0-1.4,11.3-5.3,16.1-6
	c3-0.5,10.6,2.5,10.6,2.5s7.5-2.9,10.4-2.5C263.4,258.5,274.8,263.8,274.8,263.8z"/>
<path style="fill:#C16952;" d="M274.8,263.8c0,0-14.2,13.5-26.7,13.5s-26.7-13.5-26.7-13.5s6.5,1.5,19.6,0.7c2.2-0.1,5.1,1.6,7,1.6
	c1.7,0,4.2-1.8,6.1-1.7C267.9,265.2,274.8,263.8,274.8,263.8z"/>
<g>
</g>
<g>
</g>
<g>
</g>
<g>
</g>
<g>
</g>
<g>
</g>
<g>
</g>
<g>
</g>
<g>
</g>
<g>
</g>
<g>
</g>
<g>
</g>
<g>
</g>
<g>
</g>
<g>
</g>
</svg>
