<?xml version="1.0" encoding="iso-8859-1"?>
<!-- Generator: Adobe Illustrator 19.0.0, SVG Export Plug-In . SVG Version: 6.00 Build 0)  -->
<svg version="1.1" id="Layer_1" xmlns="http://www.w3.org/2000/svg" xmlns:xlink="http://www.w3.org/1999/xlink" x="0px" y="0px"
	 viewBox="0 0 496.3 496.3" style="enable-background:new 0 0 496.3 496.3;" xml:space="preserve">
<path style="fill:#48A1AF;" d="M496.25,248.1c0-137-111.1-248.1-248.1-248.1S0.05,111.1,0.05,248.1s111.1,248.1,248.1,248.1
	S496.25,385.1,496.25,248.1z"/>
<path style="fill:#956C1C;" d="M246.95,333.4c-77.2,0-139.1,22.1-146.4,49.3c-3.3,12.2-7,35.2-10.1,57.5
	c42.7,34.9,97.4,55.9,156.9,55.9s114.1-21,156.9-55.9c-3.2-22.3-6.9-45.4-10.1-57.5C386.75,355.5,324.15,333.4,246.95,333.4z"/>
<g>
	<path style="fill:#755317;" d="M138.75,351.2c12.2,11.6,47,50.5,80.1,142.7c0.1,0.2,0.3,0.5,0.5,0.7c9.2,1,18.5,1.6,27.9,1.6
		l-0.3-162.8C203.85,333.4,165.45,340.3,138.75,351.2z"/>
	<path style="fill:#755317;" d="M275.75,493.9c33.1-92,67.8-131,80.1-142.7c-26.8-10.8-65.2-17.7-108.2-17.8l-0.3,162.8
		c9.5,0,18.8-0.5,28-1.6C275.45,494.4,275.65,494.1,275.75,493.9z"/>
</g>
<path style="fill:#E4E9ED;" d="M247.25,496.2c0,0,89.2-193.8-0.4-193.8S247.25,496.2,247.25,496.2z"/>
<path style="fill:#1E2021;" d="M266.25,416c-1.4-15.1-7.7-27.2-11.8-33.5l8.6-14l-15.7-7.9l-15.7,7.9l8.6,14.1
	c-4.1,6.4-10.4,18.5-11.8,33.5c-0.6,7-1.4,16.5-2.1,27.1c10.3,30.1,21,53.1,21,53.1s10.7-23.3,21-53.7
	C267.55,432.1,266.85,422.8,266.25,416z"/>
<rect x="164.15" y="178.1" style="fill:#1E130F;" width="168" height="132"/>
<g>
	<path style="fill:#755317;" d="M247.25,347.2h-113.1c0,0-11.9-9.6-25.6-19.1l47.2-12.7c-9.1-10.4-43.7-13.7-43.7-13.7
		s39.3-48,135.3-48v93.5H247.25z"/>
	<path style="fill:#755317;" d="M247.25,347.2l113.1-0.1c0,0,11.9-9.6,25.6-19.1l-47.2-12.7c9.1-10.4,43.7-13.7,43.7-13.7
		s-39.3-48-135.3-48v93.6H247.25z"/>
</g>
<path style="fill:#E2A379;" d="M287.05,282.1h-77.8c12.1,36.6,1,53.3,1,53.3s16.8,28.1,37.6,28.1s38.2-28.1,38.2-28.1
	S274.95,318.7,287.05,282.1z"/>
<path style="fill:#BF8A3D;" d="M248.15,123.1c-92.6,0-157.2,10.2-157.1,10.6c3.8,9.8,38.6,40.4,157.1,40.4s152.4-30.5,157-40.1
	C405.35,133.5,340.75,123.1,248.15,123.1z"/>
<g>
	<path style="fill:#F4B382;" d="M327.95,175.2c0-92.4-35.7-113.6-79.8-113.6c-44,0-79.8,21.2-79.8,113.6c0,31.3,5.6,55.8,14,74.7
		c18.4,41.6,50.3,56.1,65.8,56.1s47.3-14.5,65.8-56.1C322.35,231,327.95,206.5,327.95,175.2z"/>
	<path style="fill:#F4B382;" d="M160.75,207.7c4.3,25.2,9.6,26.3,17.3,25l-8.1-54.8C162.25,179.3,156.45,182.6,160.75,207.7z"/>
	<path style="fill:#F4B382;" d="M326.55,178l-8.1,54.8c7.6,1.3,13,0.1,17.3-25C339.95,182.6,334.15,179.3,326.55,178z"/>
</g>
<path style="fill:#1E130F;" d="M330.85,179.1c0,0,3.8-4.7,3.8-20c-0.4-6-5.7-18.6-6.4-23.9c-7.7-56.8-33.2-73.6-80.1-73.6
	c-47,0-72.5,16.8-80.2,73.8c-0.7,5.2-5.9,17.8-6.4,23.7c0,16,3.8,20,3.8,20l9.5-7.9c45.8,0,84.9-26.9,113.2-52.3L330.85,179.1z"/>
<path style="fill:#D19743;" d="M209.65,43.4c-17.9,0-39.5,67.4-39.5,67.4h156c0,0-27-67.6-41.5-67.6c-7.6,0-29.9-7.9-37.3-7.9
	C240.75,35.3,218.05,43.4,209.65,43.4z"/>
<path style="fill:#B78139;" d="M326.15,110.8c0,0-3.4-8.4-8.4-19.4c-19-2.3-44.6-4.6-69.6-4.6c-25.9,0-52.1,2.5-71.1,4.9
	c-4.2,10.8-6.9,19.1-6.9,19.1H326.15z"/>
<path style="fill:#E2A84B;" d="M248.15,102.1c-92.6,0-157.1,32.1-157.1,31.6c0-1.1,83.6,8.4,157.1,8.4s157-8.1,157-8.1
	C405.35,133.5,340.75,102.1,248.15,102.1z"/>
<path style="fill:#CC785E;" d="M274.85,263.8c0,0-14.2,9.6-26.7,9.6c-12.5,0-26.7-9.6-26.7-9.6c0-1.4,11.3-5.3,16.1-6
	c3-0.5,10.6,2.5,10.6,2.5s7.5-2.9,10.4-2.5C263.45,258.5,274.85,263.8,274.85,263.8z"/>
<path style="fill:#BA6B56;" d="M274.85,263.8c0,0-14.2,13.5-26.7,13.5c-12.5,0-26.7-13.5-26.7-13.5s6.5,1.5,19.6,0.7
	c2.2-0.1,5.1,1.6,7,1.6c1.7,0,4.2-1.8,6.1-1.7C267.95,265.2,274.85,263.8,274.85,263.8z"/>
<g>
	<path style="fill:#1E130F;" d="M174.85,183.1c-0.4-2.7-0.5-5.2-0.4-7.1c0.1-2.9,0.5-4.7,0.5-4.7l-9.4,3.5c0,1.4,0,2.9,0,4.3
		c0,0,1-0.3,2.8-0.9c-0.1,0-0.2,0.1-0.3,0.1c1.3,2.2,2.9,5.6,4.5,10.5C172.45,188.8,176.15,191.5,174.85,183.1z"/>
	<path style="fill:#1E130F;" d="M321.95,176c0.1,2,0,4.4-0.4,7.1c-1.3,8.4,2.3,5.7,2.3,5.7c1.5-5,3.2-8.3,4.4-10.5
		c1.6,0.6,2.5,0.8,2.5,0.8c0-1.5,0-2.9,0-4.3l-9.3-19C321.45,155.8,321.85,173.1,321.95,176"/>
</g>
<path style="fill:#D4D6D8;" d="M213.45,322.3l-1,0.4c-6.8,14.9-6.4,36.5-2.5,59.4l37.3-19C218.95,363.1,213.45,322.3,213.45,322.3z"
	/>
<g>
	<path style="fill:#563B11;" d="M219.05,422.2c-4-7.7-6.9-15.7-9.4-23.9c-1.2-4.1-2.3-8.2-3.2-12.4c-0.9-4.2-1.7-8.4-2.3-12.7
		c-1.2-8.5-1.7-17.2-1-26c0.4-4.4,0.9-8.8,2.1-13.1c0.6-2.2,1.2-4.3,2-6.4c0.9-2.1,1.8-4.1,3-6.1v2.3c-0.3-0.7-0.7-1.5-1.1-2.2
		c-0.4-0.8-0.8-1.5-1.3-2.3c-0.9-1.5-2-3-3.1-4.4c-2.2-2.8-4.7-5.5-7.6-7.8l0.3-0.4c3.2,1.9,6.1,4.3,8.7,7c1.3,1.3,2.5,2.7,3.7,4.2
		c1.1,1.5,2.2,3,3.1,4.7l0.1,0.2l-0.1,0.2c-1.8,3.8-3,7.8-3.7,12c-0.8,4.1-1.2,8.3-1.3,12.5c-0.3,8.4,0.3,16.8,1.3,25.2
		c1,8.4,2.5,16.7,4.2,24.9c1.8,8.2,3.8,16.5,6.2,24.5L219.05,422.2z"/>
	<path style="fill:#563B11;" d="M275.55,422.2c4-7.7,6.9-15.7,9.4-23.9c1.2-4.1,2.3-8.2,3.2-12.4c0.9-4.2,1.7-8.4,2.3-12.7
		c1.2-8.5,1.7-17.2,1-26c-0.4-4.4-0.9-8.8-2.1-13.1c-0.6-2.2-1.2-4.3-2-6.4c-0.9-2.1-1.8-4.1-3-6.1v2.3c0.3-0.7,0.7-1.5,1.1-2.2
		c0.4-0.8,0.8-1.5,1.3-2.3c0.9-1.5,2-3,3.1-4.4c2.2-2.8,4.7-5.5,7.6-7.8l-0.3-0.4c-3.2,1.9-6.1,4.3-8.7,7c-1.3,1.3-2.5,2.7-3.7,4.2
		c-1.1,1.5-2.2,3-3.1,4.7l-0.1,0.2l0.1,0.2c1.8,3.8,3,7.8,3.7,12c0.8,4.1,1.2,8.3,1.3,12.5c0.3,8.4-0.3,16.8-1.3,25.2
		c-1,8.4-2.5,16.7-4.2,24.9c-1.8,8.2-3.8,16.5-6.2,24.5L275.55,422.2z"/>
</g>
<path style="fill:#D4D6D8;" d="M281.25,322.3l-0.1-0.1c0,0-5.4,40.8-33.8,40.8l36.9,18.8C287.95,358.8,288.25,337.2,281.25,322.3z"
	/>
<g>
	<path style="fill:#2A3F49;" d="M197.75,335.8L197.75,335.8L197.75,335.8z"/>
	<path style="fill:#2A3F49;" d="M298.55,335.9L298.55,335.9L298.55,335.9z"/>
</g>
<g>
</g>
<g>
</g>
<g>
</g>
<g>
</g>
<g>
</g>
<g>
</g>
<g>
</g>
<g>
</g>
<g>
</g>
<g>
</g>
<g>
</g>
<g>
</g>
<g>
</g>
<g>
</g>
<g>
</g>
</svg>
