<?xml version="1.0" encoding="iso-8859-1"?>
<!-- Generator: Adobe Illustrator 19.0.0, SVG Export Plug-In . SVG Version: 6.00 Build 0)  -->
<svg version="1.1" id="Layer_1" xmlns="http://www.w3.org/2000/svg" xmlns:xlink="http://www.w3.org/1999/xlink" x="0px" y="0px"
	 viewBox="0 0 496.2 496.2" style="enable-background:new 0 0 496.2 496.2;" xml:space="preserve">
<path style="fill:#EA4949;" d="M496.2,248.1C496.2,111.1,385.1,0,248.1,0S0,111.1,0,248.1s111.1,248.1,248.1,248.1
	S496.2,385.1,496.2,248.1z"/>
<polygon style="fill:#C7C8C9;" points="210.2,335.4 247.8,363.5 286,335.4 287.9,322.3 247.9,317 208.3,322.3 "/>
<path style="fill:#153D32;" d="M248.1,496.2c70.2,0,133.6-29.2,178.7-76c-2.8-15.1-5.6-28.9-8.3-37.4
	c-8.5-27.3-81.2-49.3-170.8-49.3s-161.5,22-170,49.3c-2.6,8.5-5.5,22.2-8.3,37.4C114.5,467,177.9,496.2,248.1,496.2z"/>
<g>
	<path style="fill:#172023;" d="M174.5,338.7c-2.2,0.3-4.4,0.7-6.5,1.1c-2.6,0.4-5.2,0.9-7.8,1.4c-1.7,0.3-3.4,0.7-5,1
		c-2.6,0.5-5.2,1.1-7.7,1.7c-1.7,0.4-3.3,0.8-4.9,1.2c-2.6,0.7-5.2,1.3-7.6,2c-1.6,0.5-3.2,0.9-4.8,1.4c-2.6,0.8-5.1,1.6-7.6,2.5
		c-2.2,0.8-4.3,1.5-6.3,2.3l2.5,12.2l58.8-12L174.5,338.7z"/>
	<path style="fill:#172023;" d="M372.4,350.7c-2.4-0.8-5-1.6-7.6-2.4c-1.6-0.5-3.2-0.9-4.8-1.4c-2.5-0.7-5-1.4-7.6-2
		c-1.6-0.4-3.3-0.8-4.9-1.2c-2.5-0.6-5.1-1.1-7.7-1.7c-1.7-0.3-3.3-0.7-5-1c-2.5-0.5-5.1-0.9-7.8-1.4c-2.2-0.4-4.3-0.7-6.6-1
		l-3,14.8l58.8,12l2.6-12.6C376.7,352.1,374.6,351.4,372.4,350.7z"/>
</g>
<g>
	<polygon style="fill:#AF9604;" points="368.1,350.9 370.3,354.4 374.4,354.6 371.8,357.7 372.9,361.7 369,360.2 365.6,362.5 
		365.9,358.4 362.6,355.8 366.6,354.8 	"/>
	<polygon style="fill:#AF9604;" points="347.8,345.5 350,349 354.2,349.2 351.5,352.4 352.6,356.4 348.8,354.8 345.3,357.1 
		345.6,353 342.4,350.4 346.4,349.4 	"/>
	<polygon style="fill:#AF9604;" points="326.6,341.1 328.8,344.6 332.9,344.7 330.3,347.9 331.4,351.9 327.5,350.4 324.1,352.7 
		324.4,348.5 321.1,346 325.1,344.9 	"/>
	<polygon style="fill:#AF9604;" points="126.8,350.9 124.6,354.4 120.5,354.6 123.1,357.7 122,361.7 125.8,360.2 129.3,362.5 
		129,358.4 132.3,355.8 128.2,354.8 	"/>
	<polygon style="fill:#AF9604;" points="147,345.5 144.8,349 140.7,349.2 143.4,352.4 142.2,356.4 146.1,354.8 149.5,357.1 
		149.3,353 152.5,350.4 148.5,349.4 	"/>
	<polygon style="fill:#AF9604;" points="168.3,341.1 166.1,344.6 161.9,344.7 164.6,347.9 163.5,351.9 167.3,350.4 170.8,352.7 
		170.5,348.5 173.7,346 169.7,344.9 	"/>
</g>
<path style="fill:#E4E9ED;" d="M248.1,496.2c0,0,89.2-162.8-0.4-162.8S248.1,496.2,248.1,496.2z"/>
<polygon style="fill:#1E2021;" points="248.1,360.5 232.3,368.4 248.1,394 263.8,368.4 "/>
<g>
	<path style="fill:#E2A379;" d="M287,282.1h-77.8c12.1,36.6,1,53.3,1,53.3l26.9,6.1h22l26.9-6.1C286,335.4,274.9,318.7,287,282.1z"
		/>
	<path style="fill:#E2A379;" d="M210.2,335.4c0,0,16.8,28.1,37.6,28.1s38.2-28.1,38.2-28.1L247.8,317L210.2,335.4z"/>
</g>
<path style="fill:#F4B382;" d="M336.4,175.2c0-92.4-39.5-113.6-88.3-113.6c-48.7,0-88.3,21.2-88.3,113.6c0,31.3,6.2,55.8,15.5,74.7
	c20.4,41.6,55.7,56.1,72.8,56.1s52.4-14.5,72.8-56.1C330.2,231,336.4,206.5,336.4,175.2z"/>
<path style="fill:#111111;" d="M248.1,243.9c-0.2,0-2-2-2.8-1.9c-17.4,0.8-33.2,3.6-33.2,8.9c0,1.7-1.3,13.7,4.8,10.2
	c5-6.5,16.2-11.4,28.2-11.9c1,0,2,0.8,3,0.8c1.1,0,2.1-0.8,3.1-0.8c12,0.5,22.6,4.6,28.1,11.9c6.1,3.5,4.8-8.6,4.8-10.2
	c0-5.3-15.7-8.1-33.1-8.9C250.2,242,248.3,243.9,248.1,243.9z"/>
<g>
	<path style="fill:#F4B382;" d="M170.4,238.7c-8.4,1.4-14.4,0.1-19.1-27.7s1.7-31.5,10.1-32.9L170.4,238.7z"/>
	<path style="fill:#F4B382;" d="M325.9,238.7c8.4,1.4,14.3,0.1,19.1-27.7c4.8-27.8-1.7-31.5-10.1-32.9L325.9,238.7z"/>
</g>
<path style="fill:#E5A173;" d="M274.8,257c0,2.6-11.9,9.5-26.7,9.5s-26.7-7-26.7-9.5c0-1.6,8.5-6.1,14.1-6.9
	c3.6-0.5,12.5,2.9,12.5,2.9s8.8-3.4,12.4-2.9C266.2,250.9,274.8,257,274.8,257z"/>
<path style="fill:#D89364;" d="M274.8,257c0,2.6-11.9,12.4-26.7,12.4s-26.7-9.9-26.7-12.4c0,0,10.9,1.3,26.7,1.3
	S274.8,257,274.8,257z"/>
<g>
	<path style="fill:#111111;" d="M336.4,175.2c0-92.4-30.3-116.1-88.3-116.1s-88.3,23.7-88.3,116.1l38.8-68.4c0,0,27.5,4.3,49.5,4.3
		s46.2-4.3,46.2-4.3L336.4,175.2z"/>
	<path style="fill:#111111;" d="M165.5,140.8c-4.2,10.9-5.6,24.4-5.6,37.5c0,0,8.8-1.9,8.8,2.6l2.8,27.6l3.9-1.9
		c-0.2-23,4.9-68,4.9-68L165.5,140.8z"/>
	<path style="fill:#111111;" d="M330.8,140.8c4.2,10.9,5.6,24.4,5.6,37.5c0,0-8.8-1.9-8.8,2.6l-2.8,27.6l-3.9-1.9
		c0.2-23-4.9-66.2-4.9-66.2L330.8,140.8z"/>
</g>
<g>
	<polygon style="fill:#9AE2CA;" points="305.8,337.8 287.9,322.3 248.1,363.9 284.7,374.1 	"/>
	<polygon style="fill:#9AE2CA;" points="190.4,337.8 208.3,322.3 248.1,363.9 211.5,374.1 	"/>
</g>
<path style="fill:#2A3F49;" d="M197.7,335.8L197.7,335.8L197.7,335.8z"/>
<path style="fill:#112D24;" d="M196.6,332.4l1.1,3.4l50.4,154.1v6.2c-6.7,0-13.3-0.3-19.8-0.8l-63.7-109.2l19.5-48.5L196.6,332.4z"
	/>
<g>
	<path style="fill:#2A3F49;" d="M311.5,337.4L311.5,337.4L311.5,337.4L311.5,337.4z"/>
	<path style="fill:#2A3F49;" d="M304.9,336.6c0.1,0,0.2,0,0.3,0C305.1,336.6,305,336.6,304.9,336.6z"/>
	<path style="fill:#2A3F49;" d="M298.5,335.9L298.5,335.9L298.5,335.9z"/>
</g>
<path style="fill:#112D24;" d="M312.1,337.6l-0.6-0.2l0,0l0,0l-11.9-5l-1.1,3.5l-50.4,154v6.2c6.7,0,13.3-0.3,19.8-0.8l63.7-109.2
	L312.1,337.6z"/>
<polygon style="fill:#AF9604;" points="304.6,378.9 308,385.7 315.6,386.8 310.1,392.1 311.4,399.6 304.6,396.1 297.9,399.6 
	299.2,392.1 293.7,386.8 301.3,385.7 "/>
<path style="fill:#1E2021;" d="M248.1,489.9l19.8-60.5c-0.3-3.7-0.6-7.1-0.8-10c-2-22.6-15.4-38.5-15.4-38.5h-3.6v0.7v-0.7h-3.5
	c0,0-13.4,15.9-15.4,38.5c-0.3,2.9-0.5,6.3-0.8,10.1L248.1,489.9L248.1,489.9z"/>
<path style="fill:#153D32;" d="M247.9,40.4c-60.8,0-113.4,37.5-113,38c3.4,4.4,27.4,30.7,27.4,30.7l1.2,15.6c0,0-0.2,14.5,13.9,14.5
	s31.6,4,70.6,4s56.3-4,70.6-4c14.4,0,14.2-14.9,14.2-14.9l0.9-15.2c6.9-6.8,23.6-25.8,27.2-30.4C361.5,78.1,308.8,40.4,247.9,40.4z"
	/>
<g>
	<polygon style="fill:#AF9604;" points="248.1,114.3 251.5,121.1 259,122.2 253.6,127.5 254.9,135 248.1,131.5 241.3,135 
		242.6,127.5 237.2,122.2 244.7,121.1 	"/>
	<polygon style="fill:#AF9604;" points="279.1,114.3 282.5,121.1 290,122.2 284.6,127.5 285.9,135 279.1,131.5 272.3,135 
		273.6,127.5 268.2,122.2 275.7,121.1 	"/>
	<polygon style="fill:#AF9604;" points="217.1,114.3 220.5,121.1 228,122.2 222.6,127.5 223.9,135 217.1,131.5 210.3,135 
		211.6,127.5 206.2,122.2 213.7,121.1 	"/>
</g>
<path style="fill:#1E2021;" d="M333.9,109.1l0.1-0.1c-14.5-6.1-46.2-17-85.9-17c-39.8,0-71.4,11-86,17.1c0.1,0.1,0.2,0.1,0.2,0.1
	l1.1,15.6c15.1-8.3,46-16.7,84.7-16.7s69.6,8.3,84.7,16.7L333.9,109.1z"/>
<g>
</g>
<g>
</g>
<g>
</g>
<g>
</g>
<g>
</g>
<g>
</g>
<g>
</g>
<g>
</g>
<g>
</g>
<g>
</g>
<g>
</g>
<g>
</g>
<g>
</g>
<g>
</g>
<g>
</g>
</svg>
