<?xml version="1.0" encoding="iso-8859-1"?>
<!-- Generator: Adobe Illustrator 19.0.0, SVG Export Plug-In . SVG Version: 6.00 Build 0)  -->
<svg version="1.1" id="Layer_1" xmlns="http://www.w3.org/2000/svg" xmlns:xlink="http://www.w3.org/1999/xlink" x="0px" y="0px"
	 viewBox="0 0 496.2 496.2" style="enable-background:new 0 0 496.2 496.2;" xml:space="preserve">
<path style="fill:#48A1AF;" d="M496.2,248.1C496.2,111.1,385.1,0,248.1,0S0,111.1,0,248.1s111.1,248.1,248.1,248.1
	S496.2,385.1,496.2,248.1z"/>
<path style="fill:#E2A379;" d="M247.8,333.4c-77.2,0-139.1,22.1-146.4,49.3c-3.3,12.2-7,35.2-10.1,57.5
	c42.7,34.9,97.4,55.9,156.9,55.9s114.1-21,156.9-55.9c-3.2-22.3-6.9-45.4-10.1-57.5C387.5,355.5,324.9,333.4,247.8,333.4z"/>
<polygon style="fill:#CC936D;" points="242.6,448.6 248.1,418.9 253.6,448.6 "/>
<path style="fill:#2A3335;" d="M247.8,443.1c-22.7,0-51.4-106.2-51.4-106.2c-51.9,7.2-89.4,25-95,45.9c-3.3,12.2-7,35.2-10.1,57.5
	c42.7,34.9,97.4,55.9,156.9,55.9s114.1-21,156.9-55.9c-3.2-22.3-6.9-45.4-10.1-57.5c-5.6-21-44.1-38.9-96.8-46.1
	C298,336.7,270.4,443.1,247.8,443.1z"/>
<g>
	<path style="fill:#E2A379;" d="M394.8,382.8c-4.2-15.6-26.4-29.5-59.1-38.5L355,472.1c18-8.6,34.7-19.3,50-31.7
		C401.8,417.9,398.1,394.9,394.8,382.8z"/>
	<path style="fill:#E2A379;" d="M101.4,382.8c-3.3,12.2-7,35.2-10.1,57.5c15,12.3,31.5,22.8,49.1,31.3l19.2-127.2
		C127.3,353.4,105.5,367.2,101.4,382.8z"/>
	<path style="fill:#E2A379;" d="M293,282.1h-89.8c14,36.6,1.1,53.3,1.1,53.3h87.5C291.9,335.4,279,318.7,293,282.1z"/>
</g>
<rect x="160.8" y="445.1" style="fill:#172023;" width="67.4" height="33.5"/>
<g>
	<path style="fill:#E4EBED;" d="M166.7,466.6c0.9,0.5,2.5,1,4,1c1.7,0,2.5-0.7,2.5-1.7s-0.8-1.6-2.7-2.2c-2.7-0.9-4.4-2.4-4.4-4.7
		c0-2.7,2.3-4.8,6-4.8c1.8,0,3.1,0.4,4.1,0.8l-0.8,2.9c-0.6-0.3-1.8-0.8-3.3-0.8c-1.6,0-2.3,0.7-2.3,1.5c0,1,0.9,1.5,3,2.3
		c2.8,1,4.1,2.5,4.1,4.8c0,2.7-2,5-6.4,5c-1.8,0-3.6-0.5-4.5-1L166.7,466.6z"/>
	<path style="fill:#E4EBED;" d="M181.9,470.4l-3.8-16h3.9l1.2,6.6c0.4,1.9,0.7,4,0.9,5.6l0,0c0.3-1.7,0.6-3.7,1-5.6l1.4-6.5h3.8
		l1.3,6.7c0.4,1.9,0.6,3.6,0.9,5.4l0,0c0.2-1.8,0.6-3.7,0.9-5.6l1.3-6.5h3.7l-4.1,16h-3.9l-1.4-6.9c-0.3-1.6-0.6-3.1-0.8-4.9l0,0
		c-0.3,1.8-0.5,3.3-0.9,4.9l-1.5,6.9h-3.9V470.4z"/>
	<path style="fill:#E4EBED;" d="M202.8,466.3l-1.1,4.1H198l4.9-16h4.7l5,16h-3.9l-1.2-4.1H202.8z M206.9,463.5l-1-3.4
		c-0.3-0.9-0.6-2.1-0.8-3.1l0,0c-0.2,0.9-0.5,2.2-0.7,3.1l-0.9,3.4H206.9z"/>
	<path style="fill:#E4EBED;" d="M215.8,457.4h-4.3v-3h12.3v3h-4.4v12.9h-3.6V457.4z"/>
</g>
<g>
	<path style="fill:#F2DE7C;" d="M216.3,151.6c39.5,36.7,59.3,88.7,69,136.7c1,4.9-1.6,10.6-0.8,15.4c0.9,5.1,5,9.3,5.6,14.2
		c0.6,5-2.1,10.8-1.7,15.6c0.6,6.3,4.4,11.5,4.7,17.3c0.3,4.8-2.8,10.2-2.7,14.6c0.2,5.6,3.5,10,3.5,14.8c0,5.6-3.4,11.5-3.6,15.8
		c-0.4,11.4,2.3,17.3,2.3,17.3l20.9,2.7c0,0,3.8-6.5,7-17.7c1.3-4.5,0.7-9.7,2.1-15.6c1.1-4.5,4.5-9.6,5.7-14.8
		c1-4.2-0.5-8.6,0.4-13.2c1.3-6.4,5.1-13.3,6.3-20.3c0.7-4.3-1.3-8.7-0.7-13.2c0.8-5.5,4.4-11.2,5.1-17c0.5-4.3-2.1-8.5-1.8-12.8
		c3.6-43.7,1.8-91.9-13.9-132.4L216.3,151.6z"/>
	<polygon style="fill:#F2DE7C;" points="282.9,459 311.9,462.6 312.4,424.9 291.5,422.4 	"/>
</g>
<rect x="291.943" y="414.606" transform="matrix(0.9926 0.1215 -0.1215 0.9926 53.1677 -33.6413)" style="fill:#1F2323;" width="21" height="9.1"/>
<path style="fill:#F2DE7C;" d="M286.6,309.3l49.4,6c-0.7,2-1.3,3.9-1.6,5.8c-0.6,4.5,1.5,8.9,0.7,13.2c-1.2,7.1-5.1,13.9-6.3,20.3
	c-0.9,4.6,0.5,8.9-0.4,13.2c-1.2,5.3-4.6,10.3-5.7,14.8c-1.4,5.9-0.8,11.1-2.1,15.6c-3.2,11.1-7,17.7-7,17.7l-20.9-2.7
	c0,0-2.7-5.9-2.3-17.3c0.2-4.4,3.6-10.2,3.6-15.8c0-4.8-3.3-9.2-3.5-14.8c-0.1-4.4,2.9-9.8,2.7-14.6c-0.3-5.8-4.1-11-4.7-17.3
	c-0.5-4.8,2.3-10.6,1.7-15.6C289.7,314.9,288,312.2,286.6,309.3z"/>
<g>
	<path style="fill:#DDC76B;" d="M287.9,277.3c5.3,0.8,10.7,0.7,16.1,0s10.6-2.1,15.7-4.2c2.5-1.1,4.9-2.3,7.2-3.8
		c2.3-1.5,4.5-3.1,6.5-4.9c4-3.7,7.3-8.1,9.5-13c-3.2,4.3-6.9,8-11,11.2c-2.1,1.6-4.2,3-6.5,4.3c-2.2,1.3-4.6,2.5-7,3.4
		c-2.4,1-4.8,1.9-7.3,2.7c-2.5,0.8-5,1.4-7.6,2C298.4,276,293.2,276.8,287.9,277.3z"/>
	<path style="fill:#DDC76B;" d="M290.3,265.5c0.6,2.6,1.7,5.1,3.1,7.5c0.7,1.2,1.5,2.3,2.3,3.4s1.7,2.1,2.6,3.1
		c3.7,4,8.3,7.2,13.2,9.6c2.5,1.2,5,2.2,7.6,2.9c2.6,0.8,5.2,1.4,7.7,2.1s4.9,1.5,7,3c2.1,1.4,3.9,3.4,5.6,5.5
		c-1.1-2.4-2.6-4.7-4.7-6.6c-2.1-1.8-4.6-3.1-7.2-4c-2.5-0.9-5.1-1.7-7.5-2.5c-2.5-0.9-4.9-1.8-7.2-3c-4.6-2.3-9-5.1-12.8-8.6
		C296.2,274.2,292.8,270.2,290.3,265.5z"/>
	<path style="fill:#DDC76B;" d="M291.2,342c3,2.9,6.6,5.1,10.5,6.7c2,0.8,4,1.4,6.1,1.8s4.3,0.5,6.4,0.4c4.3-0.2,8.6-1.7,12.1-4.1
		s6.3-5.7,8.2-9.4c-2.9,2.9-6,5.5-9.5,7.4c-3.4,1.9-7.2,2.9-11.1,3.1c-1.9,0.1-3.9,0-5.8-0.2s-3.9-0.7-5.8-1.2
		C298.6,345.3,294.9,343.8,291.2,342z"/>
	<path style="fill:#DDC76B;" d="M291.8,318.4c3,2.9,6.6,5.1,10.5,6.7c2,0.8,4,1.4,6.1,1.8s4.3,0.5,6.4,0.4c4.3-0.2,8.6-1.7,12.1-4.1
		s6.3-5.7,8.2-9.4c-2.9,2.9-6,5.5-9.5,7.4c-3.4,1.9-7.2,2.9-11.1,3.1c-1.9,0.1-3.9,0-5.8-0.2s-3.9-0.7-5.8-1.2
		C299.3,321.7,295.5,320.2,291.8,318.4z"/>
	<path style="fill:#DDC76B;" d="M286,292.1c3.7,3.2,7.8,5.7,12.3,7.8c4.4,2,9.2,3.5,14.2,4c2.5,0.2,5,0.2,7.5-0.1
		c2.5-0.4,5-1,7.2-2.1c4.6-2.1,8.3-5.7,10.7-9.9c-3.3,3.5-7.2,6.3-11.6,7.8c-2.2,0.7-4.4,1.2-6.7,1.4c-2.3,0.2-4.6,0.2-6.9-0.1
		c-2.3-0.2-4.6-0.6-6.8-1.2c-2.3-0.5-4.5-1.3-6.7-2C294.7,296.2,290.4,294.3,286,292.1z"/>
	<path style="fill:#DDC76B;" d="M290.9,369c2.4,2.8,5.5,5,9,6.4s7.5,1.9,11.4,1.3c3.8-0.7,7.4-2.5,10.3-5c2.9-2.4,5.2-5.4,6.8-8.7
		c-2.7,2.5-5.3,4.9-8.2,6.9c-2.9,1.9-6.1,3.3-9.4,3.9s-6.7,0.3-10.1-0.5C297.3,372.3,294.1,370.9,290.9,369z"/>
	<path style="fill:#DDC76B;" d="M290.4,403.5c1.4,0.9,3,1.3,4.7,1.6c1.7,0.2,3.4,0.1,5-0.3c3.3-0.6,6.4-2.2,9.1-4
		c2.7-1.9,5.1-4.2,7.2-6.7s3.9-5.2,5.3-8.1l-7,6.5c-2.3,2.1-4.7,4.1-7.2,5.8c-2.5,1.7-5.1,3.2-8,4.2c-1.4,0.5-2.9,0.9-4.4,1.1
		C293.5,403.8,292,403.8,290.4,403.5z"/>
	<path style="fill:#DDC76B;" d="M285.5,290.1c0.6,2.6,1.7,5.1,3.1,7.5c0.7,1.2,1.5,2.3,2.3,3.4s1.7,2.1,2.6,3.1
		c3.7,4,8.3,7.2,13.2,9.6c2.5,1.2,5,2.2,7.6,2.9c2.6,0.8,5.2,1.4,7.7,2.1s4.9,1.5,7,3c2.1,1.4,3.9,3.4,5.6,5.5
		c-1.1-2.4-2.6-4.7-4.7-6.6c-2.1-1.8-4.6-3.1-7.2-4c-2.5-0.9-5.1-1.7-7.5-2.5c-2.5-0.9-4.9-1.8-7.2-3c-4.6-2.3-9-5.1-12.8-8.6
		C291.4,298.8,288,294.8,285.5,290.1z"/>
	<path style="fill:#DDC76B;" d="M290.1,317.9c0.2,2.5,1.1,5,2.1,7.3c0.5,1.2,1.1,2.3,1.7,3.4s1.3,2.2,2.1,3.2
		c3,4.2,6.7,7.9,10.8,10.9c1,0.8,2.1,1.5,3.1,2.2s2.2,1.4,3.2,2c1.9,1.3,3.8,2.9,5.5,4.6c3.5,3.5,6.6,7.4,9.8,11.3
		c-2.2-4.5-4.9-8.9-8.1-12.8c-1.7-2-3.4-3.8-5.7-5.4c-2.1-1.4-4.1-2.8-6.1-4.3c-3.9-3-7.5-6.3-10.6-10.1
		C294.8,326.7,292,322.6,290.1,317.9z"/>
	<path style="fill:#DDC76B;" d="M291.2,342c0.3,4.6,1.6,9.1,3.3,13.4c0.8,2.2,1.9,4.2,2.9,6.3c1.1,2,2.3,4,3.6,6
		c2.6,3.8,5.7,7.4,9.1,10.5s7.2,5.8,11.4,7.9c-3.4-3.1-6.7-6.2-9.7-9.5s-5.8-6.8-8.3-10.5c-2.6-3.7-4.8-7.5-6.9-11.5
		C294.6,350.4,292.7,346.3,291.2,342z"/>
	<path style="fill:#DDC76B;" d="M291,368c-0.1,4,0.9,8,2.4,11.8c0.7,1.9,1.7,3.7,2.7,5.5c1,1.7,2.2,3.4,3.4,5
		c2.5,3.2,5.3,6.1,8.4,8.7c3.1,2.5,6.5,4.8,10.1,6.5c-2.9-2.7-5.8-5.4-8.5-8.2c-2.7-2.8-5.3-5.7-7.6-8.8c-2.4-3-4.5-6.3-6.3-9.7
		C293.7,375.4,292.1,371.8,291,368z"/>
</g>
<path style="fill:#F2DE7C;" d="M168.8,229.1c0,0,13,54.3,59,60.3s-20.7-67.7-20.7-67.7L168.8,229.1z"/>
<path style="fill:#F4B382;" d="M327.9,175.2c0-92.4-35.7-113.6-79.8-113.6c-44,0-79.8,21.2-79.8,113.6c0,31.3,5.6,55.8,14,74.7
	c18.4,41.6,50.3,56.1,65.8,56.1c15.4,0,47.3-14.5,65.8-56.1C322.3,231,327.9,206.5,327.9,175.2z"/>
<g>
	<path style="fill:#F4E192;" d="M165.4,179.1c0-92.4,25.3-117.5,82.7-117.5s82.7,25.1,82.7,117.5l-9.5-7.9
		c-45.8,0-84.9-26.9-113.2-52.3C196.1,152.1,165.4,179.1,165.4,179.1z"/>
	<path style="fill:#F4E192;" d="M174.3,176c0.1-2.9,0.5-7.4,0.5-7.4l-9.3,6.2c0,1.4,0,2.9,0,4.3c0,0,0.9-0.3,2.5-0.8
		c1.3,2.2,2.9,5.6,4.4,10.5c0,0,3.7,2.7,2.3-5.7C174.3,180.4,174.2,178,174.3,176"/>
</g>
<g>
	<path style="fill:#F4B382;" d="M160.7,207.7c4.3,25.2,9.6,26.3,17.3,25l-8.1-54.8C162.2,179.3,156.4,182.6,160.7,207.7z"/>
	<path style="fill:#F4B382;" d="M326.5,178l-8.1,54.8c7.6,1.3,13,0.1,17.3-25C339.9,182.6,334.1,179.3,326.5,178z"/>
</g>
<path style="fill:#CC785E;" d="M274.8,263.8c0,0-14.2,9.6-26.7,9.6s-26.7-9.6-26.7-9.6c0-1.4,11.3-5.3,16.1-6
	c3-0.5,10.6,2.5,10.6,2.5s7.5-2.9,10.4-2.5C263.4,258.5,274.8,263.8,274.8,263.8z"/>
<path style="fill:#C16952;" d="M274.8,263.8c0,0-14.2,13.5-26.7,13.5s-26.7-13.5-26.7-13.5s6.5,1.5,19.6,0.7c2.2-0.1,5.1,1.6,7,1.6
	c1.7,0,4.2-1.8,6.1-1.7C267.9,265.2,274.8,263.8,274.8,263.8z"/>
<g>
	<path style="fill:#1F2323;" d="M260.3,192.1c0,0-6.8-1.7-12.2-1.7s-12.2,1.7-12.2,1.7v-4.7c0,0,5.2-1.7,12.2-1.7s12.2,1.7,12.2,1.7
		V192.1z"/>
	<path style="fill:#1F2323;" d="M182.1,188l-2-4l-16.3-4.9c-0.5-0.2-0.7-6.3,0.2-6.1l25.9,4.8L182.1,188z"/>
	<path style="fill:#1F2323;" d="M313.8,188l2-4l16.9-4.9c0.5-0.2,0.7-6.3-0.2-6.1l-26.5,4.8L313.8,188z"/>
</g>
<path style="fill:#2E3535;" d="M255,193.8c0-14.7,19-18.6,35.5-18.6c16.6,0,24.5,4.8,24.5,21.4s-12.3,25.9-24.1,25.9
	C270.5,222.5,255,204.8,255,193.8z"/>
<g>
	<path id="SVGCleanerId_0" style="fill:#A3A3A3;" d="M206.4,178.3c-14.4,0-21.2,4.2-21.2,18.6C185.2,211.2,220.7,178.3,206.4,178.3z
		"/>
</g>
<g>
	<path id="SVGCleanerId_0_1_" style="fill:#A3A3A3;" d="M206.4,178.3c-14.4,0-21.2,4.2-21.2,18.6
		C185.2,211.2,220.7,178.3,206.4,178.3z"/>
</g>
<path style="fill:#2E3535;" d="M241.2,193.8c0-14.7-19-18.6-35.5-18.6c-16.6,0-24.5,4.8-24.5,21.4s12.3,25.9,24.1,25.9
	C225.7,222.5,241.2,204.8,241.2,193.8z"/>
<g>
	<path id="SVGCleanerId_0_2_" style="fill:#A3A3A3;" d="M206.4,178.3c-14.4,0-21.2,4.2-21.2,18.6
		C185.2,211.2,220.7,178.3,206.4,178.3z"/>
</g>
<path style="fill:#A3A3A3;" d="M283.4,180.1c-14.4,0-22.9,2.4-22.9,16.8C260.4,211.2,297.7,180.1,283.4,180.1z"/>
<path style="fill:#602F0F;" d="M323.8,188.8c1.6-5,3.2-8.3,4.5-10.5c-0.1,0-0.2-0.1-0.3-0.1c1.8,0.6,2.8,0.9,2.8,0.9
	c0-1.5,0-2.9,0-4.3l-9.4-3.5c0,0,0.4,1.8,0.5,4.7c0.1,2,0,4.4-0.4,7.1C320.1,191.5,323.8,188.8,323.8,188.8z"/>
<path style="fill:#F4E192;" d="M302.4,99.1c0,0,74.9,79,33.1,184c0,0-14-38-24-164.3L302.4,99.1z"/>
<ellipse style="fill:#1F2323;" cx="248.1" cy="55.1" rx="10.5" ry="6.5"/>
<path style="fill:#2E3535;" d="M329.4,144.6c3,0,1.4-52.3-10.3-69.7c-12.6-18.6-47.2-19.8-70.8-19.8s-58.4,1.2-71,19.8
	c-11.8,17.3-14.8,69.7-10.5,69.7s55.4-16.3,81.3-16.3C281.4,128.3,326.4,144.6,329.4,144.6z"/>
<path style="fill:#1F2323;" d="M330.2,141.7c0,0-35.4-16-82.2-16s-82.1,16-82.1,16s3.2,21.2,11.9,21.2c20.8,1.4,52.9-9.4,70.1-9.4
	c16.9,0,48.3,10.8,68.8,9.5C326.9,163,330.2,141.7,330.2,141.7z"/>
<g>
	<path style="fill:#E4EBED;" d="M194.5,103.7c1.8,0.9,4.7,1.9,7.6,1.9c3.2,0,4.8-1.3,4.8-3.3c0-1.9-1.4-3-5.1-4.2
		c-5-1.8-8.4-4.6-8.4-9c0-5.2,4.4-9.1,11.5-9.1c3.5,0,6,0.7,7.8,1.5l-1.5,5.5c-1.2-0.6-3.4-1.4-6.3-1.4c-3,0-4.4,1.4-4.4,2.9
		c0,1.9,1.7,2.8,5.6,4.3c5.4,2,7.8,4.8,7.8,9.1c0,5.1-3.9,9.4-12.2,9.4c-3.5,0-6.9-0.9-8.6-1.9L194.5,103.7z"/>
	<path style="fill:#E4EBED;" d="M223.5,110.8l-7.2-30.4h7.3l2.3,12.5c0.7,3.7,1.3,7.6,1.8,10.6h0.1c0.5-3.3,1.2-6.9,2-10.7l2.6-12.4
		h7.3l2.4,12.8c0.7,3.6,1.2,6.8,1.6,10.2h0.1c0.5-3.4,1.1-6.9,1.8-10.6l2.5-12.4h7l-7.8,30.4h-7.4l-2.6-13.1
		c-0.6-3.1-1.1-5.9-1.4-9.4h-0.1c-0.5,3.4-1,6.3-1.8,9.4l-2.9,13.1H223.5z"/>
	<path style="fill:#E4EBED;" d="M263.3,103l-2.2,7.8H254l9.2-30.4h9l9.5,30.4h-7.4L272,103H263.3z M271,97.9l-1.9-6.4
		c-0.5-1.8-1.1-4.1-1.5-5.9h-0.1c-0.5,1.8-0.9,4.1-1.4,5.9l-1.8,6.4H271z"/>
	<path style="fill:#E4EBED;" d="M287.9,86.2h-8.2v-5.8h23.4v5.8h-8.3v24.6h-6.9L287.9,86.2L287.9,86.2z"/>
</g>
<g>
</g>
<g>
</g>
<g>
</g>
<g>
</g>
<g>
</g>
<g>
</g>
<g>
</g>
<g>
</g>
<g>
</g>
<g>
</g>
<g>
</g>
<g>
</g>
<g>
</g>
<g>
</g>
<g>
</g>
</svg>
