<?xml version="1.0" encoding="iso-8859-1"?>
<!-- Generator: Adobe Illustrator 19.0.0, SVG Export Plug-In . SVG Version: 6.00 Build 0)  -->
<svg version="1.1" id="Layer_1" xmlns="http://www.w3.org/2000/svg" xmlns:xlink="http://www.w3.org/1999/xlink" x="0px" y="0px"
	 viewBox="0 0 496.3 496.3" style="enable-background:new 0 0 496.3 496.3;" xml:space="preserve">
<path style="fill:#48A1AF;" d="M496.25,248.1c0-137-111.1-248.1-248.1-248.1S0.05,111.1,0.05,248.1s111.1,248.1,248.1,248.1
	S496.25,385.1,496.25,248.1z"/>
<path style="fill:#2A3335;" d="M248.15,496.2c70.2,0,133.6-29.2,178.7-76c-2.8-15.1-5.6-28.9-8.3-37.4
	c-8.5-27.3-81.2-49.3-170.8-49.3s-161.5,22-170,49.3c-2.6,8.5-5.5,22.2-8.3,37.4C114.55,467,177.95,496.2,248.15,496.2z"/>
<polygon style="fill:#1D2223;" points="318.65,343.3 177.65,343.3 191.15,293.9 305.15,293.9 "/>
<path style="fill:#3A484C;" d="M261.25,495.8v-171c-4.4-0.1-8.9-0.2-13.4-0.2c-4.3,0-8.6,0.1-12.7,0.2v171.1
	c4.3,0.2,8.7,0.4,13.1,0.4C252.55,496.2,256.95,496,261.25,495.8z"/>
<rect x="135.15" y="380.2" style="fill:#172023;" width="87.5" height="43.4"/>
<g>
	<path style="fill:#E4EBED;" d="M142.75,408.1c1.2,0.6,3.2,1.3,5.2,1.3c2.2,0,3.3-0.9,3.3-2.2c0-1.3-1-2-3.5-2.9
		c-3.4-1.2-5.7-3.1-5.7-6.2c0-3.5,3-6.2,7.8-6.2c2.4,0,4.1,0.5,5.3,1l-1,3.8c-0.8-0.4-2.3-1-4.3-1s-3,1-3,2c0,1.3,1.1,1.9,3.8,2.9
		c3.7,1.4,5.4,3.3,5.4,6.2c0,3.5-2.6,6.4-8.3,6.4c-2.4,0-4.7-0.6-5.9-1.3L142.75,408.1z"/>
	<path style="fill:#E4EBED;" d="M162.65,412.9l-4.9-20.7h5l1.6,8.5c0.5,2.5,0.9,5.2,1.2,7.3h0.1c0.3-2.2,0.8-4.7,1.4-7.3l1.8-8.5h5
		l1.7,8.7c0.5,2.4,0.8,4.6,1.1,7h0.1c0.3-2.3,0.8-4.7,1.2-7.2l1.7-8.5h4.8l-5.4,20.7h-5.1l-1.8-8.9c-0.4-2.1-0.7-4-1-6.4h-0.1
		c-0.4,2.3-0.7,4.3-1.2,6.4l-2,8.9H162.65z"/>
	<path style="fill:#E4EBED;" d="M189.75,407.6l-1.5,5.3h-4.8l6.3-20.7h6.2l6.5,20.7h-5.1l-1.6-5.3H189.75z M194.95,404.1l-1.3-4.4
		c-0.4-1.2-0.7-2.8-1-4h-0.1c-0.3,1.2-0.6,2.8-1,4l-1.2,4.4H194.95z"/>
	<path style="fill:#E4EBED;" d="M206.55,396.1h-5.6v-3.9h15.9v3.9h-5.7v16.8h-4.7v-16.8H206.55z"/>
</g>
<g>
	<path style="fill:#172023;" d="M287.05,282.1h-77.8c12.1,36.6,1,53.3,1,53.3s11.9,13.2,37.9,13.2c26,0,37.9-13.2,37.9-13.2
		S274.95,318.7,287.05,282.1z"/>
	<path style="fill:#172023;" d="M336.45,175.2c0-92.4-39.5-113.6-88.3-113.6c-48.7,0-88.3,21.2-88.3,113.6
		c0,31.3,6.2,67.7,15.5,86.6c20.4,41.6,55.7,44.2,72.8,44.2c17.1,0,52.4-2.6,72.8-44.2C330.25,242.9,336.45,206.5,336.45,175.2z"/>
</g>
<path style="fill:#F4B382;" d="M302.15,189.8c0,23-42,37-54,37c-12,0-54-14-54-37c0-12.7,24.2-16,54-16
	C277.95,173.8,302.15,177.1,302.15,189.8z"/>
<path style="fill:#3A484C;" d="M248.65,59.3L248.65,59.3c-0.2,0-0.3,0-0.5,0c-0.2,0-0.3,0-0.5,0l0,0c-82.8,0.5-89.3,65.6-90.4,98.2
	c0,1-8.6,5.7-8.6,6.6c-0.2,8.4,5.6,52,5.6,52h9.6c0,0,9.7-26.8,15.7-30.8c5.7-3.8,62.9-5.2,68.5-5.3c5.7,0.1,62.8,1.5,68.5,5.3
	c6,4,15.7,30.8,15.7,30.8h9.6c0,0,5.8-41.1,5.6-52.5c0-0.6-8.5-4.7-8.5-5.2C338.15,126.3,332.25,59.8,248.65,59.3z"/>
<path style="fill:#31383A;" d="M154.45,216.1c3.8-8.2,10.4-16.2,15.1-24.1c0.6-1,1.3-1.8,2.1-2.7c0.7-0.9,1.5-1.8,2.2-2.7
	c0.8-0.9,1.6-1.8,2.6-2.7c0.2-0.2,0.5-0.4,0.8-0.7c0.1-0.1,0.3-0.2,0.5-0.3l0.1-0.1l0.2-0.1l0.3-0.2c0.5-0.3,0.8-0.4,1.2-0.5
	s0.7-0.2,1-0.3c2.5-0.7,4.7-1,7-1.3s4.5-0.5,6.8-0.8c9-0.8,17.9-1.3,26.9-1.7c8.9-0.4,17.9-0.7,26.8-0.9l6.8,0.2l6.7,0.2
	c4.5,0.2,8.9,0.3,13.4,0.5c9,0.4,17.9,0.9,26.9,1.7c2.2,0.2,4.5,0.4,6.8,0.8c2.3,0.3,4.5,0.6,7,1.3c0.6,0.2,1.3,0.4,2.2,0.8
	c0.1,0.1,0.2,0.1,0.4,0.2l0.3,0.2l0.2,0.1l0.3,0.2c0.3,0.3,0.6,0.5,0.8,0.7c1,0.9,1.8,1.8,2.6,2.7c0.8,0.9,1.5,1.8,2.2,2.7
	s1.5,1.8,2.1,2.7c4.7,7.9,11.3,15.8,15.1,24.1c-5.9-6.9-14-13.9-19.9-20.5c-0.8-0.8-1.4-1.7-2-2.6c-0.6-0.9-1.3-1.7-2-2.5
	s-1.4-1.5-2.1-2.2c-0.8-0.7-0.7-0.6-1.7-1c-1.8-0.5-4-0.8-6.1-1.1c-2.2-0.3-4.3-0.5-6.5-0.7c-8.8-0.8-17.7-1.3-26.6-1.7
	c-4.4-0.2-8.9-0.4-13.4-0.5l-13.2-0.4c-8.9,0.2-17.8,0.5-26.7,0.9s-17.8,0.9-26.6,1.7c-2.2,0.2-4.4,0.4-6.5,0.7s-4.3,0.6-6.1,1.1
	c-0.2,0.1-0.4,0.1-0.6,0.2c-0.2,0.1-0.4,0.2-0.3,0.1l0,0l-0.1,0.1c0,0-0.1,0.1,0,0l0,0l0,0c-0.1,0-0.1,0.1-0.2,0.2
	c-0.1,0.1-0.3,0.3-0.5,0.4c-0.7,0.6-1.4,1.4-2.1,2.2c-0.7,0.8-1.4,1.6-2,2.5s-1.2,1.8-2,2.6C168.55,202.2,160.45,209.2,154.45,216.1
	z"/>
<path style="fill:#1E2021;" d="M288.15,163.1L288.15,163.1c-6.3,0-12.6-0.9-18.9-2.7c-7.7-2.2-14.9-5.6-21.1-10
	c-6.1,4.4-13.3,7.8-21.1,10c-6.3,1.8-12.7,2.7-18.9,2.7c-20.1,0-35.7-9.3-39.7-23.6c-5.5-19.5,11.6-40.9,39-48.6
	c6.3-1.8,12.7-2.7,18.9-2.7c8,0,35.7,0,43.7,0c6.2,0,12.6,0.9,18.9,2.7c27.4,7.7,44.5,29.1,39,48.6
	C323.75,153.8,308.15,163.1,288.15,163.1z"/>
<path style="fill:#779299;" d="M285.15,98c-14-4-60.1-4-74,0c-22.6,6.4-37.3,23.9-33,39.1s26.1,22.4,48.6,16
	c8.4-2.4,15.7-6.3,21.4-11.1c5.7,4.8,13,8.7,21.4,11.1c22.6,6.4,44.3-0.8,48.6-16C322.55,121.9,307.75,104.4,285.15,98z"/>
<g>
	<path style="fill:#FFFFFF;" d="M311.55,337.4L311.55,337.4L311.55,337.4L311.55,337.4z"/>
	<path style="fill:#FFFFFF;" d="M298.55,335.9L298.55,335.9L298.55,335.9z"/>
</g>
<g>
	<polygon style="fill:#2A3335;" points="235.15,358.9 177.65,343.3 191.15,293.9 235.15,324.9 	"/>
	<polygon style="fill:#2A3335;" points="261.15,358.9 318.65,343.3 305.15,293.9 261.15,324.9 	"/>
</g>
<rect x="273.15" y="380.1" style="fill:#181D1E;" width="74.5" height="62.9"/>
<polygon style="fill:#2A3335;" points="347.65,392 310.35,407.4 273.15,392 273.15,385.2 347.65,385.2 "/>
<polygon style="fill:#181D1E;" points="347.65,388.4 310.35,403.9 273.15,388.4 273.15,380.1 347.65,380.1 "/>
<g>
</g>
<g>
</g>
<g>
</g>
<g>
</g>
<g>
</g>
<g>
</g>
<g>
</g>
<g>
</g>
<g>
</g>
<g>
</g>
<g>
</g>
<g>
</g>
<g>
</g>
<g>
</g>
<g>
</g>
</svg>
