<svg height="512pt" viewBox="0 0 512 512" width="512pt" xmlns="http://www.w3.org/2000/svg"><path d="m512 256c0 141.386719-114.613281 256-256 256s-256-114.613281-256-256 114.613281-256 256-256 256 114.613281 256 256zm0 0" fill="#a35bef"/><path d="m479.351562 223.351562c0 123.351563-100 223.347657-223.351562 223.347657s-223.351562-99.996094-223.351562-223.347657c0-123.355468 100-223.351562 223.351562-223.351562s223.351562 99.996094 223.351562 223.351562zm0 0" fill="#bd70ff"/><path d="m439.460938 338.355469c-44.988282 0-81.460938-36.46875-81.460938-81.460938v-90.324219c46.765625 0 84.675781 37.910157 84.675781 84.675782v83.898437c0 1.773438-1.441406 3.210938-3.214843 3.210938zm0 0" fill="#ffc350"/><path d="m348.597656 361h-185.195312c-44.058594 0-81.832032 30.300781-91.996094 72.359375 46.582031 48.46875 112.0625 78.640625 184.59375 78.640625s138.011719-30.171875 184.589844-78.640625c-10.164063-42.058594-47.933594-72.359375-91.992188-72.359375zm0 0" fill="#e3aa75"/><path d="m256 512c49.027344 0 94.824219-13.800781 133.75-37.707031v-23.929688c0-7.65625-6.207031-13.863281-13.863281-13.863281-7.660157 0-13.867188-6.207031-13.867188-13.863281v-60.667969c-4.394531-.625-8.871093-.96875-13.421875-.96875h-185.195312c-4.550782 0-9.027344.34375-13.421875.96875v60.667969c0 7.65625-6.207031 13.863281-13.867188 13.863281-7.65625 0-13.863281 6.207031-13.863281 13.863281v23.929688c38.925781 23.90625 84.722656 37.707031 133.75 37.707031zm0 0" fill="#64505a"/><path d="m256 474.511719c-41.984375 0-76.019531-34.035157-76.019531-76.019531v-37.492188h152.039062v37.488281c0 41.988281-34.035156 76.023438-76.019531 76.023438zm0 0" fill="#e3aa75"/><path d="m204.523438 245.980469v118.789062c0 28.429688 23.046874 51.476563 51.476562 51.476563s51.476562-23.046875 51.476562-51.476563v-118.789062zm0 0" fill="#e3aa75"/><path d="m204.523438 360.96875c15.96875 6.230469 33.328124 9.660156 51.476562 9.660156s35.507812-3.429687 51.476562-9.660156v-114.988281h-102.953124zm0 0" fill="#d29b6e"/><path d="m388.5 257.84375h-30.5v-89.0625h40.304688c10.875 0 19.695312 8.820312 19.695312 19.699219v39.863281c0 16.292969-13.207031 29.5-29.5 29.5zm0 0" fill="#e3aa75"/><path d="m123.5 257.84375h30.5v-89.0625h-40.304688c-10.875 0-19.695312 8.820312-19.695312 19.699219v39.863281c0 16.292969 13.207031 29.5 29.5 29.5zm0 0" fill="#d29b6e"/><path d="m256 350.628906c-67.378906 0-122-54.621094-122-122v-91.628906c0-67.378906 54.621094-122 122-122s122 54.621094 122 122v91.628906c0 67.378906-54.621094 122-122 122zm0 0" fill="#f5b97d"/><path d="m184 228.628906v-91.628906c0-58.808594 41.613281-107.894531 97-119.429688-8.070312-1.683593-16.429688-2.570312-25-2.570312-67.378906 0-122 54.621094-122 122v91.628906c0 67.378906 54.621094 122 122 122 8.570312 0 16.929688-.890625 25-2.570312-55.386719-11.535156-97-60.621094-97-119.429688zm0 0" fill="#e3aa75"/><path d="m393 168.785156v-31.785156c0-75.542969-61.457031-137-137-137s-137 61.457031-137 137v31.785156h15l122-16.785156 122 16.785156zm0 0" fill="#ffd164"/><path d="m169 137c0-67.003906 48.355469-122.921875 112-134.707031-8.109375-1.5-16.464844-2.292969-25-2.292969-75.542969 0-137 61.457031-137 137v31.785156h15l35-4.816406zm0 0" fill="#ffc350"/><path d="m109 147.785156v13.101563c0 4.367187 3.539062 7.90625 7.90625 7.90625h278.1875c4.367188 0 7.90625-3.539063 7.90625-7.90625v-13.101563c0-11.355468-1.394531-22.394531-4.015625-32.957031-.878906-3.539063-4.039063-6.035156-7.6875-6.035156h-270.59375c-3.648437 0-6.808594 2.496093-7.6875 6.035156-2.621094 10.5625-4.015625 21.597656-4.015625 32.957031zm0 0" fill="#edebed"/><path d="m159 160.886719v-13.101563c0-11.355468 1.394531-22.394531 4.015625-32.957031.878906-3.539063 4.039063-6.035156 7.6875-6.035156h-50c-3.644531 0-6.808594 2.496093-7.6875 6.035156-2.617187 10.5625-4.015625 21.597656-4.015625 32.957031v13.101563c0 4.367187 3.539062 7.90625 7.90625 7.90625h50c-4.367188 0-7.90625-3.539063-7.90625-7.90625zm0 0" fill="#dbd9dc"/><path d="m379.113281 161.9375c-.253906-.929688-.839843-1.722656-1.65625-2.238281-9.242187-5.804688-67.890625-41.277344-121.457031-41.277344-53.5625 0-112.214844 35.472656-121.453125 41.277344-.820313.515625-1.402344 1.308593-1.65625 2.238281-2.492187 9.160156-15.074219 58.929688 5.933594 57.738281 23.132812-1.316406 67.890625-50.628906 117.179687-50.628906 49.285156 0 94.042969 49.3125 117.175782 50.628906 21.007812 1.191407 8.421874-48.578125 5.933593-57.738281zm0 0" fill="#fff"/><path d="m189.355469 132.558594c-27.730469 10.585937-49.484375 23.792968-54.8125 27.140625-.816407.515625-1.402344 1.308593-1.65625 2.238281-2.488281 9.160156-15.074219 58.929688 5.933593 57.738281 9.519532-.542969 22.703126-9.210937 38.355469-19.226562-.828125-23.273438 10.070313-60.300781 12.179688-67.890625zm0 0" fill="#edebed"/></svg>