<svg height="512pt" viewBox="0 0 512 512" width="512pt" xmlns="http://www.w3.org/2000/svg"><path d="m512 256c0 141.386719-114.613281 256-256 256s-256-114.613281-256-256 114.613281-256 256-256 256 114.613281 256 256zm0 0" fill="#36415c"/><path d="m479.351562 223.351562c0 123.351563-100 223.347657-223.351562 223.347657s-223.351562-99.996094-223.351562-223.347657c0-123.355468 100-223.351562 223.351562-223.351562s223.351562 99.996094 223.351562 223.351562zm0 0" fill="#3c4c72"/><path d="m379.335938 361h-246.671876c-34.96875 0-65.730468 19.480469-81.480468 48.59375 46.707031 62.183594 121.0625 102.40625 204.816406 102.40625s158.109375-40.222656 204.816406-102.40625c-15.75-29.113281-46.511718-48.59375-81.480468-48.59375zm0 0" fill="#edebed"/><path d="m124 475.382812c38.542969 23.242188 83.710938 36.617188 132 36.617188s93.457031-13.375 132-36.617188v-113.96875c-2.855469-.265624-5.742188-.414062-8.664062-.414062h-246.671876c-2.921874 0-5.808593.148438-8.664062.414062zm0 0" fill="#fff"/><path d="m276.738281 496.5h-41.476562c-2.355469 0-4.261719-1.90625-4.261719-4.261719v-107.476562c0-2.355469 1.910156-4.261719 4.261719-4.261719h41.476562c2.355469 0 4.261719 1.90625 4.261719 4.261719v107.476562c0 2.355469-1.90625 4.261719-4.261719 4.261719zm0 0" fill="#edebed"/><path d="m204.523438 357.902344c15.902343 6.472656 33.277343 10.046875 51.476562 10.046875s35.574219-3.574219 51.476562-10.046875v-109.597656h-102.953124zm0 0" fill="#a06e50"/><path d="m191.605469 350.378906-13.046875 11.21875c-12.597656 10.835938-14.390625 29.691406-4.058594 42.707032l48.003906 60.464843c2.476563 3.125 7.171875 3.257813 9.828125.28125l23.667969-26.550781-43.628906-84.109375c-4.007813-7.722656-14.171875-9.6875-20.765625-4.011719zm0 0" fill="#8cb4eb"/><path d="m320.394531 350.378906 13.046875 11.21875c12.597656 10.835938 14.390625 29.691406 4.058594 42.707032l-48.003906 60.464843c-2.476563 3.125-7.171875 3.257813-9.828125.28125l-23.667969-26.550781 43.628906-84.109375c4.007813-7.722656 14.171875-9.6875 20.765625-4.011719zm0 0" fill="#8cb4eb"/><path d="m204.523438 245.980469v118.789062c0 28.429688 51.476562 73.730469 51.476562 73.730469s51.476562-45.300781 51.476562-73.730469v-118.789062zm0 0" fill="#f7d291"/><path d="m204.523438 360.96875c15.96875 6.230469 33.328124 9.660156 51.476562 9.660156s35.507812-3.429687 51.476562-9.660156v-114.988281h-102.953124zm0 0" fill="#f0c382"/><path d="m388.5 257.84375h-30.5v-89.0625h40.304688c10.875 0 19.695312 8.820312 19.695312 19.699219v39.863281c0 16.292969-13.207031 29.5-29.5 29.5zm0 0" fill="#f7d291"/><path d="m123.5 257.84375h30.5v-89.0625h-40.304688c-10.875 0-19.695312 8.820312-19.695312 19.699219v39.863281c0 16.292969 13.207031 29.5 29.5 29.5zm0 0" fill="#f0c382"/><path d="m256 350.628906c-67.378906 0-122-54.621094-122-122v-91.628906c0-67.378906 54.621094-122 122-122s122 54.621094 122 122v91.628906c0 67.378906-54.621094 122-122 122zm0 0" fill="#ffe1a0"/><path d="m184 228.628906v-91.628906c0-58.808594 41.613281-107.894531 97-119.429688-8.070312-1.683593-16.429688-2.570312-25-2.570312-67.378906 0-122 54.621094-122 122v91.628906c0 67.378906 54.621094 122 122 122 8.570312 0 16.929688-.890625 25-2.570312-55.386719-11.535156-97-60.621094-97-119.429688zm0 0" fill="#f7d291"/><path d="m255.609375 0c-75.726563.210938-136.609375 62.597656-136.609375 138.324219v30.457031h15v27.230469h22.933594c5.28125 0 9.566406-4.285157 9.566406-9.570313v-50.214844c0-5.285156 4.285156-9.570312 9.566406-9.570312h159.867188c5.28125 0 9.566406 4.285156 9.566406 9.570312v50.214844c0 5.285156 4.285156 9.570313 9.566406 9.570313h22.933594v-27.230469h15v-31.78125c0-75.671875-61.667969-137.210938-137.390625-137zm0 0" fill="#b67f5f"/><path d="m166.457031 137c0-67.453125 49.007813-123.675781 113.28125-134.9375-7.835937-1.375-15.898437-2.0859375-24.128906-2.0625-75.726563.210938-136.609375 62.597656-136.609375 138.324219v30.457031h15v27.226562h22.933594c5.003906 0 9.105468-3.84375 9.527344-8.742187v-50.265625zm0 0" fill="#a06e50"/><path d="m109 147.777344v13.101562c0 4.363282 3.539062 7.902344 7.90625 7.902344h278.1875c4.367188 0 7.90625-3.539062 7.90625-7.902344v-13.101562c0-11.359375-1.394531-22.394532-4.015625-32.957032-.878906-3.539062-4.039063-6.039062-7.6875-6.039062h-270.59375c-3.648437 0-6.808594 2.5-7.6875 6.039062-2.621094 10.5625-4.015625 21.597657-4.015625 32.957032zm0 0" fill="#8cb4eb"/><path d="m159 160.878906v-13.101562c0-11.355469 1.394531-22.394532 4.015625-32.957032.878906-3.539062 4.039063-6.035156 7.6875-6.035156h-50c-3.644531 0-6.808594 2.496094-7.6875 6.035156-2.617187 10.5625-4.015625 21.597657-4.015625 32.957032v13.101562c0 4.367188 3.539062 7.90625 7.90625 7.90625h50c-4.367188 0-7.90625-3.539062-7.90625-7.90625zm0 0" fill="#739bd7"/></svg>