<svg height="512pt" viewBox="0 0 512 512" width="512pt" xmlns="http://www.w3.org/2000/svg"><path d="m512 256c0 141.386719-114.613281 256-256 256s-256-114.613281-256-256 114.613281-256 256-256 256 114.613281 256 256zm0 0" fill="#a35bef"/><path d="m479.351562 223.351562c0 123.351563-100 223.347657-223.351562 223.347657s-223.351562-99.996094-223.351562-223.347657c0-123.355468 100-223.351562 223.351562-223.351562s223.351562 99.996094 223.351562 223.351562zm0 0" fill="#bd70ff"/><path d="m256 419.210938c-75.664062 0-137-61.339844-137-137v-94.890626h274v94.890626c0 75.660156-61.335938 137-137 137zm0 0" fill="#ff9664"/><path d="m348.597656 361h-185.195312c-44.058594 0-81.832032 30.300781-91.996094 72.359375 46.582031 48.46875 112.0625 78.640625 184.59375 78.640625s138.011719-30.171875 184.589844-78.640625c-10.164063-42.058594-47.933594-72.359375-91.992188-72.359375zm0 0" fill="#b4f09b"/><path d="m124 475.359375c38.546875 23.25 83.703125 36.640625 132 36.640625s93.453125-13.390625 132-36.640625v-105.765625c-12.046875-5.523438-25.40625-8.59375-39.402344-8.59375h-185.195312c-13.996094 0-27.355469 3.070312-39.402344 8.59375zm0 0" fill="#cdf5a0"/><path d="m204.523438 360.96875s-32.523438 14.695312-32.523438 33.03125c0 15.628906 47.726562 65.417969 61.804688 79.765625 1.867187 1.902344 5.054687 1.351563 6.1875-1.0625l16.007812-34.203125zm0 0" fill="#fff"/><path d="m307.476562 360.96875s32.523438 14.695312 32.523438 33.03125c0 15.628906-47.726562 65.417969-61.804688 79.765625-1.867187 1.902344-5.054687 1.351563-6.1875-1.0625l-16.007812-34.203125zm0 0" fill="#fff"/><path d="m204.523438 245.980469v118.789062c0 28.429688 51.476562 73.730469 51.476562 73.730469s51.476562-45.300781 51.476562-73.730469v-118.789062zm0 0" fill="#f7d291"/><g fill="#f0c382"><path d="m204.523438 360.96875c15.96875 6.230469 33.328124 9.660156 51.476562 9.660156s35.507812-3.429687 51.476562-9.660156v-114.988281h-102.953124zm0 0"/><path d="m388.5 257.84375h-30.5v-89.0625h40.304688c10.875 0 19.695312 8.820312 19.695312 19.699219v39.863281c0 16.292969-13.207031 29.5-29.5 29.5zm0 0"/><path d="m123.5 257.84375h30.5v-89.0625h-40.304688c-10.875 0-19.695312 8.820312-19.695312 19.699219v39.863281c0 16.292969 13.207031 29.5 29.5 29.5zm0 0"/></g><path d="m256 350.628906c-67.378906 0-122-54.621094-122-122v-91.628906c0-67.378906 54.621094-122 122-122s122 54.621094 122 122v91.628906c0 67.378906-54.621094 122-122 122zm0 0" fill="#ffe1a0"/><path d="m184 228.628906v-91.628906c0-58.808594 41.613281-107.894531 97-119.429688-8.070312-1.683593-16.429688-2.570312-25-2.570312-67.378906 0-122 54.621094-122 122v91.628906c0 67.378906 54.621094 122 122 122 8.570312 0 16.929688-.890625 25-2.570312-55.386719-11.535156-97-60.621094-97-119.429688zm0 0" fill="#f7d291"/><path d="m393 168.785156v-31.785156c0-75.542969-61.457031-137-137-137s-137 61.457031-137 137v31.785156h15l122-16.785156 122 16.785156zm0 0" fill="#ff9664"/><path d="m169 137c0-67.003906 48.355469-122.921875 112-134.707031-8.109375-1.5-16.464844-2.292969-25-2.292969-75.542969 0-137 61.457031-137 137v31.785156h15l35-4.816406zm0 0" fill="#ff8250"/><path d="m109 147.785156v13.101563c0 4.367187 3.539062 7.90625 7.90625 7.90625h278.1875c4.367188 0 7.90625-3.539063 7.90625-7.90625v-13.101563c0-11.355468-1.394531-22.394531-4.015625-32.957031-.878906-3.539063-4.039063-6.035156-7.6875-6.035156h-270.59375c-3.648437 0-6.808594 2.496093-7.6875 6.035156-2.621094 10.5625-4.015625 21.597656-4.015625 32.957031zm0 0" fill="#edebed"/><path d="m159 160.886719v-13.101563c0-11.355468 1.394531-22.394531 4.015625-32.957031.878906-3.539063 4.039063-6.035156 7.6875-6.035156h-50c-3.644531 0-6.808594 2.496093-7.6875 6.035156-2.617187 10.5625-4.015625 21.597656-4.015625 32.957031v13.101563c0 4.367187 3.539062 7.90625 7.90625 7.90625h50c-4.367188 0-7.90625-3.539063-7.90625-7.90625zm0 0" fill="#dbd9dc"/><path d="m379.113281 161.9375c-.253906-.929688-.839843-1.722656-1.65625-2.238281-9.242187-5.804688-67.890625-41.277344-121.457031-41.277344-53.5625 0-112.214844 35.472656-121.453125 41.277344-.820313.515625-1.402344 1.308593-1.65625 2.238281-2.492187 9.160156-15.074219 58.929688 5.933594 57.738281 23.132812-1.316406 67.890625-50.628906 117.179687-50.628906 49.285156 0 94.042969 49.3125 117.175782 50.628906 21.007812 1.191407 8.421874-48.578125 5.933593-57.738281zm0 0" fill="#fff"/><path d="m189.355469 132.558594c-27.730469 10.585937-49.484375 23.792968-54.8125 27.140625-.816407.515625-1.402344 1.308593-1.65625 2.238281-2.488281 9.160156-15.074219 58.929688 5.933593 57.738281 9.519532-.542969 22.703126-9.210937 38.355469-19.226562-.828125-23.273438 10.070313-60.300781 12.179688-67.890625zm0 0" fill="#edebed"/></svg>