<svg height="512pt" viewBox="0 0 512 512" width="512pt" xmlns="http://www.w3.org/2000/svg"><path d="m512 256c0 141.386719-114.613281 256-256 256s-256-114.613281-256-256 114.613281-256 256-256 256 114.613281 256 256zm0 0" fill="#b4f09b"/><path d="m479.351562 223.351562c0 123.351563-100 223.347657-223.351562 223.347657s-223.351562-99.996094-223.351562-223.347657c0-123.355468 100-223.351562 223.351562-223.351562s223.351562 99.996094 223.351562 223.351562zm0 0" fill="#cdf5a0"/><path d="m379.335938 361h-246.671876c-34.96875 0-65.730468 19.480469-81.480468 48.59375 46.707031 62.183594 121.0625 102.40625 204.816406 102.40625s158.109375-40.222656 204.816406-102.40625c-15.75-29.113281-46.511718-48.59375-81.480468-48.59375zm0 0" fill="#dc4655"/><path d="m124 475.382812c38.542969 23.242188 83.710938 36.617188 132 36.617188s93.457031-13.375 132-36.617188v-113.96875c-2.855469-.265624-5.742188-.414062-8.664062-.414062h-246.671876c-2.921874 0-5.808593.148438-8.664062.414062zm0 0" fill="#e6646e"/><path d="m276.738281 496.5h-41.476562c-2.355469 0-4.261719-1.90625-4.261719-4.261719v-107.476562c0-2.355469 1.910156-4.261719 4.261719-4.261719h41.476562c2.355469 0 4.261719 1.90625 4.261719 4.261719v107.476562c0 2.355469-1.90625 4.261719-4.261719 4.261719zm0 0" fill="#dc4655"/><path d="m191.605469 350.378906-13.046875 11.21875c-12.597656 10.835938-14.390625 29.691406-4.058594 42.707032l48.003906 60.464843c2.476563 3.125 7.171875 3.257813 9.828125.28125l23.667969-26.550781-43.628906-84.109375c-4.007813-7.722656-14.171875-9.6875-20.765625-4.011719zm0 0" fill="#ff8087"/><path d="m320.394531 350.378906 13.046875 11.21875c12.597656 10.835938 14.390625 29.691406 4.058594 42.707032l-48.003906 60.464843c-2.476563 3.125-7.171875 3.257813-9.828125.28125l-23.667969-26.550781 43.628906-84.109375c4.007813-7.722656 14.171875-9.6875 20.765625-4.011719zm0 0" fill="#ff8087"/><path d="m204.523438 245.980469v118.789062c0 28.429688 51.476562 73.730469 51.476562 73.730469s51.476562-45.300781 51.476562-73.730469v-118.789062zm0 0" fill="#b67f5f"/><path d="m204.523438 360.96875c15.96875 6.230469 33.328124 9.660156 51.476562 9.660156s35.507812-3.429687 51.476562-9.660156v-114.988281h-102.953124zm0 0" fill="#a06e50"/><path d="m388.5 257.84375h-30.5v-89.0625h40.304688c10.875 0 19.695312 8.820312 19.695312 19.699219v39.863281c0 16.292969-13.207031 29.5-29.5 29.5zm0 0" fill="#b67f5f"/><path d="m123.5 257.84375h30.5v-89.0625h-40.304688c-10.875 0-19.695312 8.820312-19.695312 19.699219v39.863281c0 16.292969 13.207031 29.5 29.5 29.5zm0 0" fill="#a06e50"/><path d="m256 350.628906c-67.378906 0-122-54.621094-122-122v-91.628906c0-67.378906 54.621094-122 122-122s122 54.621094 122 122v91.628906c0 67.378906-54.621094 122-122 122zm0 0" fill="#cd916e"/><path d="m184 228.628906v-91.628906c0-58.808594 41.613281-107.894531 97-119.429688-8.070312-1.683593-16.429688-2.570312-25-2.570312-67.378906 0-122 54.621094-122 122v91.628906c0 67.378906 54.621094 122 122 122 8.570312 0 16.929688-.890625 25-2.570312-55.386719-11.535156-97-60.621094-97-119.429688zm0 0" fill="#b67f5f"/><path d="m393 168.785156v-31.785156c0-75.542969-61.457031-137-137-137s-137 61.457031-137 137v31.785156h15l122-16.785156 122 16.785156zm0 0" fill="#64505a"/><path d="m169 137c0-67.003906 48.355469-122.921875 112-134.707031-8.109375-1.5-16.464844-2.292969-25-2.292969-75.542969 0-137 61.457031-137 137v31.785156h15l35-4.816406zm0 0" fill="#5a4650"/><path d="m379.113281 151.152344c-.253906-.933594-.839843-1.726563-1.65625-2.238282-9.242187-5.804687-67.890625-41.28125-121.457031-41.28125-53.5625 0-112.214844 35.476563-121.453125 41.28125-.820313.511719-1.402344 1.304688-1.65625 2.238282-2.492187 9.15625-15.074219 58.929687 5.933594 57.734375 23.132812-1.316407 67.890625-50.625 117.179687-50.625 49.285156 0 94.042969 49.308593 117.175782 50.625 21.007812 1.195312 8.421874-48.578125 5.933593-57.734375zm0 0" fill="#6e5a64"/><path d="m189.355469 121.769531c-27.730469 10.589844-49.484375 23.796875-54.8125 27.144531-.816407.511719-1.402344 1.304688-1.65625 2.238282-2.488281 9.15625-15.074219 58.929687 5.933593 57.734375 9.519532-.539063 22.703126-9.210938 38.355469-19.226563-.828125-23.269531 10.070313-60.296875 12.179688-67.890625zm0 0" fill="#64505a"/></svg>