<svg height="512pt" viewBox="0 0 512 512" width="512pt" xmlns="http://www.w3.org/2000/svg"><path d="m512 256c0 141.386719-114.613281 256-256 256s-256-114.613281-256-256 114.613281-256 256-256 256 114.613281 256 256zm0 0" fill="#8cb4eb"/><path d="m479.351562 223.351562c0 123.351563-100 223.347657-223.351562 223.347657s-223.351562-99.996094-223.351562-223.347657c0-123.355468 100-223.351562 223.351562-223.351562s223.351562 99.996094 223.351562 223.351562zm0 0" fill="#a5cdff"/><path d="m379.335938 361h-246.671876c-34.96875 0-65.730468 19.480469-81.480468 48.59375 46.707031 62.183594 121.0625 102.40625 204.816406 102.40625s158.109375-40.222656 204.816406-102.40625c-15.75-29.113281-46.511718-48.59375-81.480468-48.59375zm0 0" fill="#e3aa75"/><path d="m204.523438 245.980469v118.789062c0 28.429688 23.046874 51.476563 51.476562 51.476563s51.476562-23.046875 51.476562-51.476563v-118.789062zm0 0" fill="#e3aa75"/><path d="m204.523438 360.96875c15.96875 6.230469 33.328124 9.660156 51.476562 9.660156s35.507812-3.429687 51.476562-9.660156v-114.988281h-102.953124zm0 0" fill="#d29b6e"/><path d="m388.5 257.84375h-30.5v-89.0625h40.304688c10.875 0 19.695312 8.820312 19.695312 19.699219v39.863281c0 16.292969-13.207031 29.5-29.5 29.5zm0 0" fill="#e3aa75"/><path d="m123.5 257.84375h30.5v-89.0625h-40.304688c-10.875 0-19.695312 8.820312-19.695312 19.699219v39.863281c0 16.292969 13.207031 29.5 29.5 29.5zm0 0" fill="#d29b6e"/><path d="m256 350.628906c-67.378906 0-122-54.621094-122-122v-91.628906c0-67.378906 54.621094-122 122-122s122 54.621094 122 122v91.628906c0 67.378906-54.621094 122-122 122zm0 0" fill="#f5b97d"/><path d="m184 228.628906v-91.628906c0-58.808594 41.613281-107.894531 97-119.429688-8.070312-1.683593-16.429688-2.570312-25-2.570312-67.378906 0-122 54.621094-122 122v91.628906c0 67.378906 54.621094 122 122 122 8.570312 0 16.929688-.890625 25-2.570312-55.386719-11.535156-97-60.621094-97-119.429688zm0 0" fill="#e3aa75"/><path d="m393 168.785156v-31.785156c0-75.542969-61.457031-137-137-137s-137 61.457031-137 137v31.785156zm0 0" fill="#b4f09b"/><path d="m344.625 57.667969c-14.199219 0-25.710938 11.507812-25.710938 25.707031v85.410156h74.085938v-31.785156c0-29.542969-9.402344-56.933594-25.367188-79.332031zm0 0" fill="#fff"/><path d="m169 137c0-67.003906 48.355469-122.921875 112-134.707031-8.109375-1.5-16.464844-2.292969-25-2.292969-75.542969 0-137 61.457031-137 137v31.785156h50zm0 0" fill="#64dca0"/><path d="m167.375 57.667969c14.199219 0 25.710938 11.507812 25.710938 25.707031v85.410156h-74.085938v-31.785156c0-29.542969 9.402344-56.933594 25.367188-79.332031zm0 0" fill="#fff"/><path d="m184 168.785156h-15v-31.785156c0-25.234375 6.863281-48.890625 18.8125-69.214844-4.695312-6.148437-12.101562-10.121094-20.4375-10.121094h-23.007812c-15.964844 22.402344-25.367188 49.792969-25.367188 79.335938v31.785156h74.085938zm0 0" fill="#edebed"/><path d="m114.75 124.554688h282.5c1.367188 0 2.441406-1.195313 2.273438-2.550782-.839844-6.859375-2.09375-13.589844-3.742188-20.167968-.253906-1.015626-1.175781-1.726563-2.222656-1.726563h-275.121094c-1.046875 0-1.964844.710937-2.222656 1.726563-1.644532 6.578124-2.898438 13.308593-3.738282 20.167968-.167968 1.355469.90625 2.550782 2.273438 2.550782zm0 0" fill="#5a4650"/><path d="m205.308594 149h-24.445313c-20.25 0-36.667969-16.414062-36.667969-36.667969 0-20.25 16.417969-36.667969 36.667969-36.667969h24.445313c20.25 0 36.667968 16.417969 36.667968 36.667969-.003906 20.253907-16.417968 36.667969-36.667968 36.667969zm0 0" fill="#6e5a64"/><path d="m180.863281 136.777344c-13.480469 0-24.445312-10.964844-24.445312-24.441406 0-13.480469 10.964843-24.445313 24.445312-24.445313h24.445313c13.476562 0 24.441406 10.964844 24.441406 24.445313 0 13.476562-10.964844 24.441406-24.441406 24.441406zm0 0" fill="#8cb4eb"/><path d="m176.417969 112.332031c0-13.476562 10.964843-24.441406 24.445312-24.441406h-20c-13.480469 0-24.445312 10.964844-24.445312 24.441406 0 13.480469 10.964843 24.445313 24.445312 24.445313h20c-13.480469 0-24.445312-10.964844-24.445312-24.445313zm0 0" fill="#739bd7"/><path d="m331.136719 149h-24.445313c-20.25 0-36.667968-16.414062-36.667968-36.667969 0-20.25 16.417968-36.667969 36.667968-36.667969h24.445313c20.25 0 36.667969 16.417969 36.667969 36.667969 0 20.253907-16.417969 36.667969-36.667969 36.667969zm0 0" fill="#6e5a64"/><path d="m306.691406 136.777344c-13.476562 0-24.441406-10.964844-24.441406-24.441406 0-13.480469 10.964844-24.445313 24.441406-24.445313h24.445313c13.480469 0 24.445312 10.964844 24.445312 24.445313 0 13.476562-10.964843 24.441406-24.445312 24.441406zm0 0" fill="#8cb4eb"/><path d="m302.246094 112.332031c0-13.476562 10.96875-24.441406 24.445312-24.441406h-20c-13.476562 0-24.445312 10.964844-24.445312 24.441406 0 13.480469 10.96875 24.445313 24.445312 24.445313h20c-13.476562 0-24.445312-10.964844-24.445312-24.445313zm0 0" fill="#739bd7"/><path d="m271.277344 109.277344h-30.554688c-5.0625 0-9.167968-4.101563-9.167968-9.167969 0-5.0625 4.105468-9.164063 9.167968-9.164063h30.554688c5.0625 0 9.167968 4.101563 9.167968 9.164063 0 5.066406-4.105468 9.167969-9.167968 9.167969zm0 0" fill="#a35bef"/></svg>