<svg height="512pt" viewBox="0 0 512 512" width="512pt" xmlns="http://www.w3.org/2000/svg"><path d="m512 256c0 141.386719-114.613281 256-256 256s-256-114.613281-256-256 114.613281-256 256-256 256 114.613281 256 256zm0 0" fill="#ffd164"/><path d="m479.351562 223.351562c0 123.351563-100 223.347657-223.351562 223.347657s-223.351562-99.996094-223.351562-223.347657c0-123.355468 100-223.351562 223.351562-223.351562s223.351562 99.996094 223.351562 223.351562zm0 0" fill="#ffe17d"/><path d="m379.335938 361h-246.671876c-34.96875 0-65.730468 19.480469-81.480468 48.59375 46.707031 62.183594 121.0625 102.40625 204.816406 102.40625s158.109375-40.222656 204.816406-102.40625c-15.75-29.113281-46.511718-48.59375-81.480468-48.59375zm0 0" fill="#edebed"/><path d="m124 475.382812c38.542969 23.242188 83.710938 36.617188 132 36.617188s93.457031-13.375 132-36.617188v-113.96875c-2.855469-.265624-5.742188-.414062-8.664062-.414062h-246.671876c-2.921874 0-5.808593.148438-8.664062.414062zm0 0" fill="#fff"/><path d="m256 474.511719c-41.984375 0-76.019531-34.035157-76.019531-76.019531v-37.492188h152.039062v37.488281c0 41.988281-34.035156 76.023438-76.019531 76.023438zm0 0" fill="#a35bef"/><path d="m204.523438 248.304688v118.789062c0 28.429688 23.046874 51.476562 51.476562 51.476562s51.476562-23.046874 51.476562-51.476562v-118.789062zm0 0" fill="#e3aa75"/><path d="m204.523438 360.96875c15.96875 6.230469 33.328124 9.660156 51.476562 9.660156s35.507812-3.429687 51.476562-9.660156v-114.988281h-102.953124zm0 0" fill="#d29b6e"/><path d="m256 350.628906c-67.378906 0-122-54.621094-122-122v-91.628906c0-67.378906 54.621094-122 122-122s122 54.621094 122 122v91.628906c0 67.378906-54.621094 122-122 122zm0 0" fill="#f5b97d"/><path d="m338 184.832031v134.128907c24.570312-22.320313 40-54.523438 40-90.332032v-91.628906c0-67.378906-54.621094-122-122-122s-122 54.621094-122 122v91.628906c0 35.808594 15.429688 68.011719 40 90.332032v-134.128907c21.195312-2.996093 48.441406-5.328125 82-5.328125s60.804688 2.332032 82 5.328125zm0 0" fill="#e3aa75"/><path d="m393 138.328125c0-75.730469-60.882812-138.117187-136.609375-138.328125-75.722656-.210938-137.390625 61.328125-137.390625 137 0 2.949219-1.339844 5.738281-3.644531 7.582031l-17.710938 14.167969c-2.304687 1.84375-3.644531 4.632812-3.644531 7.582031v102.238281c0 4.179688 2.675781 7.890626 6.640625 9.210938l40.578125 13.527344c6.289062 2.09375 12.78125-2.585938 12.78125-9.210938v-123.605468c0-5.363282 4.347656-9.710938 9.710938-9.710938h184.578124c5.363282 0 9.710938 4.347656 9.710938 9.710938v123.605468c0 6.625 6.492188 11.304688 12.78125 9.210938l40.578125-13.527344c3.964844-1.320312 6.640625-5.03125 6.640625-9.210938v-102.238281c0-2.949219-1.339844-5.738281-3.644531-7.582031l-18.746094-14.996094c-1.648437-1.320312-2.609375-3.316406-2.609375-5.425781zm0 0" fill="#a35bef"/><path d="m154 137c0-69.597656 52.167969-127.242188 119.457031-135.878906-5.589843-.722656-11.285156-1.105469-17.066406-1.121094-75.722656-.210938-137.390625 61.328125-137.390625 137 0 2.949219-1.339844 5.738281-3.644531 7.582031l-17.710938 14.167969c-2.304687 1.84375-3.644531 4.632812-3.644531 7.582031v102.238281c0 4.179688 2.675781 7.890626 6.640625 9.210938l40.578125 13.527344c6.289062 2.097656 12.78125-2.582032 12.78125-9.210938zm0 0" fill="#8e54bf"/><path d="m256 104.214844c-60 0-145.367188 25.3125-145.367188 43.769531v23.582031c0 3.550782 3.453126 6.089844 6.835938 5.011719 16.316406-5.195313 61.980469-17.074219 138.53125-17.074219s122.214844 11.878906 138.53125 17.074219c3.382812 1.078125 6.835938-1.460937 6.835938-5.011719v-23.582031c0-18.460937-85.367188-43.769531-145.367188-43.769531zm0 0" fill="#bd70ff"/><path d="m160.632812 119.230469c-28.75 8.628906-50 19.542969-50 28.75v23.585937c0 3.550782 3.453126 6.089844 6.835938 5.011719 7.734375-2.464844 22.078125-6.429687 43.164062-9.917969zm0 0" fill="#a35bef"/></svg>