<svg height="512pt" viewBox="0 0 512 512" width="512pt" xmlns="http://www.w3.org/2000/svg"><path d="m512 256c0 141.386719-114.613281 256-256 256s-256-114.613281-256-256 114.613281-256 256-256 256 114.613281 256 256zm0 0" fill="#36415c"/><path d="m479.351562 223.351562c0 123.351563-100 223.347657-223.351562 223.347657s-223.351562-99.996094-223.351562-223.347657c0-123.355468 100-223.351562 223.351562-223.351562s223.351562 99.996094 223.351562 223.351562zm0 0" fill="#3c4c72"/><path d="m348.597656 361h-185.195312c-44.058594 0-81.832032 30.300781-91.996094 72.359375 46.582031 48.46875 112.0625 78.640625 184.59375 78.640625s138.011719-30.171875 184.589844-78.640625c-10.164063-42.058594-47.933594-72.359375-91.992188-72.359375zm0 0" fill="#edebed"/><path d="m124 475.359375c38.546875 23.25 83.703125 36.640625 132 36.640625s93.453125-13.390625 132-36.640625v-105.765625c-12.046875-5.523438-25.40625-8.59375-39.402344-8.59375h-185.195312c-13.996094 0-27.355469 3.070312-39.402344 8.59375zm0 0" fill="#fff"/><path d="m72.539062 338.355469c44.988282 0 81.460938-36.46875 81.460938-81.460938v-90.324219c-46.765625 0-84.675781 37.910157-84.675781 84.675782v83.898437c0 1.773438 1.441406 3.210938 3.214843 3.210938zm0 0" fill="#ffc350"/><path d="m256 474.511719c-41.984375 0-76.019531-34.035157-76.019531-76.019531v-37.492188h152.039062v37.488281c0 41.988281-34.035156 76.023438-76.019531 76.023438zm0 0" fill="#e6646e"/><path d="m204.523438 248.304688v118.789062c0 28.429688 23.046874 51.476562 51.476562 51.476562s51.476562-23.046874 51.476562-51.476562v-118.789062zm0 0" fill="#f7d291"/><path d="m204.523438 360.96875c15.96875 6.230469 33.328124 9.660156 51.476562 9.660156s35.507812-3.429687 51.476562-9.660156v-114.988281h-102.953124zm0 0" fill="#f0c382"/><path d="m388.5 257.84375h-30.5v-89.0625h40.304688c10.875 0 19.695312 8.820312 19.695312 19.699219v39.863281c0 16.292969-13.207031 29.5-29.5 29.5zm0 0" fill="#f7d291"/><path d="m123.5 257.84375h30.5v-89.0625h-40.304688c-10.875 0-19.695312 8.820312-19.695312 19.699219v39.863281c0 16.292969 13.207031 29.5 29.5 29.5zm0 0" fill="#f0c382"/><path d="m256 350.628906c-67.378906 0-122-54.621094-122-122v-91.628906c0-67.378906 54.621094-122 122-122s122 54.621094 122 122v91.628906c0 67.378906-54.621094 122-122 122zm0 0" fill="#ffe1a0"/><path d="m184 228.628906v-91.628906c0-58.808594 41.613281-107.894531 97-119.429688-8.070312-1.683593-16.429688-2.570312-25-2.570312-67.378906 0-122 54.621094-122 122v91.628906c0 67.378906 54.621094 122 122 122 8.570312 0 16.929688-.890625 25-2.570312-55.386719-11.535156-97-60.621094-97-119.429688zm0 0" fill="#f7d291"/><path d="m393 168.785156v-31.785156c0-75.542969-61.457031-137-137-137s-137 61.457031-137 137v31.785156h15l122-16.785156 122 16.785156zm0 0" fill="#e6646e"/><path d="m169 137c0-67.003906 48.355469-122.921875 112-134.707031-8.109375-1.5-16.464844-2.292969-25-2.292969-75.542969 0-137 61.457031-137 137v31.785156h15l35-4.816406zm0 0" fill="#dc4655"/><path d="m379.113281 151.152344c-.253906-.933594-.839843-1.726563-1.65625-2.238282-9.242187-5.804687-67.890625-41.28125-121.457031-41.28125-53.5625 0-112.214844 35.476563-121.453125 41.28125-.820313.511719-1.402344 1.304688-1.65625 2.238282-2.492187 9.15625-15.074219 58.929687 5.933594 57.734375 23.132812-1.316407 67.890625-50.625 117.179687-50.625 49.285156 0 94.042969 49.308593 117.175782 50.625 21.007812 1.195312 8.421874-48.578125 5.933593-57.734375zm0 0" fill="#ff8087"/><path d="m189.355469 121.769531c-27.730469 10.589844-49.484375 23.796875-54.8125 27.144531-.816407.511719-1.402344 1.304688-1.65625 2.238282-2.488281 9.15625-15.074219 58.929687 5.933593 57.734375 9.519532-.539063 22.703126-9.210938 38.355469-19.226563-.828125-23.269531 10.070313-60.296875 12.179688-67.890625zm0 0" fill="#e6646e"/></svg>