<svg height="512pt" viewBox="0 0 512 512" width="512pt" xmlns="http://www.w3.org/2000/svg"><path d="m512 256c0 141.386719-114.613281 256-256 256s-256-114.613281-256-256 114.613281-256 256-256 256 114.613281 256 256zm0 0" fill="#b4f09b"/><path d="m479.351562 223.351562c0 123.351563-100 223.347657-223.351562 223.347657s-223.351562-99.996094-223.351562-223.347657c0-123.355468 100-223.351562 223.351562-223.351562s223.351562 99.996094 223.351562 223.351562zm0 0" fill="#cdf5a0"/><path d="m256 419.210938c-75.664062 0-137-61.339844-137-137v-94.890626h274v94.890626c0 75.660156-61.335938 137-137 137zm0 0" fill="#5a4650"/><path d="m348.597656 361h-185.195312c-44.058594 0-81.832032 30.300781-91.996094 72.359375 46.582031 48.46875 112.0625 78.640625 184.59375 78.640625s138.011719-30.171875 184.589844-78.640625c-10.164063-42.058594-47.933594-72.359375-91.992188-72.359375zm0 0" fill="#b67f5f"/><path d="m256 512c53.292969 0 102.769531-16.304688 143.75-44.171875v-17.464844c0-7.65625-6.207031-13.863281-13.863281-13.863281-7.660157 0-13.867188-6.207031-13.867188-13.863281v-58.695313c-7.511719-1.917968-15.359375-2.941406-23.421875-2.941406h-185.195312c-8.0625 0-15.910156 1.023438-23.421875 2.941406v58.695313c0 7.65625-6.207031 13.863281-13.867188 13.863281-7.65625 0-13.863281 6.207031-13.863281 13.863281v17.464844c40.980469 27.867187 90.457031 44.171875 143.75 44.171875zm0 0" fill="#ffd164"/><g fill="#fff"><path d="m309.75 459h-107.5c-3.726562 0-6.75 3.023438-6.75 6.75v39.039062c19.398438 4.699219 39.65625 7.210938 60.5 7.210938s41.101562-2.511719 60.5-7.210938v-39.039062c0-3.726562-3.023438-6.75-6.75-6.75zm0 0"/><path d="m327.476562 367.09375v-6.09375h-142.953124v6.09375c0 39.414062 32.066406 71.476562 71.476562 71.476562s71.476562-32.0625 71.476562-71.476562zm0 0"/><path d="m132.25 480.136719v-24.191407c15.757812-2.894531 27.730469-16.730468 27.730469-33.308593v-61.5625c-6.863281.246093-13.558594 1.222656-20 2.867187v58.695313c0 7.65625-6.207031 13.863281-13.867188 13.863281-7.65625 0-13.863281 6.207031-13.863281 13.863281v17.464844c6.464844 4.394531 13.132812 8.507813 20 12.308594zm0 0"/><path d="m399.75 467.828125v-17.464844c0-7.65625-6.207031-13.863281-13.863281-13.863281-7.660157 0-13.867188-6.207031-13.867188-13.863281v-58.695313c-6.441406-1.644531-13.136719-2.621094-20-2.867187v61.5625c0 16.578125 11.976563 30.414062 27.730469 33.308593v24.191407c6.867188-3.800781 13.535156-7.914063 20-12.308594zm0 0"/></g><path d="m204.523438 245.980469v118.789062c0 28.429688 23.046874 51.476563 51.476562 51.476563s51.476562-23.046875 51.476562-51.476563v-118.789062zm0 0" fill="#b67f5f"/><path d="m204.523438 360.96875c15.96875 6.230469 33.328124 9.660156 51.476562 9.660156s35.507812-3.429687 51.476562-9.660156v-114.988281h-102.953124zm0 0" fill="#a06e50"/><path d="m388.5 257.84375h-30.5v-89.0625h40.304688c10.875 0 19.695312 8.820312 19.695312 19.699219v39.863281c0 16.292969-13.207031 29.5-29.5 29.5zm0 0" fill="#b67f5f"/><path d="m123.5 257.84375h30.5v-89.0625h-40.304688c-10.875 0-19.695312 8.820312-19.695312 19.699219v39.863281c0 16.292969 13.207031 29.5 29.5 29.5zm0 0" fill="#a06e50"/><path d="m256 350.628906c-67.378906 0-122-54.621094-122-122v-91.628906c0-67.378906 54.621094-122 122-122s122 54.621094 122 122v91.628906c0 67.378906-54.621094 122-122 122zm0 0" fill="#cd916e"/><path d="m184 228.628906v-91.628906c0-58.808594 41.613281-107.894531 97-119.429688-8.070312-1.683593-16.429688-2.570312-25-2.570312-67.378906 0-122 54.621094-122 122v91.628906c0 67.378906 54.621094 122 122 122 8.570312 0 16.929688-.890625 25-2.570312-55.386719-11.535156-97-60.621094-97-119.429688zm0 0" fill="#b67f5f"/><path d="m255.609375 0c-75.726563.210938-136.609375 62.597656-136.609375 138.324219v31.027343h15l26.695312-47.382812c3.585938-6.367188 10.324219-10.300781 17.628907-10.300781h155.351562c7.304688 0 14.042969 3.9375 17.628907 10.300781l26.695312 47.382812h15v-32.351562c0-75.671875-61.667969-137.210938-137.390625-137zm0 0" fill="#6e5a64"/><path d="m280.996094 2.296875c-8.230469-1.527344-16.714844-2.3203125-25.386719-2.296875-75.726563.210938-136.609375 62.597656-136.609375 138.324219v31.027343h15l26.695312-47.382812c2.355469-4.179688 6.070313-7.300781 10.410157-8.960938 9.933593-56.011718 54.019531-100.367187 109.890625-110.710937zm0 0" fill="#64505a"/></svg>