<svg height="512pt" viewBox="0 0 512 512.00054" width="512pt" xmlns="http://www.w3.org/2000/svg"><path d="m512 256c0 141.386719-114.613281 256-256 256-141.382812 0-256-114.613281-256-256 0-141.382812 114.617188-256 256-256 141.386719 0 256 114.617188 256 256zm0 0" fill="#a35bef"/><path d="m479.351562 223.351562c0 123.351563-100 223.347657-223.351562 223.347657s-223.351562-99.996094-223.351562-223.347657c0-123.355468 100-223.351562 223.351562-223.351562s223.351562 99.996094 223.351562 223.351562zm0 0" fill="#bd70ff"/><path d="m379.335938 361h-246.671876c-34.96875 0-65.730468 19.484375-81.480468 48.59375 46.707031 62.183594 121.0625 102.40625 204.816406 102.40625s158.109375-40.222656 204.816406-102.40625c-15.75-29.109375-46.511718-48.59375-81.480468-48.59375zm0 0" fill="#f7d291"/><path d="m124 475.382812c38.542969 23.242188 83.710938 36.617188 132 36.617188 48.292969 0 93.457031-13.375 132-36.617188v-113.96875c-2.855469-.265624-5.742188-.414062-8.664062-.414062h-246.671876c-2.921874 0-5.808593.148438-8.664062.414062zm0 0" fill="#ff8250"/><path d="m309.75 459h-107.5c-3.726562 0-6.75 3.023438-6.75 6.75v39.039062c19.398438 4.703126 39.65625 7.210938 60.5 7.210938s41.101562-2.511719 60.5-7.210938v-39.039062c0-3.726562-3.023438-6.75-6.75-6.75zm0 0" fill="#fff"/><path d="m327.476562 367.09375v-6.09375h-142.953124v6.09375c0 39.414062 32.066406 71.476562 71.476562 71.476562 39.414062 0 71.476562-32.0625 71.476562-71.476562zm0 0" fill="#fff"/><path d="m204.523438 245.980469v118.792969c0 28.425781 23.046874 51.472656 51.476562 51.472656s51.476562-23.046875 51.476562-51.472656v-118.792969zm0 0" fill="#f7d291"/><path d="m204.523438 360.96875c15.96875 6.230469 33.328124 9.660156 51.476562 9.660156s35.507812-3.429687 51.476562-9.660156v-114.988281h-102.953124zm0 0" fill="#f0c382"/><path d="m388.5 257.84375h-30.5v-89.058594h40.304688c10.875 0 19.695312 8.816406 19.695312 19.695313v39.863281c0 16.292969-13.207031 29.5-29.5 29.5zm0 0" fill="#f7d291"/><path d="m123.5 257.84375h30.5v-89.058594h-40.300781c-10.878907 0-19.699219 8.816406-19.699219 19.695313v39.863281c0 16.292969 13.207031 29.5 29.5 29.5zm0 0" fill="#f0c382"/><path d="m256 350.625c-67.378906 0-122-54.621094-122-122v-91.625c0-67.378906 54.621094-122 122-122s122 54.621094 122 122v91.625c0 67.378906-54.621094 122-122 122zm0 0" fill="#ffe1a0"/><path d="m398.984375 114.820312c-.878906-3.539062-4.039063-6.035156-7.6875-6.035156h-135.296875v60h139.09375c4.367188 0 7.90625-3.539062 7.90625-7.90625v-13.101562c0-11.359375-1.394531-22.394532-4.015625-32.957032zm0 0" fill="#fff"/><path d="m184 228.628906v-91.628906c0-58.808594 41.613281-107.894531 97-119.429688-8.070312-1.683593-16.429688-2.570312-25-2.570312-67.378906 0-122 54.621094-122 122v91.628906c0 67.378906 54.621094 122 122 122 8.570312 0 16.929688-.886718 25-2.570312-55.386719-11.535156-97-60.621094-97-119.429688zm0 0" fill="#f7d291"/><path d="m378 168.78125h15v.570312h-15zm0 0" fill="#ffd164"/><path d="m144 361h-11.335938c-2.921874 0-5.808593.148438-8.664062.414062v113.96875c6.484375 3.910157 13.160156 7.535157 20 10.867188zm0 0" fill="#fff"/><path d="m368 361h11.335938c2.921874 0 5.808593.148438 8.664062.414062v113.96875c-6.484375 3.910157-13.15625 7.535157-20 10.867188zm0 0" fill="#fff"/><path d="m390.082031 108.78125c-13.070312-62.171875-68.433593-108.960938-134.472656-108.78125-75.730469.210938-136.609375 62.597656-136.609375 138.332031v31.019531h15v37.148438h82.003906c56.285156 0 102.554688-42.859375 107.964844-97.71875zm0 0" fill="#ffd164"/><path d="m169 206.5v-69.5c0-67.003906 48.355469-122.917969 111.996094-134.707031-8.230469-1.523438-16.714844-2.3164065-25.386719-2.292969-75.730469.210938-136.609375 62.597656-136.609375 138.332031v31.019531h15v37.148438zm0 0" fill="#ffc350"/></svg>