<svg height="512pt" viewBox="0 0 512 512" width="512pt" xmlns="http://www.w3.org/2000/svg"><path d="m512 256c0 141.386719-114.613281 256-256 256s-256-114.613281-256-256 114.613281-256 256-256 256 114.613281 256 256zm0 0" fill="#e6646e"/><path d="m479.351562 223.351562c0 123.351563-100 223.347657-223.351562 223.347657s-223.351562-99.996094-223.351562-223.347657c0-123.355468 100-223.351562 223.351562-223.351562s223.351562 99.996094 223.351562 223.351562zm0 0" fill="#ff8087"/><path d="m427.125 338.355469c-44.992188 0-81.460938-36.46875-81.460938-81.460938v-90.324219c46.761719 0 84.671876 37.910157 84.671876 84.675782v83.898437c0 1.773438-1.4375 3.210938-3.210938 3.210938zm0 0" fill="#ffc350"/><path d="m348.597656 361h-185.195312c-44.058594 0-81.832032 30.300781-91.996094 72.359375 46.582031 48.46875 112.0625 78.640625 184.59375 78.640625s138.011719-30.171875 184.589844-78.640625c-10.164063-42.058594-47.933594-72.359375-91.992188-72.359375zm0 0" fill="#a35bef"/><path d="m124 475.359375c38.546875 23.25 83.703125 36.640625 132 36.640625s93.453125-13.390625 132-36.640625v-105.765625c-12.046875-5.523438-25.40625-8.59375-39.402344-8.59375h-185.195312c-13.996094 0-27.355469 3.070312-39.402344 8.59375zm0 0" fill="#bd70ff"/><path d="m286.777344 510.148438c25.839844-27.15625 42.320312-83.589844 53.308594-113.148438h-167.628907c11 29.585938 27.496094 86.089844 53.375 113.21875 9.898438 1.164062 19.957031 1.78125 30.167969 1.78125 10.417969 0 20.683594-.644531 30.777344-1.851562zm0 0" fill="#c9c6ca"/><path d="m204.523438 360.96875s-32.523438 14.695312-32.523438 33.03125c0 15.628906 47.726562 65.417969 61.804688 79.765625 1.867187 1.902344 5.054687 1.351563 6.1875-1.0625l16.007812-34.203125zm0 0" fill="#fff"/><path d="m307.476562 360.96875s32.523438 14.695312 32.523438 33.03125c0 15.628906-47.726562 65.417969-61.804688 79.765625-1.867187 1.902344-5.054687 1.351563-6.1875-1.0625l-16.007812-34.203125zm0 0" fill="#fff"/><path d="m204.523438 245.980469v118.789062c0 28.429688 51.476562 73.730469 51.476562 73.730469s51.476562-45.300781 51.476562-73.730469v-118.789062zm0 0" fill="#f7d291"/><path d="m204.523438 360.96875c15.96875 6.230469 33.328124 9.660156 51.476562 9.660156s35.507812-3.429687 51.476562-9.660156v-114.988281h-102.953124zm0 0" fill="#f0c382"/><path d="m388.5 257.84375h-30.5v-89.0625h40.304688c10.875 0 19.695312 8.820312 19.695312 19.699219v39.863281c0 16.292969-13.207031 29.5-29.5 29.5zm0 0" fill="#f7d291"/><path d="m123.5 257.84375h30.5v-89.0625h-40.304688c-10.875 0-19.695312 8.820312-19.695312 19.699219v39.863281c0 16.292969 13.207031 29.5 29.5 29.5zm0 0" fill="#f0c382"/><path d="m256 350.628906c-67.378906 0-122-54.621094-122-122v-91.628906c0-67.378906 54.621094-122 122-122s122 54.621094 122 122v91.628906c0 67.378906-54.621094 122-122 122zm0 0" fill="#ffe1a0"/><path d="m184 228.628906v-91.628906c0-58.808594 41.613281-107.894531 97-119.429688-8.070312-1.683593-16.429688-2.570312-25-2.570312-67.378906 0-122 54.621094-122 122v91.628906c0 67.378906 54.621094 122 122 122 8.570312 0 16.929688-.890625 25-2.570312-55.386719-11.535156-97-60.621094-97-119.429688zm0 0" fill="#f7d291"/><path d="m393 168.785156v-31.785156c0-75.542969-61.457031-137-137-137s-137 61.457031-137 137v31.785156h15l122-16.785156 122 16.785156zm0 0" fill="#a35bef"/><path d="m169 137c0-67.003906 48.355469-122.921875 112-134.707031-8.109375-1.5-16.464844-2.292969-25-2.292969-75.542969 0-137 61.457031-137 137v31.785156h15l35-4.816406zm0 0" fill="#8e54bf"/><path d="m256 119.988281c-50.457031 0-122.242188 21.285157-122.242188 36.808594v19.832031c0 2.984375 2.902344 5.121094 5.75 4.214844 13.71875-4.371094 52.121094-14.359375 116.492188-14.359375s102.773438 9.988281 116.492188 14.359375c2.847656.90625 5.75-1.230469 5.75-4.214844v-19.832031c0-15.523437-71.785157-36.808594-122.242188-36.808594zm0 0" fill="#bd70ff"/><path d="m183.757812 130.363281c-28.105468 7.53125-50 17.859375-50 26.433594v19.832031c0 2.984375 2.902344 5.121094 5.75 4.214844 7.429688-2.367188 22.125-6.382812 44.25-9.566406zm0 0" fill="#a35bef"/></svg>