<svg height="512pt" viewBox="0 0 512 512" width="512pt" xmlns="http://www.w3.org/2000/svg"><path d="m512 256c0 141.386719-114.613281 256-256 256s-256-114.613281-256-256 114.613281-256 256-256 256 114.613281 256 256zm0 0" fill="#b4f09b"/><path d="m479.351562 223.351562c0 123.351563-100 223.347657-223.351562 223.347657s-223.351562-99.996094-223.351562-223.347657c0-123.355468 100-223.351562 223.351562-223.351562s223.351562 99.996094 223.351562 223.351562zm0 0" fill="#cdf5a0"/><path d="m379.335938 361h-246.671876c-34.96875 0-65.730468 19.480469-81.480468 48.59375 46.707031 62.183594 121.0625 102.40625 204.816406 102.40625s158.109375-40.222656 204.816406-102.40625c-15.75-29.113281-46.511718-48.59375-81.480468-48.59375zm0 0" fill="#dc7346"/><path d="m124 475.382812c38.542969 23.242188 83.710938 36.617188 132 36.617188s93.457031-13.375 132-36.617188v-113.96875c-2.855469-.265624-5.742188-.414062-8.664062-.414062h-246.671876c-2.921874 0-5.808593.148438-8.664062.414062zm0 0" fill="#ff8250"/><path d="m471.257812 394.609375c-9.398437-32.121094-39.058593-55.589844-74.214843-55.589844h-282.082031c-35.160157 0-64.820313 23.46875-74.214844 55.589844 8.84375 13.707031 18.960937 26.519531 30.183594 38.261719h30.875c9.121093 0 16.515624 7.394531 16.515624 16.515625 0 9.121093 7.394532 16.515625 16.515626 16.515625h242.332031c9.121093 0 16.515625-7.394532 16.515625-16.515625 0-9.121094 7.390625-16.515625 16.511718-16.515625h30.875c11.226563-11.742188 21.339844-24.554688 30.1875-38.261719zm0 0" fill="#edebed"/><path d="m388 339.019531h-264v122.8125c2.902344 2.527344 6.683594 4.070313 10.835938 4.070313h242.332031c4.148437 0 7.929687-1.542969 10.832031-4.066406zm0 0" fill="#fff"/><path d="m204.523438 248.304688v118.789062c0 28.429688 23.046874 51.476562 51.476562 51.476562s51.476562-23.046874 51.476562-51.476562v-118.789062zm0 0" fill="#b67f5f"/><path d="m204.523438 360.96875c15.96875 6.230469 33.328124 9.660156 51.476562 9.660156s35.507812-3.429687 51.476562-9.660156v-114.988281h-102.953124zm0 0" fill="#a06e50"/><path d="m256 350.628906c-67.378906 0-122-54.621094-122-122v-91.628906c0-67.378906 54.621094-122 122-122s122 54.621094 122 122v91.628906c0 67.378906-54.621094 122-122 122zm0 0" fill="#cd916e"/><path d="m393 138.328125c0-75.730469-60.882812-138.117187-136.609375-138.328125-75.722656-.210938-137.390625 61.328125-137.390625 137 0 2.949219-1.339844 5.738281-3.644531 7.582031l-17.710938 14.167969c-2.304687 1.84375-3.644531 4.632812-3.644531 7.582031v101.238281c0 4.179688 2.675781 7.890626 6.640625 9.210938l40.578125 13.527344c6.289062 2.09375 12.78125-2.585938 12.78125-9.210938v-114.605468c0-5.363282 4.347656-9.710938 9.710938-9.710938h184.578124c5.363282 0 9.710938 4.347656 9.710938 9.710938v114.605468c0 6.625 6.492188 11.304688 12.78125 9.210938l40.578125-13.527344c3.964844-1.320312 6.640625-5.03125 6.640625-9.210938v-101.238281c0-2.949219-1.339844-5.738281-3.644531-7.582031l-18.746094-14.996094c-1.648437-1.320312-2.609375-3.316406-2.609375-5.425781zm0 0" fill="#ff8250"/><path d="m154 137c0-69.597656 52.167969-127.242188 119.457031-135.878906-5.589843-.722656-11.285156-1.105469-17.066406-1.121094-75.722656-.210938-137.390625 61.328125-137.390625 137 0 2.949219-1.339844 5.738281-3.644531 7.582031l-17.710938 14.167969c-2.304687 1.84375-3.644531 4.632812-3.644531 7.582031v101.238281c0 4.179688 2.675781 7.890626 6.640625 9.210938l40.578125 13.527344c6.289062 2.097656 12.78125-2.582032 12.78125-9.210938zm0 0" fill="#dc7346"/><path d="m365.5 283.605469v-128.921875c0-4.144532-3.355469-7.5-7.5-7.5s-7.5 3.355468-7.5 7.5v110.28125h-189v-110.28125c0-4.144532-3.359375-7.5-7.5-7.5s-7.5 3.355468-7.5 7.5v128.921875c0 10.722656 1.496094 21.03125 4.25 30.648437.078125.386719.195312.761719.328125 1.125 10.953125 36.742188 40.335937 63.121094 74.78125 63.121094h60.28125c34.441406 0 63.824219-26.375 74.777344-63.121094.136719-.363281.253906-.738281.332031-1.125 2.753906-9.617187 4.25-19.925781 4.25-30.648437zm-15 0c0 7.503906-.855469 14.753906-2.417969 21.644531h-54.441406v-25.285156h56.859375zm-71.859375 79.894531h-45.28125v-43.25h45.28125zm-45.28125-58.25v-25.285156h45.28125v25.285156zm-15-25.285156v25.285156h-54.441406c-1.5625-6.886719-2.417969-14.140625-2.417969-21.644531v-3.640625zm-49.660156 40.285156h49.660156v42.691406c-21.644531-3.136718-40.035156-19.648437-49.660156-42.691406zm124.941406 42.691406v-42.691406h49.664063c-9.625 23.042969-28.019532 39.554688-49.664063 42.691406zm0 0" fill="#fff"/><path d="m256 109.582031c-51.128906 0-123.867188 21.570313-123.867188 37.296875v20.09375c0 3.027344 2.941407 5.191406 5.824219 4.273438 13.902344-4.429688 52.816407-14.550782 118.042969-14.550782 65.230469 0 104.140625 10.121094 118.042969 14.550782 2.886719.917968 5.828125-1.246094 5.828125-4.273438v-20.09375c-.003906-15.726562-72.742188-37.296875-123.871094-37.296875zm0 0" fill="#ff9664"/><path d="m182.132812 120.273438c-28.160156 7.617187-50 17.988281-50 26.605468v20.09375c0 3.027344 2.941407 5.191406 5.824219 4.273438 7.457031-2.375 22.121094-6.386719 44.175781-9.597656zm0 0" fill="#ff8250"/></svg>