<svg height="512pt" viewBox="0 0 512 512" width="512pt" xmlns="http://www.w3.org/2000/svg"><path d="m512 256c0 141.386719-114.613281 256-256 256s-256-114.613281-256-256 114.613281-256 256-256 256 114.613281 256 256zm0 0" fill="#e6646e"/><path d="m479.351562 223.351562c0 123.351563-100 223.347657-223.351562 223.347657s-223.351562-99.996094-223.351562-223.347657c0-123.355468 100-223.351562 223.351562-223.351562s223.351562 99.996094 223.351562 223.351562zm0 0" fill="#ff8087"/><path d="m379.335938 361h-246.671876c-34.96875 0-65.730468 19.480469-81.480468 48.59375 46.707031 62.183594 121.0625 102.40625 204.816406 102.40625s158.109375-40.222656 204.816406-102.40625c-15.75-29.113281-46.511718-48.59375-81.480468-48.59375zm0 0" fill="#dbd9dc"/><path d="m124 475.382812c38.542969 23.242188 83.710938 36.617188 132 36.617188s93.457031-13.375 132-36.617188v-113.96875c-2.855469-.265624-5.742188-.414062-8.664062-.414062h-246.671876c-2.921874 0-5.808593.148438-8.664062.414062zm0 0" fill="#edebed"/><path d="m204.523438 245.980469v115.019531l51.476562 77.5 51.476562-77.5v-115.019531zm0 0" fill="#e3aa75"/><path d="m204.523438 360.96875c15.96875 6.230469 33.328124 9.660156 51.476562 9.660156s35.507812-3.429687 51.476562-9.660156v-114.988281h-102.953124zm0 0" fill="#d29b6e"/><path d="m388.5 257.84375h-30.5v-89.0625h40.304688c10.875 0 19.695312 8.820312 19.695312 19.699219v39.863281c0 16.292969-13.207031 29.5-29.5 29.5zm0 0" fill="#e3aa75"/><path d="m123.5 257.84375h30.5v-89.0625h-40.304688c-10.875 0-19.695312 8.820312-19.695312 19.699219v39.863281c0 16.292969 13.207031 29.5 29.5 29.5zm0 0" fill="#d29b6e"/><path d="m256 350.628906c-67.378906 0-122-54.621094-122-122v-91.628906c0-67.378906 54.621094-122 122-122s122 54.621094 122 122v91.628906c0 67.378906-54.621094 122-122 122zm0 0" fill="#f5b97d"/><path d="m184 228.628906v-91.628906c0-58.808594 41.613281-107.894531 97-119.429688-8.070312-1.683593-16.429688-2.570312-25-2.570312-67.378906 0-122 54.621094-122 122v91.628906c0 67.378906 54.621094 122 122 122 8.570312 0 16.929688-.890625 25-2.570312-55.386719-11.535156-97-60.621094-97-119.429688zm0 0" fill="#e3aa75"/><path d="m378 168.78125h15v.570312h-15zm0 0" fill="#ffd164"/><path d="m256 0c-75.542969 0-137 61.457031-137 137v31.78125h15s100-4.28125 122-82.78125c22 78.5 122 82.78125 122 82.78125h15v-31.78125c0-75.542969-61.457031-137-137-137zm0 0" fill="#b67f5f"/><path d="m169 137c0-67.003906 48.355469-122.921875 112-134.707031-8.109375-1.5-16.464844-2.292969-25-2.292969-75.542969 0-137 61.457031-137 137v31.78125h15s15.175781-.652344 35-6.085938zm0 0" fill="#a06e50"/><path d="m256 512c-15.734375 0-31.136719-1.421875-46.089844-4.140625l97.566406-146.859375h50l-100.308593 150.992188c-.390625 0-.777344.007812-1.167969.007812zm0 0" fill="#739bd7"/><path d="m51.183594 409.59375c46.707031 62.183594 121.0625 102.40625 204.816406 102.40625 15.734375 0 31.136719-1.421875 46.089844-4.140625l-97.566406-146.859375h-71.859376c-34.96875 0-65.730468 19.480469-81.480468 48.59375zm0 0" fill="#edebed"/><path d="m132.664062 361c-2.921874 0-5.808593.148438-8.664062.414062v113.96875c38.542969 23.242188 83.710938 36.617188 132 36.617188 15.734375 0 31.136719-1.421875 46.089844-4.140625l-97.566406-146.859375zm0 0" fill="#fff"/><path d="m256 512c15.734375 0 31.136719-1.421875 46.089844-4.140625l-97.566406-146.859375h-50l100.308593 150.992188c.390625 0 .777344.007812 1.167969.007812zm0 0" fill="#8cb4eb"/></svg>