<svg height="512pt" viewBox="0 0 512 512" width="512pt" xmlns="http://www.w3.org/2000/svg"><path d="m512 256c0 141.386719-114.613281 256-256 256s-256-114.613281-256-256 114.613281-256 256-256 256 114.613281 256 256zm0 0" fill="#8cb4eb"/><path d="m479.351562 223.351562c0 123.351563-100 223.347657-223.351562 223.347657s-223.351562-99.996094-223.351562-223.347657c0-123.355468 100-223.351562 223.351562-223.351562s223.351562 99.996094 223.351562 223.351562zm0 0" fill="#a5cdff"/><path d="m379.335938 361h-246.671876c-34.96875 0-65.730468 19.480469-81.480468 48.59375 46.707031 62.183594 121.0625 102.40625 204.816406 102.40625s158.109375-40.222656 204.816406-102.40625c-15.75-29.113281-46.511718-48.59375-81.480468-48.59375zm0 0" fill="#5a4650"/><path d="m124 475.382812c38.542969 23.242188 83.710938 36.617188 132 36.617188s93.457031-13.375 132-36.617188v-113.96875c-2.855469-.265624-5.742188-.414062-8.664062-.414062h-246.671876c-2.921874 0-5.808593.148438-8.664062.414062zm0 0" fill="#64505a"/><path d="m204.523438 245.980469v118.789062c0 28.429688 23.046874 51.476563 51.476562 51.476563s51.476562-23.046875 51.476562-51.476563v-118.789062zm0 0" fill="#5a4650"/><path d="m204.523438 360.96875c15.96875 6.230469 33.328124 9.660156 51.476562 9.660156s35.507812-3.429687 51.476562-9.660156v-114.988281h-102.953124zm0 0" fill="#5a4650"/><path d="m256 350.628906c-79.527344 0-144-64.472656-144-144v-62.628906c0-79.527344 64.472656-144 144-144s144 64.472656 144 144v62.628906c0 79.527344-64.472656 144-144 144zm0 0" fill="#6e5a64"/><path d="m162 168.75v37.878906c0 51.914063 42.085938 94 94 94s94-42.085937 94-94v-37.878906zm0 0" fill="#ffe1a0"/><path d="m212 206.628906v-37.878906h-50v37.878906c0 51.914063 42.085938 94 94 94 8.65625 0 17.039062-1.179687 25-3.367187-39.777344-10.949219-69-47.378907-69-90.632813zm0 0" fill="#f7d291"/><path d="m405.332031 219.332031h-298.664062c-2.578125 0-4.667969-2.089843-4.667969-4.667969v-40.664062c0-2.578125 2.089844-4.667969 4.667969-4.667969h298.667969c2.574218 0 4.664062 2.089844 4.664062 4.667969v40.667969c0 2.574219-2.089844 4.664062-4.667969 4.664062zm0 0" fill="#8e54bf"/><path d="m133.902344 161.628906v24.046875c0 39.476563 32.003906 71.480469 71.484375 71.480469h23.21875c5.515625 0 10.660156-2.789062 13.671875-7.410156 6.4375-9.878906 20.90625-9.878906 27.339844 0 3.015624 4.621094 8.15625 7.410156 13.671874 7.410156h23.222657c39.476562 0 71.480469-32.003906 71.480469-71.480469v-24.046875c0-5.832031-4.726563-10.558594-10.558594-10.558594h-222.96875c-5.832032 0-10.5625 4.726563-10.5625 10.558594zm0 0" fill="#bd70ff"/><path d="m185.273438 185.675781v-24.046875c0-5.832031 4.726562-10.5625 10.558593-10.5625h-51.367187c-5.832032 0-10.5625 4.730469-10.5625 10.5625v24.046875c0 39.476563 32.003906 71.476563 71.484375 71.476563h23.21875c3.207031 0 6.285156-.945313 8.894531-2.644532-30.121094-8.40625-52.226562-36.03125-52.226562-68.832031zm0 0" fill="#a35bef"/><path d="m284.019531 239.472656c-6.34375-9.289062-16.78125-14.816406-28.070312-14.816406-11.289063 0-21.726563 5.527344-28.070313 14.816406h-22.492187c-29.714844 0-53.800781-24.085937-53.800781-53.796875v-12.679687c0-2.34375 1.902343-4.246094 4.246093-4.246094h200.230469c2.34375 0 4.246094 1.902344 4.246094 4.246094v12.679687c0 29.710938-24.085938 53.796875-53.800782 53.796875zm0 0" fill="#a5cdff"/><path d="m202.953125 185.675781v-12.679687c0-2.34375 1.902344-4.246094 4.246094-4.246094h-51.367188c-2.347656 0-4.246093 1.902344-4.246093 4.246094v12.679687c0 29.710938 24.085937 53.796875 53.800781 53.796875h22.492187c1.421875-2.085937 3.0625-3.96875 4.863282-5.65625-17.65625-8.824218-29.789063-27.0625-29.789063-48.140625zm0 0" fill="#8cb4eb"/><path d="m398.296875 6.96875v319.902344c0 34.269531-27.785156 62.054687-62.054687 62.054687-34.273438 0-62.054688-27.785156-62.054688-62.054687v-19.453125h-36.476562v19.453125c0 54.414062 44.113281 98.53125 98.53125 98.53125 54.417968 0 98.53125-44.113282 98.53125-98.53125v-319.902344c0-3.847656-3.121094-6.96875-6.96875-6.96875h-22.539063c-3.851563 0-6.96875 3.121094-6.96875 6.96875zm0 0" fill="#edebed"/><path d="m415 331.949219v-331.949219h-9.734375c-3.851563 0-6.96875 3.121094-6.96875 6.96875v319.902344c0 34.269531-27.785156 62.054687-62.054687 62.054687-34.273438 0-62.054688-27.785156-62.054688-62.054687v-19.453125h-18.1875v24.53125c0 43.90625 35.59375 79.5 79.5 79.5s79.5-35.589844 79.5-79.5zm0 0" fill="#fff"/><path d="m274 301.683594h-36c-8.835938 0-16-7.160156-16-16 0-8.835938 7.164062-16 16-16h36c8.835938 0 16 7.164062 16 16 0 8.835937-7.164062 16-16 16zm0 0" fill="#8e54bf"/><path d="m284 315.683594h-56c-8.285156 0-15-6.714844-15-15s6.714844-15 15-15h56c8.285156 0 15 6.714844 15 15s-6.714844 15-15 15zm0 0" fill="#bd70ff"/><path d="m253 300.683594c0-8.28125 6.714844-15 15-15h-40c-8.285156 0-15 6.71875-15 15 0 8.285156 6.714844 15 15 15h40c-8.285156 0-15-6.714844-15-15zm0 0" fill="#a35bef"/><path d="m427.804688 0h-22.539063c-3.851563 0-6.96875 3.121094-6.96875 6.96875v112.53125h36.476563v-112.53125c0-3.847656-3.121094-6.96875-6.96875-6.96875zm0 0" fill="#bd70ff"/><path d="m415 0h-9.734375c-3.851563 0-6.96875 3.121094-6.96875 6.96875v112.53125h16.703125zm0 0" fill="#a35bef"/></svg>