<svg height="512pt" viewBox="0 0 512 512" width="512pt" xmlns="http://www.w3.org/2000/svg"><path d="m512 256c0 141.386719-114.613281 256-256 256s-256-114.613281-256-256 114.613281-256 256-256 256 114.613281 256 256zm0 0" fill="#b4f09b"/><path d="m479.351562 223.351562c0 123.351563-100 223.347657-223.351562 223.347657s-223.351562-99.996094-223.351562-223.347657c0-123.355468 100-223.351562 223.351562-223.351562s223.351562 99.996094 223.351562 223.351562zm0 0" fill="#cdf5a0"/><path d="m439.460938 338.355469c-44.988282 0-81.460938-36.46875-81.460938-81.460938v-90.324219c46.765625 0 84.675781 37.910157 84.675781 84.675782v83.898437c0 1.773438-1.441406 3.210938-3.214843 3.210938zm0 0" fill="#dc4655"/><path d="m348.597656 361h-185.195312c-44.058594 0-81.832032 30.300781-91.996094 72.359375 46.582031 48.46875 112.0625 78.640625 184.59375 78.640625s138.011719-30.171875 184.589844-78.640625c-10.164063-42.058594-47.933594-72.359375-91.992188-72.359375zm0 0" fill="#e3aa75"/><path d="m256 512c49.027344 0 94.824219-13.800781 133.75-37.707031v-23.929688c0-7.65625-6.207031-13.863281-13.863281-13.863281-7.660157 0-13.867188-6.207031-13.867188-13.863281v-60.667969c-4.394531-.625-8.871093-.96875-13.421875-.96875h-185.195312c-4.550782 0-9.027344.34375-13.421875.96875v60.667969c0 7.65625-6.207031 13.863281-13.867188 13.863281-7.65625 0-13.863281 6.207031-13.863281 13.863281v23.929688c38.925781 23.90625 84.722656 37.707031 133.75 37.707031zm0 0" fill="#fff"/><path d="m204.523438 245.980469v118.789062c0 28.429688 23.046874 51.476563 51.476562 51.476563s51.476562-23.046875 51.476562-51.476563v-118.789062zm0 0" fill="#e3aa75"/><path d="m204.523438 360.96875c15.96875 6.230469 33.328124 9.660156 51.476562 9.660156s35.507812-3.429687 51.476562-9.660156v-114.988281h-102.953124zm0 0" fill="#d29b6e"/><path d="m388.5 257.84375h-30.5v-89.0625h40.304688c10.875 0 19.695312 8.820312 19.695312 19.699219v39.863281c0 16.292969-13.207031 29.5-29.5 29.5zm0 0" fill="#e3aa75"/><path d="m123.5 257.84375h30.5v-89.0625h-40.304688c-10.875 0-19.695312 8.820312-19.695312 19.699219v39.863281c0 16.292969 13.207031 29.5 29.5 29.5zm0 0" fill="#d29b6e"/><path d="m256 350.628906c-67.378906 0-122-54.621094-122-122v-91.628906c0-67.378906 54.621094-122 122-122s122 54.621094 122 122v91.628906c0 67.378906-54.621094 122-122 122zm0 0" fill="#f5b97d"/><path d="m184 228.628906v-91.628906c0-58.808594 41.613281-107.894531 97-119.429688-8.070312-1.683593-16.429688-2.570312-25-2.570312-67.378906 0-122 54.621094-122 122v91.628906c0 67.378906 54.621094 122 122 122 8.570312 0 16.929688-.890625 25-2.570312-55.386719-11.535156-97-60.621094-97-119.429688zm0 0" fill="#e3aa75"/><path d="m256 5c-72.785156 0-132 59.214844-132 132h264c0-72.785156-59.214844-132-132-132zm0 0" fill="#e6646e"/><path d="m109 182.8125h30v136.460938h-30zm0 0" fill="#fff"/><path d="m109 182.8125h15v136.460938h-15zm0 0" fill="#edebed"/><path d="m414.355469 158.75-18.746094-14.996094c-1.648437-1.320312-2.609375-3.316406-2.609375-5.429687 0-12.441407-1.648438-24.519531-4.730469-36.023438-.363281-1.339843-1.59375-2.265625-2.980469-2.265625h-66.203124c-11.046876 0-20-8.953125-20-20s8.953124-20 20-20h43.773437c2.542969 0 3.984375-2.90625 2.460937-4.945312-24.898437-33.273438-64.335937-54.964844-108.929687-55.089844-45.015625-.125-85.058594 21.574219-110.136719 55.089844-1.527344 2.039062-.085937 4.945312 2.460938 4.945312h44.199218c11.046876 0 20 8.953125 20 20s-8.953124 20-20 20h-66.480468c-1.394532 0-2.628906.933594-2.980469 2.28125-2.902344 11.074219-4.453125 22.691406-4.453125 34.664063 0 2.957031-1.335938 5.753906-3.644531 7.601562l-17.710938 14.167969c-2.304687 1.84375-3.644531 4.632812-3.644531 7.582031v42.238281c0 4.179688 2.675781 7.890626 6.640625 9.210938l40.578125 13.527344c6.289062 2.09375 12.78125-2.585938 12.78125-9.210938v-48.605468c0-5.363282 4.347656-9.710938 9.710938-9.710938h184.578124c5.363282 0 9.710938 4.347656 9.710938 9.710938v48.605468c0 6.625 6.492188 11.304688 12.78125 9.210938l40.578125-13.527344c3.964844-1.320312 6.640625-5.03125 6.640625-9.210938v-42.238281c0-2.949219-1.339844-5.738281-3.644531-7.582031zm0 0" fill="#64505a"/><path d="m148.714844 60.035156h29.007812c21.558594-31.632812 56.003906-53.808594 95.722656-58.914062-5.585937-.71875-11.277343-1.1015628-17.054687-1.121094-45.015625-.125-85.058594 21.574219-110.136719 55.089844-1.527344 2.039062-.085937 4.945312 2.460938 4.945312zm0 0" fill="#5a4650"/><path d="m154 173.492188v-36.492188c0-12.804688 1.769531-25.199219 5.070312-36.964844h-32.636718c-1.394532 0-2.625.933594-2.980469 2.28125-2.898437 11.074219-4.449219 22.691406-4.453125 34.664063 0 2.957031-1.335938 5.753906-3.644531 7.601562l-17.710938 14.167969c-2.300781 1.84375-3.644531 4.632812-3.644531 7.582031v42.238281c0 4.179688 2.675781 7.890626 6.640625 9.210938l40.582031 13.527344c6.285156 2.09375 12.777344-2.585938 12.777344-9.210938zm0 0" fill="#5a4650"/><path d="m256 119.988281c-50.457031 0-122.242188 21.285157-122.242188 36.808594v19.832031c0 2.984375 2.902344 5.121094 5.75 4.214844 13.71875-4.371094 52.121094-14.359375 116.492188-14.359375s102.773438 9.988281 116.492188 14.359375c2.847656.90625 5.75-1.230469 5.75-4.214844v-19.832031c0-15.523437-71.785157-36.808594-122.242188-36.808594zm0 0" fill="#6e5a64"/><path d="m183.757812 130.363281c-28.105468 7.53125-50 17.859375-50 26.433594v19.832031c0 2.984375 2.902344 5.121094 5.75 4.214844 7.429688-2.367188 22.125-6.382812 44.25-9.566406zm0 0" fill="#64505a"/><path d="m142.980469 346.769531h-37.960938c-1.945312 0-3.519531-1.574219-3.519531-3.515625v-47.964844c0-1.941406 1.578125-3.515624 3.519531-3.515624h37.960938c1.945312 0 3.519531 1.574218 3.519531 3.515624v47.964844c0 1.941406-1.574219 3.515625-3.519531 3.515625zm0 0" fill="#64505a"/><path d="m116.5 330.40625v-22.269531c0-.753907.609375-1.363281 1.363281-1.363281h12.273438c.75 0 1.363281.609374 1.363281 1.363281v22.269531c0 .753906-.613281 1.363281-1.363281 1.363281h-12.273438c-.753906 0-1.363281-.609375-1.363281-1.363281zm0 0" fill="#edebed"/></svg>