<svg height="512pt" viewBox="0 0 512 512" width="512pt" xmlns="http://www.w3.org/2000/svg"><path d="m512 256c0 141.386719-114.613281 256-256 256s-256-114.613281-256-256 114.613281-256 256-256 256 114.613281 256 256zm0 0" fill="#36415c"/><path d="m479.351562 223.351562c0 123.351563-100 223.347657-223.351562 223.347657s-223.351562-99.996094-223.351562-223.347657c0-123.355468 100-223.351562 223.351562-223.351562s223.351562 99.996094 223.351562 223.351562zm0 0" fill="#3c4c72"/><path d="m256 419.210938c-75.664062 0-137-61.339844-137-137v-94.890626h274v94.890626c0 75.660156-61.335938 137-137 137zm0 0" fill="#a06e50"/><path d="m348.597656 361h-185.195312c-44.058594 0-81.832032 30.300781-91.996094 72.359375 46.582031 48.46875 112.0625 78.640625 184.59375 78.640625s138.011719-30.171875 184.589844-78.640625c-10.164063-42.058594-47.933594-72.359375-91.992188-72.359375zm0 0" fill="#e6646e"/><path d="m124 475.359375c38.546875 23.25 83.703125 36.640625 132 36.640625s93.453125-13.390625 132-36.640625v-105.765625c-12.046875-5.523438-25.40625-8.59375-39.402344-8.59375h-185.195312c-13.996094 0-27.355469 3.070312-39.402344 8.59375zm0 0" fill="#ff8087"/><path d="m76.136719 419h66.761719c13.3125 0 24.101562 10.789062 24.101562 24.101562 0 13.308594 10.789062 24.097657 24.101562 24.097657h129.796876c13.3125 0 24.101562-10.789063 24.101562-24.097657 0-13.3125 10.789062-24.101562 24.101562-24.101562h66.761719c-14.453125-34.421875-48.410156-58-87.265625-58h-185.195312c-38.855469 0-72.8125 23.578125-87.265625 58zm0 0" fill="#edebed"/><path d="m388 369.601562c-12.046875-5.527343-25.402344-8.601562-39.402344-8.601562h-185.195312c-14 0-27.355469 3.074219-39.402344 8.601562v49.398438h18.898438c13.3125 0 24.101562 10.789062 24.101562 24.101562 0 13.308594 10.789062 24.097657 24.101562 24.097657h129.796876c13.3125 0 24.101562-10.789063 24.101562-24.097657 0-13.3125 10.789062-24.101562 24.101562-24.101562h18.898438zm0 0" fill="#fff"/><path d="m204.523438 248.304688v112.695312c0 28.429688 23.046874 37.332031 51.476562 37.332031s51.476562-8.902343 51.476562-37.332031v-112.695312zm0 0" fill="#e6646e"/><path d="m204.523438 248.304688v112.695312c0 28.429688 23.046874 37.332031 51.476562 37.332031v-150.027343zm0 0" fill="#dc4655"/><path d="m204.523438 360.96875c15.96875 6.230469 33.328124 9.660156 51.476562 9.660156s35.507812-3.429687 51.476562-9.660156v-114.988281h-102.953124zm0 0" fill="#dc4655"/><path d="m388.5 257.84375h-30.5v-89.0625h40.304688c10.875 0 19.695312 8.820312 19.695312 19.699219v39.863281c0 16.292969-13.207031 29.5-29.5 29.5zm0 0" fill="#f7d291"/><path d="m123.5 257.84375h30.5v-89.0625h-40.304688c-10.875 0-19.695312 8.820312-19.695312 19.699219v39.863281c0 16.292969 13.207031 29.5 29.5 29.5zm0 0" fill="#f0c382"/><path d="m256 350.628906c-67.378906 0-122-54.621094-122-122v-91.628906c0-67.378906 54.621094-122 122-122s122 54.621094 122 122v91.628906c0 67.378906-54.621094 122-122 122zm0 0" fill="#ffe1a0"/><path d="m184 228.628906v-91.628906c0-58.808594 41.613281-107.894531 97-119.429688-8.070312-1.683593-16.429688-2.570312-25-2.570312-67.378906 0-122 54.621094-122 122v91.628906c0 67.378906 54.621094 122 122 122 8.570312 0 16.929688-.890625 25-2.570312-55.386719-11.535156-97-60.621094-97-119.429688zm0 0" fill="#f7d291"/><path d="m255.609375 0c-75.726563.210938-136.609375 62.597656-136.609375 138.324219v31.027343h15v43.960938h22.933594c5.28125 0 9.566406-4.285156 9.566406-9.566406v-67.519532c0-5.285156 4.285156-9.570312 9.566406-9.570312h159.867188c5.28125 0 9.566406 4.285156 9.566406 9.570312v67.519532c0 5.28125 4.285156 9.566406 9.566406 9.566406h22.933594v-43.960938h15v-32.351562c0-75.671875-61.667969-137.210938-137.390625-137zm0 0" fill="#b67f5f"/><path d="m166.457031 137c0-67.453125 49.007813-123.675781 113.28125-134.9375-7.835937-1.375-15.898437-2.0859375-24.128906-2.0625-75.726563.210938-136.609375 62.597656-136.609375 138.324219v31.027343h15v43.960938h22.933594c5.003906 0 9.105468-3.84375 9.527344-8.742188v-67.570312zm0 0" fill="#a06e50"/><path d="m393 168.785156v-31.785156c0-75.542969-61.457031-137-137-137s-137 61.457031-137 137v31.785156zm0 0" fill="#e6646e"/><path d="m169 137c0-67.003906 48.355469-122.921875 112-134.707031-8.109375-1.5-16.464844-2.292969-25-2.292969-75.542969 0-137 61.457031-137 137v31.785156h50zm0 0" fill="#dc4655"/><path d="m109 147.777344v13.101562c0 4.363282 3.539062 7.902344 7.90625 7.902344h278.1875c4.367188 0 7.90625-3.539062 7.90625-7.902344v-13.101562c0-11.359375-1.394531-22.394532-4.015625-32.957032-.878906-3.539062-4.039063-6.039062-7.6875-6.039062h-270.59375c-3.648437 0-6.808594 2.5-7.6875 6.039062-2.621094 10.5625-4.015625 21.597657-4.015625 32.957032zm0 0" fill="#64505a"/><path d="m159 160.878906v-13.101562c0-11.355469 1.394531-22.394532 4.015625-32.957032.878906-3.539062 4.039063-6.035156 7.6875-6.035156h-50c-3.644531 0-6.808594 2.496094-7.6875 6.035156-2.617187 10.5625-4.015625 21.597657-4.015625 32.957032v13.101562c0 4.367188 3.539062 7.90625 7.90625 7.90625h50c-4.367188 0-7.90625-3.539062-7.90625-7.90625zm0 0" fill="#5a4650"/><path d="m137.152344 94.671875v23.402344c0 38.429687 31.152344 69.578125 69.578125 69.578125h22.605469c5.367187 0 10.375-2.710938 13.304687-7.210938 6.265625-9.613281 20.347656-9.613281 26.613281 0 2.933594 4.5 7.9375 7.210938 13.308594 7.210938h22.601562c38.425782 0 69.578126-31.148438 69.578126-69.578125v-23.402344c0-5.679687-4.601563-10.28125-10.277344-10.28125h-217.03125c-5.675782 0-10.28125 4.601563-10.28125 10.28125zm0 0" fill="#fff"/><path d="m187.152344 118.074219v-23.402344c0-5.679687 4.605468-10.28125 10.28125-10.28125h-50c-5.675782 0-10.28125 4.601563-10.28125 10.28125v23.402344c0 38.429687 31.152344 69.578125 69.578125 69.578125h22.605469c3.121093 0 6.117187-.921875 8.65625-2.574219-29.320313-8.183594-50.839844-35.070313-50.839844-67.003906zm0 0" fill="#edebed"/><path d="m283.269531 170.441406c-6.171875-9.042968-16.332031-14.421875-27.324219-14.421875-10.984374 0-21.144531 5.378907-27.324218 14.421875h-21.890625c-28.921875 0-52.367188-23.445312-52.367188-52.367187v-12.335938c0-2.285156 1.851563-4.136719 4.132813-4.136719h194.898437c2.285157 0 4.132813 1.851563 4.132813 4.136719v12.335938c0 28.921875-23.441406 52.367187-52.367188 52.367187zm0 0" fill="#a5cdff"/><path d="m204.363281 118.074219v-12.335938c0-2.285156 1.851563-4.136719 4.132813-4.136719h-50c-2.28125 0-4.132813 1.851563-4.132813 4.136719v12.335938c0 28.921875 23.445313 52.367187 52.367188 52.367187h21.894531c1.386719-2.03125 2.980469-3.863281 4.734375-5.503906-17.1875-8.589844-28.996094-26.339844-28.996094-46.863281zm0 0" fill="#8cb4eb"/></svg>