<svg height="512pt" viewBox="0 0 512 512.00054" width="512pt" xmlns="http://www.w3.org/2000/svg"><path d="m512 256c0 141.386719-114.613281 256-256 256-141.382812 0-256-114.613281-256-256 0-141.382812 114.617188-256 256-256 141.386719 0 256 114.617188 256 256zm0 0" fill="#b4f09b"/><path d="m479.351562 223.351562c0 123.351563-100 223.347657-223.351562 223.347657s-223.351562-99.996094-223.351562-223.347657c0-123.355468 100-223.351562 223.351562-223.351562s223.351562 99.996094 223.351562 223.351562zm0 0" fill="#cdf5a0"/><path d="m388.5 257.84375h-30.5v-89.058594h40.304688c10.875 0 19.695312 8.816406 19.695312 19.695313v39.863281c0 16.292969-13.207031 29.5-29.5 29.5zm0 0" fill="#b67f5f"/><path d="m123.5 257.84375h30.5v-89.058594h-40.300781c-10.878907 0-19.699219 8.816406-19.699219 19.695313v39.863281c0 16.292969 13.207031 29.5 29.5 29.5zm0 0" fill="#a06e50"/><path d="m379.335938 361h-246.671876c-34.96875 0-65.730468 19.484375-81.480468 48.59375 46.707031 62.183594 121.0625 102.40625 204.816406 102.40625s158.109375-40.222656 204.816406-102.40625c-15.75-29.109375-46.511718-48.59375-81.480468-48.59375zm0 0" fill="#8e54bf"/><path d="m379.335938 361h-246.671876c-34.96875 0-65.730468 19.484375-81.480468 48.59375 2.402344 3.195312 4.878906 6.328125 7.421875 9.40625h84.292969c13.3125 0 24.101562 10.789062 24.101562 24.101562 0 13.308594 10.789062 24.097657 24.101562 24.097657h129.796876c13.3125 0 24.101562-10.789063 24.101562-24.097657 0-13.3125 10.789062-24.101562 24.101562-24.101562h84.292969c2.542969-3.074219 5.019531-6.210938 7.421875-9.40625-15.75-29.109375-46.511718-48.59375-81.480468-48.59375zm0 0" fill="#8cb4eb"/><path d="m124 475.382812c38.542969 23.242188 83.710938 36.617188 132 36.617188 48.292969 0 93.457031-13.375 132-36.617188v-113.96875c-2.855469-.265624-5.742188-.414062-8.664062-.414062h-246.671876c-2.921874 0-5.808593.148438-8.664062.414062zm0 0" fill="#a35bef"/><path d="m127.96875 361.132812c-1.332031.066407-2.652344.160157-3.96875.28125v57.585938h18.898438c13.3125 0 24.101562 10.789062 24.101562 24.097656 0 13.3125 10.789062 24.101563 24.101562 24.101563h129.796876c13.3125 0 24.101562-10.789063 24.101562-24.101563 0-13.308594 10.789062-24.097656 24.101562-24.097656h18.898438v-57.585938c-1.316406-.121093-2.640625-.214843-3.964844-.285156-.191406-.007812-.382812-.019531-.574218-.027344-1.367188-.0625-2.742188-.101562-4.121094-.101562h-246.675782c-1.382812 0-2.753906.035156-4.121093.101562-.191407.007813-.382813.019532-.574219.03125zm0 0" fill="#a5cdff"/><path d="m204.523438 248.304688v112.695312c0 28.429688 23.046874 37.332031 51.476562 37.332031s51.476562-8.902343 51.476562-37.332031v-112.695312zm0 0" fill="#a35bef"/><path d="m204.523438 248.304688v112.695312c0 28.429688 23.046874 37.332031 51.476562 37.332031v-150.027343zm0 0" fill="#8e54bf"/><path d="m204.523438 360.96875c15.96875 6.230469 33.328124 9.660156 51.476562 9.660156s35.507812-3.429687 51.476562-9.660156v-114.988281h-102.953124zm0 0" fill="#dc4655"/><path d="m204.523438 360.96875c15.96875 6.230469 33.328124 9.660156 51.476562 9.660156s35.507812-3.429687 51.476562-9.660156v-114.988281h-102.953124zm0 0" fill="#8e54bf"/><path d="m256 350.625c-67.378906 0-122-54.621094-122-122v-91.625c0-67.378906 54.621094-122 122-122s122 54.621094 122 122v91.625c0 67.378906-54.621094 122-122 122zm0 0" fill="#cd916e"/><path d="m184 228.628906v-91.628906c0-58.808594 41.613281-107.894531 97-119.429688-8.070312-1.683593-16.429688-2.570312-25-2.570312-67.378906 0-122 54.621094-122 122v91.628906c0 67.378906 54.621094 122 122 122 8.570312 0 16.929688-.886718 25-2.570312-55.386719-11.535156-97-60.621094-97-119.429688zm0 0" fill="#b67f5f"/><path d="m133.902344 161.628906v24.046875c0 39.476563 32.003906 71.480469 71.484375 71.480469h23.21875c5.515625 0 10.660156-2.789062 13.671875-7.410156 6.4375-9.878906 20.90625-9.878906 27.34375 0 3.011718 4.621094 8.152344 7.410156 13.667968 7.410156h23.222657c39.476562 0 71.480469-32.003906 71.480469-71.480469v-24.046875c0-5.832031-4.726563-10.558594-10.558594-10.558594h-222.96875c-5.832032 0-10.5625 4.726563-10.5625 10.558594zm0 0" fill="#fff"/><path d="m185.273438 185.675781v-24.046875c0-5.832031 4.726562-10.558594 10.558593-10.558594h-51.367187c-5.832032 0-10.5625 4.726563-10.5625 10.558594v24.046875c0 39.476563 32.003906 71.480469 71.484375 71.480469h23.21875c3.207031 0 6.285156-.949219 8.894531-2.648438-30.121094-8.40625-52.226562-36.027343-52.226562-68.832031zm0 0" fill="#edebed"/><path d="m284.019531 239.472656c-6.34375-9.292968-16.78125-14.816406-28.070312-14.816406-11.289063 0-21.726563 5.523438-28.070313 14.816406h-22.492187c-29.714844 0-53.800781-24.085937-53.800781-53.800781v-12.675781c0-2.34375 1.902343-4.246094 4.246093-4.246094h200.230469c2.347656 0 4.246094 1.902344 4.246094 4.246094v12.675781c0 29.714844-24.085938 53.800781-53.800782 53.800781zm0 0" fill="#a5cdff"/><path d="m202.953125 185.675781v-12.679687c0-2.34375 1.902344-4.246094 4.246094-4.246094h-51.367188c-2.347656 0-4.246093 1.902344-4.246093 4.246094v12.679687c0 29.710938 24.085937 53.796875 53.800781 53.796875h22.492187c1.421875-2.085937 3.0625-3.96875 4.863282-5.65625-17.65625-8.824218-29.789063-27.0625-29.789063-48.140625zm0 0" fill="#8cb4eb"/><path d="m398.984375 114.820312c-.878906-3.539062-4.039063-6.035156-7.6875-6.035156h-135.296875v60h139.09375c4.367188 0 7.90625-3.539062 7.90625-7.90625v-13.101562c0-11.359375-1.394531-22.394532-4.015625-32.957032zm0 0" fill="#a35bef"/><path d="m390.082031 108.78125c-13.070312-62.171875-68.433593-108.960938-134.472656-108.78125-75.730469.210938-136.609375 62.597656-136.609375 138.332031v31.019531h15v37.148438h82.003906c56.285156 0 102.554688-42.859375 107.964844-97.71875zm0 0" fill="#ffd164"/><path d="m169 206.5v-69.5c0-67.003906 48.355469-122.917969 111.996094-134.707031-8.230469-1.523438-16.714844-2.3164065-25.386719-2.292969-75.730469.210938-136.609375 62.597656-136.609375 138.332031v31.019531h15v37.148438zm0 0" fill="#ffc350"/></svg>