<svg height="512pt" viewBox="0 0 512 512" width="512pt" xmlns="http://www.w3.org/2000/svg"><path d="m512 256c0 141.386719-114.613281 256-256 256s-256-114.613281-256-256 114.613281-256 256-256 256 114.613281 256 256zm0 0" fill="#a35bef"/><path d="m479.351562 223.351562c0 123.351563-100 223.347657-223.351562 223.347657s-223.351562-99.996094-223.351562-223.347657c0-123.355468 100-223.351562 223.351562-223.351562s223.351562 99.996094 223.351562 223.351562zm0 0" fill="#bd70ff"/><path d="m379.335938 361h-246.671876c-34.96875 0-65.730468 19.480469-81.480468 48.59375 46.707031 62.183594 121.0625 102.40625 204.816406 102.40625s158.109375-40.222656 204.816406-102.40625c-15.75-29.113281-46.511718-48.59375-81.480468-48.59375zm0 0" fill="#64505a"/><path d="m124 475.382812c38.542969 23.242188 83.710938 36.617188 132 36.617188s93.457031-13.375 132-36.617188v-113.96875c-2.855469-.265624-5.742188-.414062-8.664062-.414062h-246.671876c-2.921874 0-5.808593.148438-8.664062.414062zm0 0" fill="#fff"/><path d="m231 510.777344c8.226562.796875 16.5625 1.222656 25 1.222656s16.773438-.425781 25-1.222656v-149.777344h-50zm0 0" fill="#dc4655"/><path d="m256 512c8.4375 0 16.773438-.425781 25-1.222656v-149.777344h-25zm0 0" fill="#e6646e"/><path d="m204.523438 248.304688v112.695312c0 28.429688 23.046874 37.332031 51.476562 37.332031s51.476562-8.902343 51.476562-37.332031v-112.695312zm0 0" fill="#6e5a64"/><path d="m204.523438 248.304688v112.695312c0 28.429688 23.046874 37.332031 51.476562 37.332031v-150.027343zm0 0" fill="#64505a"/><path d="m204.523438 361c0 3.5.355468 6.699219 1.019531 9.628906h100.914062c.664063-2.929687 1.019531-6.128906 1.019531-9.628906v-112.695312h-102.953124zm0 0" fill="#64505a"/><path d="m293.1875 350.628906h-74.375c-58.992188 0-106.8125-47.824218-106.8125-106.816406v-99.8125c0-79.527344 64.472656-144 144-144s144 64.472656 144 144v99.8125c0 58.992188-47.820312 106.816406-106.8125 106.816406zm0 0" fill="#fff"/><path d="m162 243.8125v-99.8125c0-71.003906 51.386719-129.996094 119-141.832031-8.121094-1.421875-16.472656-2.167969-25-2.167969-79.527344 0-144 64.472656-144 144v99.8125c0 58.992188 47.820312 106.816406 106.8125 106.816406h50c-58.992188 0-106.8125-47.824218-106.8125-106.816406zm0 0" fill="#edebed"/><path d="m140.492188 58h22.40625c13.3125 0 24.101562 10.789062 24.101562 24.101562 0 13.308594 10.789062 24.097657 24.101562 24.097657h89.796876c13.3125 0 24.101562-10.789063 24.101562-24.097657 0-13.3125 10.789062-24.101562 24.101562-24.101562h22.40625c-26.253906-35.203125-68.21875-58-115.507812-58s-89.253906 22.796875-115.507812 58zm0 0" fill="#6e5a64"/><path d="m183.089844 68.945312c21.152344-34.566406 56.476562-59.519531 97.890625-66.773437-8.113281-1.421875-16.457031-2.171875-24.980469-2.171875-47.289062 0-89.253906 22.796875-115.507812 58h22.40625c8.457031 0 15.886718 4.355469 20.191406 10.945312zm0 0" fill="#64505a"/><path d="m310.394531 281.382812c-10.546875 0-20.820312-3.015624-29.699219-8.714843-7.382812-4.738281-15.921874-7.242188-24.695312-7.242188s-17.3125 2.503907-24.691406 7.242188c-8.882813 5.699219-19.152344 8.714843-29.703125 8.714843-32.867188 0-59.605469-26.738281-59.605469-59.605468v-76.53125h228v76.53125c0 32.867187-26.738281 59.605468-59.605469 59.605468zm0 0" fill="#6e5a64"/><path d="m192 221.777344v-76.53125h-50v76.53125c0 32.863281 26.738281 59.605468 59.605469 59.605468 8.539062 0 16.894531-1.976562 24.480469-5.753906-20.132813-9.578125-34.085938-30.113281-34.085938-53.851562zm0 0" fill="#64505a"/><path d="m310.394531 261.382812c-6.710937 0-13.246093-1.917968-18.894531-5.542968-10.613281-6.816406-22.890625-10.414063-35.5-10.414063s-24.886719 3.597657-35.5 10.414063c-5.648438 3.625-12.183594 5.542968-18.894531 5.542968-21.839844 0-39.605469-17.769531-39.605469-39.605468v-56.53125h188v56.53125c0 21.835937-17.765625 39.605468-39.605469 39.605468zm0 0" fill="#a5cdff"/><path d="m212 221.777344v-56.53125h-50v56.53125c0 21.835937 17.765625 39.605468 39.605469 39.605468 6.710937 0 13.246093-1.917968 18.894531-5.542968 1.957031-1.257813 3.96875-2.402344 6.027344-3.433594-8.863282-7.269531-14.527344-18.300781-14.527344-30.628906zm0 0" fill="#8cb4eb"/><path d="m256 115.683594c-54.359375 0-131.703125 22.933594-131.703125 39.65625v21.363281c0 3.21875 3.128906 5.519531 6.195313 4.542969 14.78125-4.707032 56.152343-15.46875 125.507812-15.46875s110.726562 10.761718 125.507812 15.46875c3.066407.976562 6.195313-1.324219 6.195313-4.542969v-21.363281c0-16.722656-77.34375-39.65625-131.703125-39.65625zm0 0" fill="#e6646e"/><path d="m174.296875 127.925781c-28.394531 8.003907-50 18.578125-50 27.414063v21.367187c0 3.21875 3.128906 5.519531 6.195313 4.539063 7.566406-2.40625 22.117187-6.402344 43.804687-9.730469zm0 0" fill="#dc4655"/></svg>