<svg height="512pt" viewBox="0 0 512 512" width="512pt" xmlns="http://www.w3.org/2000/svg"><path d="m512 256c0 141.386719-114.613281 256-256 256s-256-114.613281-256-256 114.613281-256 256-256 256 114.613281 256 256zm0 0" fill="#e6646e"/><path d="m479.351562 223.351562c0 123.351563-100 223.347657-223.351562 223.347657s-223.351562-99.996094-223.351562-223.347657c0-123.355468 100-223.351562 223.351562-223.351562s223.351562 99.996094 223.351562 223.351562zm0 0" fill="#ff8087"/><path d="m427.125 338.355469c-44.992188 0-81.460938-36.46875-81.460938-81.460938v-90.324219c46.761719 0 84.671876 37.910157 84.671876 84.675782v83.898437c0 1.773438-1.4375 3.210938-3.210938 3.210938zm0 0" fill="#ffc350"/><path d="m348.597656 361h-185.195312c-44.058594 0-81.832032 30.300781-91.996094 72.359375 46.582031 48.46875 112.0625 78.640625 184.59375 78.640625s138.011719-30.171875 184.589844-78.640625c-10.164063-42.058594-47.933594-72.359375-91.992188-72.359375zm0 0" fill="#a5cdff"/><path d="m124 475.359375c38.546875 23.25 83.703125 36.640625 132 36.640625s93.453125-13.390625 132-36.640625v-105.765625c-12.046875-5.523438-25.40625-8.59375-39.402344-8.59375h-185.195312c-13.996094 0-27.355469 3.070312-39.402344 8.59375zm0 0" fill="#6e5a64"/><path d="m204.523438 248.304688v112.695312c0 28.429688 23.046874 37.332031 51.476562 37.332031s51.476562-8.902343 51.476562-37.332031v-112.695312zm0 0" fill="#bd70ff"/><path d="m204.523438 248.304688v112.695312c0 28.429688 23.046874 37.332031 51.476562 37.332031v-150.027343zm0 0" fill="#a35bef"/><path d="m204.523438 360.96875c15.96875 6.230469 33.328124 9.660156 51.476562 9.660156s35.507812-3.429687 51.476562-9.660156v-114.988281h-102.953124zm0 0" fill="#a35bef"/><path d="m388.5 257.84375h-30.5v-89.0625h40.304688c10.875 0 19.695312 8.820312 19.695312 19.699219v39.863281c0 16.292969-13.207031 29.5-29.5 29.5zm0 0" fill="#f7d291"/><path d="m123.5 257.84375h30.5v-89.0625h-40.304688c-10.875 0-19.695312 8.820312-19.695312 19.699219v39.863281c0 16.292969 13.207031 29.5 29.5 29.5zm0 0" fill="#f0c382"/><path d="m256 350.628906c-67.378906 0-122-54.621094-122-122v-91.628906c0-67.378906 54.621094-122 122-122s122 54.621094 122 122v91.628906c0 67.378906-54.621094 122-122 122zm0 0" fill="#ffe1a0"/><path d="m184 228.628906v-91.628906c0-58.808594 41.613281-107.894531 97-119.429688-8.070312-1.683593-16.429688-2.570312-25-2.570312-67.378906 0-122 54.621094-122 122v91.628906c0 67.378906 54.621094 122 122 122 8.570312 0 16.929688-.890625 25-2.570312-55.386719-11.535156-97-60.621094-97-119.429688zm0 0" fill="#f7d291"/><path d="m256 5c-72.785156 0-132 59.214844-132 132v31.785156h10s100.804688-4.125 122-79.761718c21.195312 75.636718 122 79.761718 122 79.761718h10v-31.785156c0-72.785156-59.214844-132-132-132zm0 0" fill="#ffd164"/><path d="m385.902344 113.5c-11.117188-61.613281-65.136719-108.5-129.902344-108.5s-118.785156 46.886719-129.902344 108.5zm0 0" fill="#8e54bf"/><path d="m330.792969 95.394531c-7.8125 7.8125-20.476563 7.8125-28.285157 0-7.808593-7.808593-7.808593-20.472656 0-28.28125l36.070313-36.074219c1.414063-1.410156 1.199219-3.753906-.4375-4.898437-17.234375-12.027344-37.164063-20.449219-58.378906-24.101563-1.964844-.335937-3.761719 1.167969-3.761719 3.15625v46.824219c0 10.847657-8.433594 20.082031-19.269531 20.46875-11.378907.402344-20.730469-8.699219-20.730469-19.988281v-47.304688c0-1.988281-1.796875-3.492187-3.761719-3.15625-21.214843 3.652344-41.144531 12.074219-58.378906 24.101563-1.636719 1.140625-1.851563 3.488281-.4375 4.898437l36.070313 36.070313c7.8125 7.8125 7.8125 20.476563 0 28.285156-7.808594 7.808594-20.472657 7.808594-28.28125 0l-36.488282-36.484375c-1.390625-1.394531-3.695312-1.207031-4.859375.386719-15.21875 20.789063-24.695312 45.722656-25.761719 72.617187-.109374 2.777344 2.144532 5.085938 4.925782 5.085938h49.5c8.777344 0 15.890625 7.113281 15.890625 15.890625s7.113281 15.890625 15.890625 15.890625h111.382812c8.777344 0 15.894532-7.113281 15.894532-15.890625s7.113281-15.890625 15.890624-15.890625h49.5c2.78125 0 5.035157-2.308594 4.925782-5.085938-1.066406-26.894531-10.542969-51.828124-25.761719-72.617187-1.164063-1.59375-3.46875-1.78125-4.863281-.386719zm0 0" fill="#bd70ff"/><path d="m196.777344 54.398438c10.671875-14.074219 23.996094-26.03125 39.222656-35.121094v-14.082032c0-1.988281-1.796875-3.492187-3.761719-3.15625-21.214843 3.652344-41.144531 12.074219-58.378906 24.101563-1.636719 1.140625-1.851563 3.488281-.4375 4.898437zm0 0" fill="#a35bef"/><path d="m169 137c0-16.089844 2.796875-31.539062 7.917969-45.894531l-32.195313-32.195313c-1.394531-1.390625-3.695312-1.203125-4.859375.386719-15.21875 20.789063-24.699219 45.722656-25.761719 72.617187-.109374 2.78125 2.140626 5.085938 4.925782 5.085938h49.496094c.160156 0 .316406.019531.476562.023438zm0 0" fill="#a35bef"/><path d="m280.609375 157.023438h-49.222656c-2.976563 0-5.386719-2.414063-5.386719-5.386719v-29.226563c0-2.972656 2.410156-5.386718 5.386719-5.386718h49.222656c2.976563 0 5.390625 2.414062 5.390625 5.386718v29.226563c0 2.972656-2.414062 5.386719-5.390625 5.386719zm0 0" fill="#fff"/><path d="m256 151.636719v-29.226563c0-2.972656 2.414062-5.386718 5.390625-5.386718h-30c-2.976563 0-5.390625 2.414062-5.390625 5.386718v29.226563c0 2.972656 2.414062 5.386719 5.390625 5.386719h30c-2.976563 0-5.390625-2.414063-5.390625-5.386719zm0 0" fill="#edebed"/></svg>