<svg height="512pt" viewBox="0 0 512 512" width="512pt" xmlns="http://www.w3.org/2000/svg"><path d="m512 256c0 141.386719-114.613281 256-256 256s-256-114.613281-256-256 114.613281-256 256-256 256 114.613281 256 256zm0 0" fill="#e6646e"/><path d="m479.351562 223.351562c0 123.351563-100 223.347657-223.351562 223.347657s-223.351562-99.996094-223.351562-223.347657c0-123.355468 100-223.351562 223.351562-223.351562s223.351562 99.996094 223.351562 223.351562zm0 0" fill="#ff8087"/><path d="m379.335938 361h-246.671876c-34.96875 0-65.730468 19.480469-81.480468 48.59375 46.707031 62.183594 121.0625 102.40625 204.816406 102.40625s158.109375-40.222656 204.816406-102.40625c-15.75-29.113281-46.511718-48.59375-81.480468-48.59375zm0 0" fill="#edebed"/><path d="m124 475.382812c38.542969 23.242188 83.710938 36.617188 132 36.617188s93.457031-13.375 132-36.617188v-113.96875c-2.855469-.265624-5.742188-.414062-8.664062-.414062h-246.671876c-2.921874 0-5.808593.148438-8.664062.414062zm0 0" fill="#fff"/><path d="m231 510.777344c8.226562.796875 16.5625 1.222656 25 1.222656s16.773438-.425781 25-1.222656v-149.777344h-50zm0 0" fill="#edebed"/><path d="m256 512c8.4375 0 16.773438-.425781 25-1.222656v-149.777344h-25zm0 0" fill="#dbd9dc"/><path d="m204.523438 248.304688v112.695312c0 28.429688 23.046874 37.332031 51.476562 37.332031s51.476562-8.902343 51.476562-37.332031v-112.695312zm0 0" fill="#edebed"/><path d="m204.523438 361c0 3.5.355468 6.699219 1.019531 9.628906h100.914062c.664063-2.929687 1.019531-6.128906 1.019531-9.628906v-112.695312h-102.953124zm0 0" fill="#dbd9dc"/><path d="m204.523438 248.304688v112.695312c0 28.429688 23.046874 37.332031 51.476562 37.332031v-150.027343zm0 0" fill="#dbd9dc"/><path d="m293.1875 350.628906h-74.375c-58.992188 0-106.8125-47.824218-106.8125-106.816406v-99.8125c0-79.527344 64.472656-144 144-144s144 64.472656 144 144v99.8125c0 58.992188-47.820312 106.816406-106.8125 106.816406zm0 0" fill="#fff"/><path d="m162 243.8125v-99.8125c0-71.003906 51.386719-129.996094 119-141.832031-8.121094-1.421875-16.472656-2.167969-25-2.167969-79.527344 0-144 64.472656-144 144v99.8125c0 58.992188 47.820312 106.816406 106.8125 106.816406h50c-58.992188 0-106.8125-47.824218-106.8125-106.816406zm0 0" fill="#edebed"/><path d="m256 300.628906c-51.914062 0-94-42.085937-94-94v-61.332031c0-52.785156 42.917969-96.21875 95.691406-95.28125 51.054688.90625 92.308594 42.71875 92.308594 93.984375v62.628906c0 51.914063-42.085938 94-94 94zm0 0" fill="#6e5a64"/><path d="m212 206.628906v-61.332031c0-43.558594 29.230469-80.746094 69.105469-91.890625-7.476563-2.074219-15.320313-3.246094-23.414063-3.390625-52.773437-.9375-95.691406 42.496094-95.691406 95.28125v61.332031c0 51.914063 42.085938 94 94 94 8.65625 0 17.039062-1.179687 25-3.367187-39.777344-10.949219-69-47.378907-69-90.632813zm0 0" fill="#64505a"/></svg>