<svg height="512pt" viewBox="0 0 512 512" width="512pt" xmlns="http://www.w3.org/2000/svg"><path d="m512 256c0 141.386719-114.613281 256-256 256s-256-114.613281-256-256 114.613281-256 256-256 256 114.613281 256 256zm0 0" fill="#36415c"/><path d="m479.351562 223.351562c0 123.351563-100 223.347657-223.351562 223.347657s-223.351562-99.996094-223.351562-223.347657c0-123.355468 100-223.351562 223.351562-223.351562s223.351562 99.996094 223.351562 223.351562zm0 0" fill="#3c4c72"/><path d="m94.699219 340.714844-23.921875-23.925782c-3.15625-3.15625-3.15625-8.273437 0-11.429687l97.574218-97.578125c1.289063-1.289062 3.378907-1.289062 4.667969 0l30.691407 30.691406c1.285156 1.289063 1.285156 3.375 0 4.664063l-97.578126 97.578125c-3.15625 3.15625-8.273437 3.15625-11.433593 0zm0 0" fill="#dbd9dc"/><path d="m441.222656 316.789062-23.921875 23.925782c-3.15625 3.15625-8.277343 3.15625-11.433593 0l-97.578126-97.574219c-1.285156-1.289063-1.285156-3.378906 0-4.667969l30.691407-30.691406c1.289062-1.289062 3.378906-1.289062 4.667969 0l97.574218 97.578125c3.15625 3.15625 3.15625 8.273437 0 11.429687zm0 0" fill="#dbd9dc"/><path d="m379.335938 361h-246.671876c-34.96875 0-65.730468 19.480469-81.480468 48.59375 46.707031 62.183594 121.0625 102.40625 204.816406 102.40625s158.109375-40.222656 204.816406-102.40625c-15.75-29.113281-46.511718-48.59375-81.480468-48.59375zm0 0" fill="#e3aa75"/><path d="m204.523438 245.980469v118.789062c0 28.429688 23.046874 51.476563 51.476562 51.476563s51.476562-23.046875 51.476562-51.476563v-118.789062zm0 0" fill="#e3aa75"/><path d="m204.523438 360.96875c15.96875 6.230469 33.328124 9.660156 51.476562 9.660156s35.507812-3.429687 51.476562-9.660156v-114.988281h-102.953124zm0 0" fill="#d29b6e"/><path d="m388.5 257.84375h-30.5v-89.0625h40.304688c10.875 0 19.695312 8.820312 19.695312 19.699219v39.863281c0 16.292969-13.207031 29.5-29.5 29.5zm0 0" fill="#e3aa75"/><path d="m123.5 257.84375h30.5v-89.0625h-40.304688c-10.875 0-19.695312 8.820312-19.695312 19.699219v39.863281c0 16.292969 13.207031 29.5 29.5 29.5zm0 0" fill="#d29b6e"/><path d="m256 350.628906c-67.378906 0-122-54.621094-122-122v-91.628906c0-67.378906 54.621094-122 122-122s122 54.621094 122 122v91.628906c0 67.378906-54.621094 122-122 122zm0 0" fill="#f5b97d"/><path d="m184 228.628906v-91.628906c0-58.808594 41.613281-107.894531 97-119.429688-8.070312-1.683593-16.429688-2.570312-25-2.570312-67.378906 0-122 54.621094-122 122v91.628906c0 67.378906 54.621094 122 122 122 8.570312 0 16.929688-.890625 25-2.570312-55.386719-11.535156-97-60.621094-97-119.429688zm0 0" fill="#e3aa75"/><path d="m119 137c0-75.542969 61.457031-137 137-137s137 61.457031 137 137zm0 0" fill="#f5b97d"/><path d="m288.5 3.90625c-10.421875-2.546875-21.304688-3.90625-32.5-3.90625-75.542969 0-137 61.457031-137 137h65c0-64.347656 44.59375-118.464844 104.5-133.09375zm0 0" fill="#e3aa75"/><path d="m403 147.78125v13.097656c0 4.359375-3.539062 7.902344-7.898438 7.902344h-278.203124c-4.359376 0-7.898438-3.542969-7.898438-7.902344v-13.097656c0-11.359375 1.398438-22.402344 4.019531-32.960938.878907-3.539062 4.039063-6.039062 7.679688-6.039062h270.601562c3.640625 0 6.800781 2.5 7.679688 6.039062 2.621093 10.558594 4.019531 21.601563 4.019531 32.960938zm0 0" fill="#fff"/><g fill="#edebed"><path d="m159 160.878906v-13.101562c0-11.355469 1.394531-22.394532 4.015625-32.957032.878906-3.539062 4.039063-6.035156 7.6875-6.035156h-50c-3.644531 0-6.808594 2.496094-7.6875 6.035156-2.617187 10.5625-4.015625 21.597657-4.015625 32.957032v13.101562c0 4.367188 3.539062 7.90625 7.90625 7.90625h50c-4.367188 0-7.90625-3.539062-7.90625-7.90625zm0 0"/><path d="m168.710938 168.78125h-15.410157l-14.121093-60h15.410156zm0 0"/><path d="m218.820312 168.78125h-15.421874l-14.117188-60h15.417969zm0 0"/><path d="m268.921875 168.78125h-15.410156l-14.121094-60h15.410156zm0 0"/><path d="m319.03125 168.78125h-15.410156l-14.121094-60h15.410156zm0 0"/><path d="m369.140625 168.78125h-15.410156l-14.121094-60h15.410156zm0 0"/></g></svg>