<svg height="512pt" viewBox="0 0 512 512.00054" width="512pt" xmlns="http://www.w3.org/2000/svg"><path d="m512 256c0 141.386719-114.613281 256-256 256-141.382812 0-256-114.613281-256-256 0-141.382812 114.617188-256 256-256 141.386719 0 256 114.617188 256 256zm0 0" fill="#b4f09b"/><path d="m479.351562 223.351562c0 123.351563-100 223.347657-223.351562 223.347657s-223.351562-99.996094-223.351562-223.347657c0-123.355468 100-223.351562 223.351562-223.351562s223.351562 99.996094 223.351562 223.351562zm0 0" fill="#cdf5a0"/><path d="m256 419.210938c-75.664062 0-137-61.339844-137-137v-94.890626h274v94.890626c0 75.660156-61.335938 137-137 137zm0 0" fill="#5a4650"/><path d="m94.703125 340.714844-23.925781-23.925782c-3.15625-3.15625-3.15625-8.273437 0-11.429687l97.574218-97.578125c1.289063-1.289062 3.378907-1.289062 4.667969 0l30.691407 30.691406c1.289062 1.289063 1.289062 3.375 0 4.664063l-97.578126 97.578125c-3.15625 3.15625-8.273437 3.15625-11.429687 0zm0 0" fill="#dbd9dc"/><path d="m441.222656 316.789062-23.921875 23.925782c-3.15625 3.15625-8.277343 3.15625-11.433593 0l-97.574219-97.578125c-1.289063-1.289063-1.289063-3.375 0-4.664063l30.6875-30.691406c1.289062-1.289062 3.378906-1.289062 4.667969 0l97.574218 97.578125c3.15625 3.15625 3.15625 8.273437 0 11.429687zm0 0" fill="#dbd9dc"/><path d="m348.597656 361h-185.191406c-44.058594 0-81.832031 30.300781-91.996094 72.363281 46.582032 48.464844 112.058594 78.636719 184.589844 78.636719s138.011719-30.171875 184.589844-78.640625c-10.164063-42.058594-47.933594-72.359375-91.992188-72.359375zm0 0" fill="#e3aa75"/><path d="m256 512c53.292969 0 102.769531-16.304688 143.75-44.171875v-17.464844c0-7.65625-6.207031-13.863281-13.863281-13.863281-7.660157 0-13.867188-6.207031-13.867188-13.867188v-58.691406c-7.511719-1.917968-15.359375-2.941406-23.421875-2.941406h-185.191406c-8.0625 0-15.914062 1.023438-23.425781 2.941406v58.691406c0 7.660157-6.207031 13.867188-13.863281 13.867188-7.660157 0-13.867188 6.207031-13.867188 13.863281v17.464844c40.980469 27.867187 90.457031 44.171875 143.75 44.171875zm0 0" fill="#fff"/><path d="m256 474.507812c-41.984375 0-76.019531-34.035156-76.019531-76.015624v-37.492188h152.039062v37.492188c0 41.980468-34.035156 76.015624-76.019531 76.015624zm0 0" fill="#e3aa75"/><path d="m204.523438 245.980469v118.792969c0 28.425781 23.046874 51.472656 51.476562 51.472656s51.476562-23.046875 51.476562-51.472656v-118.792969zm0 0" fill="#e3aa75"/><path d="m204.523438 360.96875c15.96875 6.230469 33.328124 9.660156 51.476562 9.660156s35.507812-3.429687 51.476562-9.660156v-114.988281h-102.953124zm0 0" fill="#d29b6e"/><path d="m388.5 257.84375h-30.5v-89.058594h40.304688c10.875 0 19.695312 8.816406 19.695312 19.695313v39.863281c0 16.292969-13.207031 29.5-29.5 29.5zm0 0" fill="#e3aa75"/><path d="m123.5 257.84375h30.5v-89.058594h-40.300781c-10.878907 0-19.699219 8.816406-19.699219 19.695313v39.863281c0 16.292969 13.207031 29.5 29.5 29.5zm0 0" fill="#d29b6e"/><path d="m256 350.625c-67.378906 0-122-54.621094-122-122v-91.625c0-67.378906 54.621094-122 122-122s122 54.621094 122 122v91.625c0 67.378906-54.621094 122-122 122zm0 0" fill="#f5b97d"/><path d="m184 228.628906v-91.628906c0-58.808594 41.613281-107.894531 97-119.429688-8.070312-1.683593-16.429688-2.570312-25-2.570312-67.378906 0-122 54.621094-122 122v91.628906c0 67.378906 54.621094 122 122 122 8.570312 0 16.929688-.886718 25-2.570312-55.386719-11.535156-97-60.621094-97-119.429688zm0 0" fill="#e3aa75"/><path d="m398.984375 114.820312c-.878906-3.539062-4.039063-6.035156-7.6875-6.035156h-135.296875v60h139.09375c4.367188 0 7.90625-3.539062 7.90625-7.90625v-13.101562c0-11.359375-1.394531-22.394532-4.015625-32.957032zm0 0" fill="#fff"/><path d="m369.140625 168.78125h-15.410156l-14.121094-60h15.410156zm0 0" fill="#edebed"/><path d="m390.082031 108.78125c-13.070312-62.171875-68.433593-108.960938-134.472656-108.78125-75.730469.210938-136.609375 62.597656-136.609375 138.332031v31.019531h15v37.148438h82.003906c56.285156 0 102.554688-42.859375 107.964844-97.71875zm0 0" fill="#6e5a64"/><path d="m169 206.5v-69.5c0-67.003906 48.355469-122.917969 111.996094-134.707031-8.230469-1.523438-16.714844-2.3164065-25.386719-2.292969-75.730469.210938-136.609375 62.597656-136.609375 138.332031v31.019531h15v37.148438zm0 0" fill="#64505a"/></svg>