<svg height="512pt" viewBox="0 0 512 512" width="512pt" xmlns="http://www.w3.org/2000/svg"><path d="m348.597656 361h-185.195312c-44.058594 0-81.832032 30.300781-91.996094 72.359375 46.582031 48.46875 112.0625 78.640625 184.59375 78.640625s138.011719-30.171875 184.589844-78.640625c-10.164063-42.058594-47.933594-72.359375-91.992188-72.359375zm0 0" fill="#f7d291"/><path d="m512 256c0 141.386719-114.613281 256-256 256s-256-114.613281-256-256 114.613281-256 256-256 256 114.613281 256 256zm0 0" fill="#e6646e"/><path d="m479.351562 223.351562c0 123.351563-100 223.347657-223.351562 223.347657s-223.351562-99.996094-223.351562-223.347657c0-123.355468 100-223.351562 223.351562-223.351562s223.351562 99.996094 223.351562 223.351562zm0 0" fill="#ff8087"/><path d="m156.335938 76.5h-3.210938c-44.992188 0-81.460938 36.472656-81.460938 81.460938v180.394531c46.761719 0 84.671876-37.910157 84.671876-84.671875zm0 0" fill="#5a4650"/><path d="m355.664062 76.5h3.210938c44.992188 0 81.460938 36.472656 81.460938 81.460938v180.394531c-46.761719 0-84.671876-37.910157-84.671876-84.671875zm0 0" fill="#64505a"/><path d="m348.597656 361h-185.195312c-44.058594 0-81.832032 30.300781-91.996094 72.359375 46.582031 48.46875 112.0625 78.640625 184.59375 78.640625s138.011719-30.171875 184.589844-78.640625c-10.164063-42.058594-47.933594-72.359375-91.992188-72.359375zm0 0" fill="#f7d291"/><path d="m256 512c49.027344 0 94.824219-13.800781 133.75-37.707031v-23.929688c0-7.65625-6.207031-13.863281-13.863281-13.863281-7.660157 0-13.867188-6.207031-13.867188-13.863281v-60.667969c-4.394531-.625-8.871093-.96875-13.421875-.96875h-185.195312c-4.550782 0-9.027344.34375-13.421875.96875v60.667969c0 7.65625-6.207031 13.863281-13.867188 13.863281-7.65625 0-13.863281 6.207031-13.863281 13.863281v23.929688c38.925781 23.90625 84.722656 37.707031 133.75 37.707031zm0 0" fill="#8cb4eb"/><path d="m204.523438 245.980469v115.019531l51.476562 77.5 51.476562-77.5v-115.019531zm0 0" fill="#f7d291"/><path d="m204.523438 360.96875c15.96875 6.230469 33.328124 9.660156 51.476562 9.660156s35.507812-3.429687 51.476562-9.660156v-114.988281h-102.953124zm0 0" fill="#f0c382"/><path d="m388.5 257.84375h-30.5v-89.0625h40.304688c10.875 0 19.695312 8.820312 19.695312 19.699219v39.863281c0 16.292969-13.207031 29.5-29.5 29.5zm0 0" fill="#f7d291"/><path d="m123.5 257.84375h30.5v-89.0625h-40.304688c-10.875 0-19.695312 8.820312-19.695312 19.699219v39.863281c0 16.292969 13.207031 29.5 29.5 29.5zm0 0" fill="#f0c382"/><path d="m256 350.628906c-67.378906 0-122-54.621094-122-122v-91.628906c0-67.378906 54.621094-122 122-122s122 54.621094 122 122v91.628906c0 67.378906-54.621094 122-122 122zm0 0" fill="#ffe1a0"/><path d="m184 228.628906v-91.628906c0-58.808594 41.613281-107.894531 97-119.429688-8.070312-1.683593-16.429688-2.570312-25-2.570312-67.378906 0-122 54.621094-122 122v91.628906c0 67.378906 54.621094 122 122 122 8.570312 0 16.929688-.890625 25-2.570312-55.386719-11.535156-97-60.621094-97-119.429688zm0 0" fill="#f7d291"/><path d="m267.890625 456.382812-63.367187-95.382812h-50l88.367187 133.015625zm0 0" fill="#edebed"/><path d="m256 512c-15.734375 0-31.136719-1.421875-46.089844-4.140625l97.566406-146.859375h50l-100.308593 150.992188c-.390625 0-.777344.007812-1.167969.007812zm0 0" fill="#fff"/><path d="m393 168.785156v-31.785156c0-75.542969-61.457031-137-137-137s-137 61.457031-137 137v31.785156h15s66-3.285156 76-70.78125c0 0 33.667969 70.78125 168 70.78125zm0 0" fill="#6e5a64"/><path d="m169 137c0-67.003906 48.355469-122.921875 112-134.707031-8.109375-1.5-16.464844-2.292969-25-2.292969-75.542969 0-137 61.457031-137 137v31.785156h15s16.96875-.851562 35-10.480468zm0 0" fill="#64505a"/></svg>