<svg height="512pt" viewBox="0 0 512 512" width="512pt" xmlns="http://www.w3.org/2000/svg"><path d="m512 256c0 141.386719-114.613281 256-256 256s-256-114.613281-256-256 114.613281-256 256-256 256 114.613281 256 256zm0 0" fill="#a35bef"/><path d="m479.351562 223.351562c0 123.351563-100 223.347657-223.351562 223.347657s-223.351562-99.996094-223.351562-223.347657c0-123.355468 100-223.351562 223.351562-223.351562s223.351562 99.996094 223.351562 223.351562zm0 0" fill="#bd70ff"/><path d="m379.335938 361h-246.671876c-34.96875 0-65.730468 19.480469-81.480468 48.59375 46.707031 62.183594 121.0625 102.40625 204.816406 102.40625s158.109375-40.222656 204.816406-102.40625c-15.75-29.113281-46.511718-48.59375-81.480468-48.59375zm0 0" fill="#edebed"/><path d="m379.335938 361h-246.671876c-34.96875 0-65.730468 19.480469-81.480468 48.59375 2.402344 3.195312 4.878906 6.328125 7.421875 9.40625h84.292969c13.3125 0 24.101562 10.789062 24.101562 24.101562 0 13.308594 10.789062 24.097657 24.101562 24.097657h129.796876c13.3125 0 24.101562-10.789063 24.101562-24.097657 0-13.3125 10.789062-24.101562 24.101562-24.101562h84.292969c2.542969-3.074219 5.019531-6.210938 7.421875-9.40625-15.75-29.113281-46.511718-48.59375-81.480468-48.59375zm0 0" fill="#8cb4eb"/><path d="m124 475.382812c38.542969 23.242188 83.710938 36.617188 132 36.617188s93.457031-13.375 132-36.617188v-113.96875c-2.855469-.265624-5.742188-.414062-8.664062-.414062h-246.671876c-2.921874 0-5.808593.148438-8.664062.414062zm0 0" fill="#fff"/><path d="m127.96875 361.132812c-1.332031.066407-2.652344.15625-3.96875.28125v57.585938h18.898438c13.3125 0 24.101562 10.789062 24.101562 24.101562 0 13.308594 10.789062 24.097657 24.101562 24.097657h129.796876c13.3125 0 24.101562-10.789063 24.101562-24.097657 0-13.3125 10.789062-24.101562 24.101562-24.101562h18.898438v-57.585938c-1.316406-.121093-2.640625-.214843-3.96875-.28125-.1875-.011718-.378906-.023437-.570312-.03125-1.367188-.0625-2.742188-.101562-4.121094-.101562h-246.675782c-1.382812 0-2.757812.035156-4.125.101562-.191406.007813-.378906.019532-.570312.03125zm0 0" fill="#a5cdff"/><path d="m231 510.777344c8.226562.796875 16.5625 1.222656 25 1.222656s16.773438-.425781 25-1.222656v-149.777344h-50zm0 0" fill="#edebed"/><path d="m256 512c8.4375 0 16.773438-.425781 25-1.222656v-149.777344h-25zm0 0" fill="#dbd9dc"/><path d="m204.523438 248.304688v112.695312c0 28.429688 23.046874 37.332031 51.476562 37.332031s51.476562-8.902343 51.476562-37.332031v-112.695312zm0 0" fill="#edebed"/><path d="m204.523438 248.304688v112.695312c0 28.429688 23.046874 37.332031 51.476562 37.332031v-150.027343zm0 0" fill="#dbd9dc"/><path d="m204.523438 360.96875c15.96875 6.230469 33.328124 9.660156 51.476562 9.660156s35.507812-3.429687 51.476562-9.660156v-114.988281h-102.953124zm0 0" fill="#dbd9dc"/><path d="m388.5 257.84375h-30.5v-89.0625h40.304688c10.875 0 19.695312 8.820312 19.695312 19.699219v39.863281c0 16.292969-13.207031 29.5-29.5 29.5zm0 0" fill="#f7d291"/><path d="m123.5 257.84375h30.5v-89.0625h-40.304688c-10.875 0-19.695312 8.820312-19.695312 19.699219v39.863281c0 16.292969 13.207031 29.5 29.5 29.5zm0 0" fill="#f0c382"/><path d="m256 350.628906c-67.378906 0-122-54.621094-122-122v-91.628906c0-67.378906 54.621094-122 122-122s122 54.621094 122 122v91.628906c0 67.378906-54.621094 122-122 122zm0 0" fill="#ffe1a0"/><path d="m184 228.628906v-91.628906c0-58.808594 41.613281-107.894531 97-119.429688-8.070312-1.683593-16.429688-2.570312-25-2.570312-67.378906 0-122 54.621094-122 122v91.628906c0 67.378906 54.621094 122 122 122 8.570312 0 16.929688-.890625 25-2.570312-55.386719-11.535156-97-60.621094-97-119.429688zm0 0" fill="#f7d291"/><path d="m393 168.785156v-31.785156c0-75.542969-61.457031-137-137-137s-137 61.457031-137 137v31.785156h15s66-3.285156 76-70.78125c0 0 33.667969 70.78125 168 70.78125zm0 0" fill="#e6646e"/><path d="m169 137c0-67.003906 48.355469-122.921875 112-134.707031-8.109375-1.5-16.464844-2.292969-25-2.292969-75.542969 0-137 61.457031-137 137v31.785156h15s16.96875-.851562 35-10.480468zm0 0" fill="#dc4655"/></svg>