<svg height="512pt" viewBox="0 0 512 512" width="512pt" xmlns="http://www.w3.org/2000/svg"><path d="m512 256c0 141.386719-114.613281 256-256 256s-256-114.613281-256-256 114.613281-256 256-256 256 114.613281 256 256zm0 0" fill="#8cb4eb"/><path d="m479.351562 223.351562c0 123.351563-100 223.347657-223.351562 223.347657s-223.351562-99.996094-223.351562-223.347657c0-123.355468 100-223.351562 223.351562-223.351562s223.351562 99.996094 223.351562 223.351562zm0 0" fill="#a5cdff"/><path d="m256 419.210938c-75.664062 0-137-61.339844-137-137v-94.890626h274v94.890626c0 75.660156-61.335938 137-137 137zm0 0" fill="#5a4650"/><path d="m348.597656 361h-185.195312c-44.058594 0-81.832032 30.300781-91.996094 72.359375 46.582031 48.46875 112.0625 78.640625 184.59375 78.640625s138.011719-30.171875 184.589844-78.640625c-10.164063-42.058594-47.933594-72.359375-91.992188-72.359375zm0 0" fill="#e6646e"/><path d="m124 475.359375c38.546875 23.25 83.703125 36.640625 132 36.640625s93.453125-13.390625 132-36.640625v-105.765625c-12.046875-5.523438-25.40625-8.59375-39.402344-8.59375h-185.195312c-13.996094 0-27.355469 3.070312-39.402344 8.59375zm0 0" fill="#ff8087"/><path d="m76.136719 419h66.761719c13.3125 0 24.101562 10.789062 24.101562 24.101562 0 13.308594 10.789062 24.097657 24.101562 24.097657h129.796876c13.3125 0 24.101562-10.789063 24.101562-24.097657 0-13.3125 10.789062-24.101562 24.101562-24.101562h66.761719c-14.453125-34.421875-48.410156-58-87.265625-58h-185.195312c-38.855469 0-72.8125 23.578125-87.265625 58zm0 0" fill="#edebed"/><path d="m388 369.601562c-12.046875-5.527343-25.402344-8.601562-39.402344-8.601562h-185.195312c-14 0-27.355469 3.074219-39.402344 8.601562v49.398438h18.898438c13.3125 0 24.101562 10.789062 24.101562 24.101562 0 13.308594 10.789062 24.097657 24.101562 24.097657h129.796876c13.3125 0 24.101562-10.789063 24.101562-24.097657 0-13.3125 10.789062-24.101562 24.101562-24.101562h18.898438zm0 0" fill="#fff"/><path d="m231 510.777344c8.226562.796875 16.5625 1.222656 25 1.222656s16.773438-.425781 25-1.222656v-149.777344h-50zm0 0" fill="#edebed"/><path d="m256 512c8.4375 0 16.773438-.425781 25-1.222656v-149.777344h-25zm0 0" fill="#dbd9dc"/><path d="m204.523438 248.304688v112.695312c0 28.429688 23.046874 37.332031 51.476562 37.332031s51.476562-8.902343 51.476562-37.332031v-112.695312zm0 0" fill="#edebed"/><path d="m204.523438 248.304688v112.695312c0 28.429688 23.046874 37.332031 51.476562 37.332031v-150.027343zm0 0" fill="#dbd9dc"/><path d="m204.523438 360.96875c15.96875 6.230469 33.328124 9.660156 51.476562 9.660156s35.507812-3.429687 51.476562-9.660156v-114.988281h-102.953124zm0 0" fill="#dbd9dc"/><path d="m388.5 257.84375h-30.5v-89.0625h40.304688c10.875 0 19.695312 8.820312 19.695312 19.699219v39.863281c0 16.292969-13.207031 29.5-29.5 29.5zm0 0" fill="#f7d291"/><path d="m123.5 257.84375h30.5v-89.0625h-40.304688c-10.875 0-19.695312 8.820312-19.695312 19.699219v39.863281c0 16.292969 13.207031 29.5 29.5 29.5zm0 0" fill="#f0c382"/><path d="m256 350.628906c-67.378906 0-122-54.621094-122-122v-91.628906c0-67.378906 54.621094-122 122-122s122 54.621094 122 122v91.628906c0 67.378906-54.621094 122-122 122zm0 0" fill="#ffe1a0"/><path d="m184 228.628906v-91.628906c0-58.808594 41.613281-107.894531 97-119.429688-8.070312-1.683593-16.429688-2.570312-25-2.570312-67.378906 0-122 54.621094-122 122v91.628906c0 67.378906 54.621094 122 122 122 8.570312 0 16.929688-.890625 25-2.570312-55.386719-11.535156-97-60.621094-97-119.429688zm0 0" fill="#f7d291"/><path d="m256 0c-75.542969 0-137 61.457031-137 137v31.78125h15s100-4.28125 122-82.78125c22 78.5 122 82.78125 122 82.78125h15v-31.78125c0-75.542969-61.457031-137-137-137zm0 0" fill="#6e5a64"/><path d="m169 137c0-67.003906 48.355469-122.921875 112-134.707031-8.109375-1.5-16.464844-2.292969-25-2.292969-75.542969 0-137 61.457031-137 137v31.78125h15s15.175781-.652344 35-6.085938zm0 0" fill="#64505a"/></svg>