<svg height="512pt" viewBox="0 0 512 512" width="512pt" xmlns="http://www.w3.org/2000/svg"><path d="m512 256c0 141.386719-114.613281 256-256 256s-256-114.613281-256-256 114.613281-256 256-256 256 114.613281 256 256zm0 0" fill="#ffd164"/><path d="m479.351562 223.351562c0 123.351563-100 223.347657-223.351562 223.347657s-223.351562-99.996094-223.351562-223.347657c0-123.355468 100-223.351562 223.351562-223.351562s223.351562 99.996094 223.351562 223.351562zm0 0" fill="#ffe17d"/><path d="m375.335938 308.304688h-238.671876c-14.378906 0-26.03125 11.65625-26.03125 26.03125v132.394531c41.292969 28.539062 91.371094 45.269531 145.367188 45.269531s104.074219-16.730469 145.367188-45.269531v-132.394531c0-14.375-11.652344-26.03125-26.03125-26.03125zm0 0" fill="#5a4650"/><path d="m379.335938 361h-246.671876c-34.96875 0-65.730468 19.480469-81.480468 48.59375 46.707031 62.183594 121.0625 102.40625 204.816406 102.40625s158.109375-40.222656 204.816406-102.40625c-15.75-29.113281-46.511718-48.59375-81.480468-48.59375zm0 0" fill="#edebed"/><path d="m132.664062 361c-34.96875 0-65.730468 19.480469-81.480468 48.59375 46.707031 62.183594 121.0625 102.40625 204.816406 102.40625v-151zm0 0" fill="#dbd9dc"/><path d="m124 475.382812c38.542969 23.242188 83.710938 36.617188 132 36.617188s93.457031-13.375 132-36.617188v-113.96875c-2.855469-.265624-5.742188-.414062-8.664062-.414062h-246.671876c-2.921874 0-5.808593.148438-8.664062.414062zm0 0" fill="#fff"/><path d="m132.664062 361c-2.921874 0-5.808593.148438-8.664062.414062v113.96875c38.542969 23.242188 83.710938 36.617188 132 36.617188v-151zm0 0" fill="#edebed"/><path d="m204.523438 248.304688v112.695312c0 28.429688 23.046874 37.332031 51.476562 37.332031s51.476562-8.902343 51.476562-37.332031v-112.695312zm0 0" fill="#edebed"/><path d="m204.523438 248.304688v112.695312c0 28.429688 23.046874 37.332031 51.476562 37.332031v-150.027343zm0 0" fill="#dbd9dc"/><path d="m204.523438 360.96875c15.96875 6.230469 33.328124 9.660156 51.476562 9.660156s35.507812-3.429687 51.476562-9.660156v-114.988281h-102.953124zm0 0" fill="#dbd9dc"/><path d="m256 350.628906c-67.378906 0-122-54.621094-122-122v-91.628906c0-67.378906 54.621094-122 122-122s122 54.621094 122 122v91.628906c0 67.378906-54.621094 122-122 122zm0 0" fill="#cd916e"/><path d="m338 318.960938c24.570312-22.320313 40-54.523438 40-90.332032v-91.628906c0-67.378906-54.621094-122-122-122s-122 54.621094-122 122v91.628906c0 35.808594 15.429688 68.011719 40 90.332032v-130.175782h164zm0 0" fill="#b67f5f"/><path d="m393 138.328125c0-75.730469-60.882812-138.117187-136.609375-138.328125-75.722656-.210938-137.390625 61.328125-137.390625 137 0 2.949219-1.339844 5.738281-3.644531 7.582031l-17.710938 14.167969c-2.304687 1.84375-3.644531 4.632812-3.644531 7.582031v102.238281c0 4.179688 2.675781 7.890626 6.640625 9.210938l40.578125 13.527344c6.289062 2.09375 12.78125-2.585938 12.78125-9.210938v-103.605468c0-5.363282 4.347656-9.710938 9.710938-9.710938h184.578124c5.363282 0 9.710938 4.347656 9.710938 9.710938v103.605468c0 6.625 6.492188 11.304688 12.78125 9.210938l40.578125-13.527344c3.964844-1.320312 6.640625-5.03125 6.640625-9.210938v-102.238281c0-2.949219-1.339844-5.738281-3.644531-7.582031l-18.746094-14.996094c-1.648437-1.320312-2.609375-3.316406-2.609375-5.425781zm0 0" fill="#b4f09b"/><path d="m154 137c0-69.597656 52.167969-127.242188 119.457031-135.878906-5.589843-.722656-11.285156-1.105469-17.066406-1.121094-75.722656-.210938-137.390625 61.328125-137.390625 137 0 2.949219-1.339844 5.738281-3.644531 7.582031l-17.710938 14.167969c-2.304687 1.84375-3.644531 4.632812-3.644531 7.582031v102.238281c0 4.179688 2.675781 7.890626 6.640625 9.210938l40.578125 13.527344c6.289062 2.097656 12.78125-2.582032 12.78125-9.210938zm0 0" fill="#64dca0"/><path d="m305.976562 259.976562h-100.054687c-39.0625 0-70.726563-31.664062-70.726563-70.726562v-34.238281h241.507813v34.238281c0 39.0625-31.664063 70.726562-70.726563 70.726562zm0 0" fill="#fff"/><path d="m185.195312 189.253906v-34.242187h-50v34.242187c0 39.058594 31.664063 70.722656 70.726563 70.722656h50c-39.0625 0-70.726563-31.664062-70.726563-70.722656zm0 0" fill="#edebed"/><path d="m256 104.214844c-60 0-145.367188 25.3125-145.367188 43.769531v23.582031c0 3.550782 3.453126 6.089844 6.835938 5.011719 16.316406-5.195313 61.980469-17.074219 138.53125-17.074219s122.214844 11.878906 138.53125 17.074219c3.382812 1.078125 6.835938-1.460937 6.835938-5.011719v-23.582031c0-18.460937-85.367188-43.769531-145.367188-43.769531zm0 0" fill="#cdf5a0"/><path d="m160.632812 119.230469c-28.75 8.628906-50 19.542969-50 28.75v23.585937c0 3.550782 3.453126 6.089844 6.835938 5.011719 7.734375-2.464844 22.078125-6.429687 43.164062-9.917969zm0 0" fill="#b4f09b"/><path d="m338 498.582031c17.601562-5.949219 34.347656-13.761719 50-23.199219v-113.96875c-2.855469-.265624-5.742188-.414062-8.664062-.414062h-41.335938zm0 0" fill="#6e5a64"/><path d="m124 475.382812c15.652344 9.4375 32.398438 17.25 50 23.199219v-137.582031h-41.335938c-2.921874 0-5.808593.148438-8.664062.414062zm0 0" fill="#64505a"/></svg>